<?xml version="1.0" encoding="UTF-8"?><svg xmlns="http://www.w3.org/2000/svg" viewBox="0 0 84.14 84.26"><defs><style>.cls-1{opacity:.7;}.cls-2{fill:#c3d9ff;}.cls-2,.cls-3,.cls-4,.cls-5,.cls-6{opacity:.3;}.cls-3{fill:#233436;}.cls-7{isolation:isolate;}.cls-8{fill:#566070;}.cls-8,.cls-9,.cls-10,.cls-11{opacity:.2;}.cls-4,.cls-12,.cls-13,.cls-10{fill:#7f4500;}.cls-9{fill:#283c3d;}.cls-14{fill:#a6f8ff;}.cls-14,.cls-15,.cls-13{opacity:.4;}.cls-16{fill:#649599;}.cls-5{fill:#1f2329;}.cls-17{fill:#77859c;}.cls-18{fill:#ffc200;}.cls-19{fill:#ed7d3c;}.cls-11{fill:#e2ff27;mix-blend-mode:multiply;}</style></defs><g class="cls-7"><g id="Layer_2"><g id="Layer_1-2"><g><rect class="cls-17" x="58.81" y="63.9" width="1.7" height="20.36"/><rect class="cls-2" x="59.94" y="63.9" width=".57" height="20.36"/><rect class="cls-8" x="58.81" y="63.9" width=".85" height="20.36"/><rect class="cls-17" x="28.1" y="23.24" width="1.7" height="61.02"/><rect class="cls-2" x="29.24" y="23.24" width=".57" height="61.02"/><rect class="cls-8" x="28.1" y="23.24" width=".85" height="61.02"/><path class="cls-5" d="M29.8,24.48c-.25-.14-.54-.23-.85-.23h0c-.31,0-.6,.09-.85,.23v4.36c.25,.14,.54,.23,.85,.23h0c.31,0,.6-.09,.85-.23v-4.36Z"/><path class="cls-17" d="M28.95,28.46h0c-.98,0-1.78-.8-1.78-1.78v-1.76c0-.98,.8-1.78,1.78-1.78h0c.98,0,1.78,.8,1.78,1.78v1.76c0,.98-.8,1.78-1.78,1.78Z"/><rect class="cls-17" x="42.05" y="41.28" width="1.7" height="42.98"/><rect class="cls-2" x="43.18" y="41.28" width=".57" height="42.98"/><rect class="cls-8" x="42.05" y="41.28" width=".85" height="42.98"/><path class="cls-5" d="M43.75,42.52c-.25-.14-.54-.23-.85-.23h0c-.31,0-.6,.09-.85,.23v4.36c.25,.14,.54,.23,.85,.23h0c.31,0,.6-.09,.85-.23v-4.36Z"/><path class="cls-12" d="M8.81,82.73H83.12v.07c0,.81-.66,1.47-1.47,1.47H8.81v-1.53h0Z"/><path class="cls-17" d="M42.9,46.5h0c-.98,0-1.78-.8-1.78-1.78v-1.76c0-.98,.8-1.78,1.78-1.78h0c.98,0,1.78,.8,1.78,1.78v1.76c0,.98-.8,1.78-1.78,1.78Z"/><path class="cls-5" d="M60.51,65.14c-.25-.14-.54-.23-.85-.23h0c-.31,0-.6,.09-.85,.23v4.36c.25,.14,.54,.23,.85,.23h0c.31,0,.6-.09,.85-.23v-4.36Z"/><path class="cls-17" d="M59.66,69.12h0c-.98,0-1.78-.8-1.78-1.78v-1.76c0-.98,.8-1.78,1.78-1.78h0c.98,0,1.78,.79,1.78,1.78v1.76c0,.98-.8,1.78-1.78,1.78Z"/><g><path class="cls-18" d="M82.92,83.61c-12.45,0-15.63-6.43-17.34-10.56-1.66-4.02-2.5-5.65-6.47-5.65-10.06,0-11.66-9.28-12.73-15.42-.84-4.83-1.42-6.98-2.7-6.98-8.89,0-10.18-6.95-11.03-11.55-.98-5.3-1.53-8.23-8.36-8.23v-7.04c12.69,0,14.31,8.75,15.28,13.98,.96,5.15,1.42,5.8,4.12,5.8,7.41,0,8.7,7.41,9.63,12.82,1.26,7.31,2.23,9.58,5.79,9.58,8.84,0,11.33,6.02,12.98,10,1.6,3.88,2.49,6.01,7.23,6.01l1.8,4.32,1.8,2.92Z"/><path class="cls-14" d="M66.13,72.47c-1.66-4.02-2.5-5.65-6.47-5.65-10.06,0-11.66-9.28-12.73-15.42-.84-4.83-1.42-6.98-2.7-6.98-8.89,0-10.18-6.95-11.03-11.55-.98-5.3-1.53-8.23-8.36-8.23v-6.45c-.18,0-.36-.01-.54-.01v7.04c6.84,0,7.38,2.92,8.36,8.23,.85,4.6,2.15,11.55,11.03,11.55,1.28,0,1.86,2.15,2.7,6.98,1.06,6.14,2.67,15.42,12.73,15.42,3.98,0,4.81,1.63,6.47,5.65,1.71,4.13,4.88,10.56,17.34,10.56l-.37-.61c-11.68-.32-14.76-6.51-16.42-10.53Z"/><path class="cls-11" d="M39.23,32.92c.96,5.15,1.42,5.8,4.12,5.8,7.41,0,8.7,7.41,9.63,12.82,1.26,7.31,2.23,9.58,5.79,9.58,8.84,0,11.33,6.02,12.98,10,1.6,3.88,2.49,6.01,7.23,6.01l1.8,4.32,1.31,2.13c.28,0,.54,.03,.82,.03l-1.8-2.92-1.8-4.32c-4.74,0-5.63-2.14-7.23-6.01-1.65-3.98-4.14-10-12.98-10-3.56,0-4.53-2.28-5.79-9.58-.94-5.41-2.22-12.82-9.63-12.82-2.7,0-3.16-.65-4.12-5.8-.97-5.23-2.59-13.98-15.28-13.98v.77c12.37,.16,13.98,8.79,14.94,13.97Z"/><path class="cls-18" d="M67.28,71.02c-1.66-4.02-2.5-5.65-6.47-5.65-10.06,0-11.66-9.28-12.73-15.42-.84-4.83-1.42-6.98-2.7-6.98-8.89,0-10.18-6.95-11.03-11.55-.98-5.3-1.53-8.23-8.36-8.23v-4.95c-.54-.04-1.1-.06-1.69-.06v7.04c6.84,0,7.38,2.92,8.36,8.23,.85,4.6,2.15,11.55,11.03,11.55,1.28,0,1.86,2.15,2.7,6.98,1.06,6.14,2.67,15.42,12.73,15.42,3.98,0,4.81,1.63,6.47,5.65,1.71,4.13,4.88,10.56,17.34,10.56l-1.35-2.19c-9.94-.97-12.74-6.64-14.3-10.4Z"/><path class="cls-19" d="M83.65,79.98c.9,2.01,.5,3.64-.89,3.64s-3.26-1.63-4.16-3.64c-.9-2.01-.5-3.64,.89-3.64s3.26,1.63,4.16,3.64Z"/><path class="cls-19" d="M82.82,83.41c-1.4,0-3.26-1.63-4.16-3.64-.43-.96-.56-1.83-.43-2.48-.21,.67-.11,1.62,.37,2.69,.9,2.01,2.77,3.64,4.16,3.64,.73,0,1.18-.45,1.32-1.16-.19,.58-.61,.94-1.26,.94Z"/><path class="cls-19" d="M79.45,76.49c1.4,0,3.26,1.63,4.16,3.64,.44,.97,.56,1.85,.43,2.5,.2-.66,.09-1.61-.38-2.66-.9-2.01-2.77-3.64-4.16-3.64-.72,0-1.17,.44-1.32,1.14,.18-.6,.61-.98,1.27-.98Z"/><path class="cls-16" d="M83.15,79.98c.78,1.73,.43,3.13-.77,3.13s-2.8-1.4-3.58-3.13c-.78-1.73-.43-3.13,.77-3.13s2.81,1.4,3.58,3.13Z"/><path class="cls-9" d="M83.15,79.98c-.78-1.73-2.38-3.13-3.58-3.13-1.04,0-1.44,1.06-1.01,2.47,1.14,.24,2.52,1.52,3.22,3.08,.1,.23,.18,.45,.25,.66,.12,.03,.25,.05,.36,.05,1.2,0,1.54-1.4,.77-3.13Z"/><path class="cls-3" d="M79.08,76.94c-.5,.22-.74,.8-.68,1.56,.19-.16,.44-.25,.74-.25,1.2,0,2.8,1.4,3.58,3.13,.24,.54,.36,1.03,.4,1.48,.56-.48,.6-1.59,.02-2.88-.78-1.73-2.38-3.13-3.58-3.13-.18,0-.34,.03-.48,.09"/><path class="cls-19" d="M42.9,44.96c.26,.01,.51,.04,.79,.04,.15,0,.29,.03,.43,.09l.86-7.05c-.39-.05-.79-.08-1.22-.08l-.86,6.99Z"/><path class="cls-19" d="M59.66,67.41c.45,.02,.85,.06,1.22,.13l.21-7.06c-.39-.04-.8-.07-1.22-.09l-.2,7.02Z"/><path class="cls-19" d="M72.11,81.17c.34,.2,.71,.38,1.08,.56l2.97-5.86c-.4-.16-.76-.35-1.07-.58l-2.98,5.88Z"/><path class="cls-11" d="M27.25,19.71c-.95,2.54,3.47,.37,7.13,6.17,3.65,5.8,2.39,9.65,3.7,11.43,1.31,1.77,1.94,.17,.5-5.93-1.44-6.1-5.28-9.26-6.5-9.98s-4.83-1.68-4.83-1.68Z"/><path class="cls-19" d="M32.11,19.74l-2.31,6.78c.38,.28,.7,.61,.97,.97l2.44-7.16c-.34-.21-.71-.41-1.09-.6Z"/><path class="cls-18" d="M46.52,40.25c-.86,2.39,5.24,14.26,6.54,18.8,1.3,4.54,2.21,2.97,.72-2.07-1.49-5.04-2.37-12.23-3.61-14.18-1.23-1.94-3.65-2.55-3.65-2.55Z"/><path class="cls-6" d="M26.6,18.29c-.73-.07-1.5-.11-2.31-.11v7.04c.87,0,1.63,.05,2.31,.14v-7.07Z"/><path class="cls-18" d="M62.15,61.23c-2.76,.77,1.95,1.72,5.88,6.99,3.92,5.28,4.76,10.16,5.32,8.17,.56-1.99-1.89-7.68-3.27-9.74-1.38-2.06-6.8-5.74-7.93-5.42Z"/><g><rect class="cls-12" x="1.13" y="6.57" width="1.76" height="18.62"/><rect class="cls-12" x="23.41" y="6.57" width="1.76" height="18.62"/><path class="cls-12" d="M.75,6.57L8.37,1.43c2.94-1.99,6.82-1.9,9.67,.22l7.52,5.6L.75,6.57Z"/><path class="cls-10" d="M8.01,2.33c2.94-1.99,6.82-1.9,9.67,.22l6.25,4.65,1.63,.04L18.04,1.65c-2.85-2.12-6.73-2.21-9.67-.22L.75,6.57l.94,.03L8.01,2.33Z"/><g><g><rect class="cls-12" x="1.14" y="18.01" width="1.02" height="8.81" rx=".32" ry=".32"/><rect class="cls-12" x="4.98" y="18.01" width="1.02" height="8.81" rx=".32" ry=".32"/><rect class="cls-12" x="8.81" y="18.01" width="1.02" height="8.81" rx=".32" ry=".32"/><rect class="cls-12" x="12.64" y="18.01" width="1.02" height="8.81" rx=".32" ry=".32"/><rect class="cls-12" x="16.48" y="18.01" width="1.02" height="8.81" rx=".32" ry=".32"/><rect class="cls-12" x="20.31" y="18.01" width="1.02" height="8.81" rx=".32" ry=".32"/><rect class="cls-12" x="24.15" y="18.01" width="1.02" height="8.81" rx=".32" ry=".32"/></g><rect class="cls-12" x=".27" y="17.72" width="25.67" height="1.29" rx=".44" ry=".44"/><path class="cls-13" d="M.71,17.78c-.13,0-.24,.06-.32,.15,.08,.09,.19,.15,.32,.15H25.5c.13,0,.24-.06,.32-.15-.08-.09-.19-.15-.32-.15H.71Z"/><path class="cls-10" d="M25.5,18.57H.71c-.24,0-.43-.19-.44-.43h0v.42c0,.24,.2,.44,.44,.44H25.5c.24,0,.44-.2,.44-.44v-.41h0c0,.22-.2,.41-.44,.41Z"/><rect class="cls-4" x="1.14" y="19.01" width="1.02" height=".7"/><rect class="cls-4" x="4.98" y="19.01" width="1.02" height=".7"/><rect class="cls-4" x="8.81" y="19.01" width="1.02" height=".7"/><rect class="cls-4" x="12.64" y="19.01" width="1.02" height=".7"/><rect class="cls-4" x="16.48" y="19.01" width="1.02" height=".7"/><rect class="cls-4" x="20.31" y="19.01" width="1.02" height=".7"/><rect class="cls-4" x="24.15" y="19.01" width="1.02" height=".7"/></g><g><g><g><g><rect class="cls-12" x="11.1" y="25.88" width="4.06" height=".44"/><rect class="cls-12" x="11.1" y="28.62" width="4.06" height=".44"/><rect class="cls-12" x="11.1" y="31.37" width="4.06" height=".44"/><rect class="cls-12" x="11.1" y="34.11" width="4.06" height=".44"/><rect class="cls-12" x="11.1" y="36.86" width="4.06" height=".44"/><rect class="cls-12" x="11.1" y="39.61" width="4.06" height=".44"/><rect class="cls-12" x="11.1" y="42.35" width="4.06" height=".44"/><rect class="cls-12" x="11.1" y="45.1" width="4.06" height=".44"/><rect class="cls-12" x="11.1" y="47.84" width="4.06" height=".44"/><rect class="cls-12" x="11.1" y="50.59" width="4.06" height=".44"/><rect class="cls-12" x="11.1" y="53.33" width="4.06" height=".44"/><rect class="cls-12" x="11.1" y="56.08" width="4.06" height=".44"/><rect class="cls-12" x="11.1" y="58.82" width="4.06" height=".44"/><rect class="cls-12" x="11.1" y="61.57" width="4.06" height=".44"/><rect class="cls-12" x="11.1" y="64.32" width="4.06" height=".44"/><rect class="cls-12" x="11.1" y="67.06" width="4.06" height=".44"/><rect class="cls-12" x="11.1" y="69.81" width="4.06" height=".44"/><rect class="cls-12" x="11.1" y="72.55" width="4.06" height=".44"/><rect class="cls-12" x="11.1" y="75.3" width="4.06" height=".44"/><rect class="cls-12" x="11.1" y="78.04" width="4.06" height=".44"/><rect class="cls-12" x="11.1" y="80.79" width="4.06" height=".44"/><path class="cls-12" d="M11.22,83.1h0c-.18,0-.32-.14-.32-.32V25.9c0-.18,.14-.32,.32-.32h0c.18,0,.32,.14,.32,.32v56.87c0,.18-.14,.32-.32,.32Z"/><path class="cls-12" d="M14.99,83.1h0c-.18,0-.32-.14-.32-.32V25.9c0-.18,.14-.32,.32-.32h0c.18,0,.32,.14,.32,.32v56.87c0,.18-.14,.32-.32,.32Z"/></g><rect class="cls-4" x="11.55" y="25.88" width=".36" height=".44"/><rect class="cls-4" x="11.55" y="28.62" width=".36" height=".44"/><rect class="cls-4" x="11.55" y="31.37" width=".36" height=".44"/><rect class="cls-4" x="11.55" y="34.11" width=".36" height=".44"/><rect class="cls-4" x="11.55" y="36.86" width=".36" height=".44"/><rect class="cls-4" x="11.55" y="39.61" width=".36" height=".44"/><rect class="cls-4" x="11.55" y="42.35" width=".36" height=".44"/><rect class="cls-4" x="11.55" y="45.1" width=".36" height=".44"/><rect class="cls-4" x="11.55" y="47.84" width=".36" height=".44"/><rect class="cls-4" x="11.55" y="50.59" width=".36" height=".44"/><rect class="cls-4" x="11.55" y="53.33" width=".36" height=".44"/><rect class="cls-4" x="11.55" y="56.08" width=".36" height=".44"/><rect class="cls-4" x="11.55" y="58.82" width=".36" height=".44"/><rect class="cls-4" x="11.55" y="61.57" width=".36" height=".44"/><rect class="cls-4" x="11.55" y="64.32" width=".36" height=".44"/><rect class="cls-4" x="11.55" y="67.06" width=".36" height=".44"/><rect class="cls-4" x="11.55" y="69.81" width=".36" height=".44"/><rect class="cls-4" x="11.55" y="72.55" width=".36" height=".44"/><rect class="cls-4" x="11.55" y="75.3" width=".36" height=".44"/><rect class="cls-4" x="11.55" y="78.04" width=".36" height=".44"/><rect class="cls-4" x="11.55" y="80.79" width=".36" height=".44"/></g><g class="cls-1"><polygon class="cls-13" points="11.55 59.71 11.55 59.27 11.9 59.27 12.3 59.27 13.05 58.82 11.9 58.82 11.55 58.82 11.55 58.29 10.9 58.67 10.9 60.09 11.55 59.71"/><rect class="cls-13" x="10.9" y="51.62" width=".65" height=".95"/><rect class="cls-13" x="14.67" y="51.62" width=".65" height=".95"/><polygon class="cls-13" points="10.9 46 10.9 47.42 11.55 47.04 11.55 45.62 10.9 46"/><polygon class="cls-13" points="14.67 43.78 14.67 45.1 12.43 45.1 11.68 45.54 11.9 45.54 14.09 45.54 15.31 44.82 15.31 43.4 14.67 43.78"/><polygon class="cls-13" points="10.9 38.98 10.9 39.93 15.31 39.93 15.31 38.98 14.67 38.98 14.67 39.61 11.9 39.61 11.55 39.61 11.55 38.98 10.9 38.98"/><polygon class="cls-13" points="14.67 64.32 11.9 64.32 11.55 64.32 11.55 64.25 10.9 64.25 10.9 65.19 11.55 65.19 11.55 64.76 11.9 64.76 14.67 64.76 14.67 65.19 15.31 65.19 15.31 64.25 14.67 64.25 14.67 64.32"/><polygon class="cls-13" points="14.55 56.52 14.67 56.52 14.67 57.87 15.31 57.49 15.31 56.07 14.55 56.52"/><rect class="cls-13" x="14.67" y="76.88" width=".65" height=".95"/><path class="cls-13" d="M10.9,28.64h4.41v-2.54h-4.41v2.54Zm1-2.32h2.76v2.3h-3.12v-2.3h.36Z"/><rect class="cls-13" x="10.9" y="76.88" width=".65" height=".95"/><polygon class="cls-13" points="11.55 72.39 11.55 70.96 10.9 71.35 10.9 72.77 11.55 72.39"/><polygon class="cls-13" points="10.9 33.33 10.9 34.75 11.97 34.11 11.9 34.11 11.55 34.11 11.55 32.95 10.9 33.33"/><polygon class="cls-13" points="15.31 70.16 15.31 68.74 14.67 69.12 14.67 69.81 13.51 69.81 12.76 70.25 14.67 70.25 14.67 70.54 15.31 70.16"/><polygon class="cls-13" points="14.67 31.37 14.22 31.37 13.47 31.81 14.67 31.81 14.67 32.53 15.31 32.15 15.31 30.73 14.67 31.11 14.67 31.37"/></g><g><g><g><polygon class="cls-12" points="23.11 64.89 3.1 76.7 3.1 75.28 23.11 63.47 23.11 64.89"/><polygon class="cls-10" points="3.1 76.7 23.11 64.89 23.11 64.48 3.1 76.29 3.1 76.7"/><polygon class="cls-13" points="3.1 75.28 3.1 75.52 23.11 63.71 23.11 63.47 3.1 75.28"/><polygon class="cls-13" points="21.39 64.99 21.92 64.99 21.92 65.59 23.11 64.89 23.11 63.47 20.54 64.99 21.39 64.99"/></g><g><polygon class="cls-12" points="23.11 52.21 3.1 64.02 3.1 62.6 23.11 50.79 23.11 52.21"/><polygon class="cls-10" points="3.1 64.02 23.11 52.21 23.11 51.81 3.1 63.62 3.1 64.02"/><polygon class="cls-13" points="3.1 62.6 3.1 62.85 23.11 51.04 23.11 50.79 3.1 62.6"/><polygon class="cls-13" points="21.39 52.31 21.92 52.31 21.92 52.92 23.11 52.21 23.11 50.79 20.54 52.31 21.39 52.31"/></g><g><polygon class="cls-12" points="23.11 39.54 3.1 51.35 3.1 49.93 23.11 38.12 23.11 39.54"/><polygon class="cls-10" points="3.1 51.35 23.11 39.54 23.11 39.13 3.1 50.94 3.1 51.35"/><polygon class="cls-13" points="3.1 49.93 3.1 50.17 23.11 38.36 23.11 38.12 3.1 49.93"/><polygon class="cls-13" points="21.39 39.64 21.92 39.64 21.92 40.25 23.11 39.54 23.11 38.12 20.54 39.64 21.39 39.64"/></g><g><polygon class="cls-12" points="23.11 26.87 3.1 38.68 3.1 37.26 23.11 25.45 23.11 26.87"/><polygon class="cls-10" points="3.1 38.68 23.11 26.87 23.11 26.46 3.1 38.27 3.1 38.68"/><polygon class="cls-13" points="3.1 37.26 3.1 37.5 23.11 25.69 23.11 25.45 3.1 37.26"/><polygon class="cls-13" points="21.39 26.97 21.92 26.97 21.92 27.58 23.11 26.87 23.11 25.45 20.54 26.97 21.39 26.97"/></g><g><rect class="cls-12" x="3.22" y="75.97" width="20.11" height=".17"/><g><rect class="cls-12" x="3.22" y="75.97" width="20.11" height=".95"/><rect class="cls-10" x="3.22" y="76.7" width="20.11" height=".22"/><rect class="cls-10" x="3.91" y="75.97" width=".53" height=".95"/><rect class="cls-10" x="21.78" y="75.97" width=".53" height=".95"/></g></g><g><rect class="cls-12" x="3.22" y="63.34" width="20.11" height=".17"/><g><rect class="cls-12" x="3.22" y="63.34" width="20.11" height=".95"/><rect class="cls-10" x="3.22" y="64.07" width="20.11" height=".22"/><rect class="cls-10" x="3.91" y="63.34" width=".53" height=".95"/><rect class="cls-10" x="21.78" y="63.34" width=".53" height=".95"/></g></g><g><rect class="cls-12" x="3.22" y="50.71" width="20.11" height=".17"/><g><rect class="cls-12" x="3.22" y="50.71" width="20.11" height=".95"/><rect class="cls-10" x="3.22" y="51.44" width="20.11" height=".22"/><rect class="cls-10" x="3.91" y="50.71" width=".53" height=".95"/><rect class="cls-10" x="21.78" y="50.71" width=".53" height=".95"/></g></g><g><rect class="cls-12" x="3.22" y="38.08" width="20.11" height=".17"/><g><rect class="cls-12" x="3.22" y="38.08" width="20.11" height=".95"/><rect class="cls-10" x="3.22" y="38.81" width="20.11" height=".22"/><rect class="cls-10" x="3.91" y="38.08" width=".53" height=".95"/><rect class="cls-10" x="21.78" y="38.08" width=".53" height=".95"/></g></g><g><rect class="cls-12" x="2.61" y="25.45" width="1.3" height="57.65" rx=".5" ry=".5"/><path class="cls-4" d="M3.46,25.45h-.32c.25,0,.45,.25,.45,.56v56.53c0,.31-.2,.56-.45,.56h.32c.25,0,.45-.25,.45-.56V26.01c0-.31-.2-.56-.45-.56Z"/><path class="cls-10" d="M3.08,82.54V26.01c0-.29,.18-.52,.42-.55-.01,0-.02,0-.04,0h-.39c-.25,0-.45,.25-.45,.56v56.53c0,.31,.2,.56,.45,.56h.39s.02,0,.04,0c-.23-.02-.42-.26-.42-.55Z"/><rect class="cls-12" x="22.31" y="25.45" width="1.3" height="57.65" rx=".5" ry=".5"/><path class="cls-4" d="M23.15,25.45h-.32c.25,0,.45,.25,.45,.56v56.53c0,.31-.2,.56-.45,.56h.32c.25,0,.45-.25,.45-.56V26.01c0-.31-.2-.56-.45-.56Z"/><path class="cls-10" d="M22.77,82.54V26.01c0-.29,.18-.52,.42-.55-.01,0-.02,0-.04,0h-.39c-.25,0-.45,.25-.45,.56v56.53c0,.31,.2,.56,.45,.56h.39s.02,0,.04,0c-.23-.02-.42-.26-.42-.55Z"/></g></g><rect class="cls-12" x=".14" y="25.19" width="25.93" height="2.54" rx=".62" ry=".62"/><g class="cls-15"><rect class="cls-12" x="2.61" y="27.73" width="1.3" height=".85"/><polygon class="cls-12" points="19.25 27.73 17.8 28.58 20.21 28.58 21.65 27.73 19.25 27.73"/><rect class="cls-12" x="22.3" y="27.73" width="1.3" height=".85"/></g><path class="cls-10" d="M.14,27.12c0,.34,.28,.61,.62,.61H25.45c.34,0,.61-.27,.62-.61H.14Z"/><path class="cls-13" d="M.16,25.74H26.06c-.04-.31-.29-.55-.61-.55H.76c-.32,0-.57,.24-.61,.55Z"/></g></g><path class="cls-12" d="M1.39,82.73H24.91c.35,0,.64,.29,.64,.64v.25c0,.35-.29,.64-.64,.64H1.39c-.35,0-.64-.29-.64-.64v-.25c0-.35,.29-.64,.64-.64Z"/><path class="cls-13" d="M24.91,84.09H1.39c-.35,0-.64-.29-.64-.64v.17c0,.36,.29,.64,.64,.64H24.91c.36,0,.64-.29,.64-.64v-.17c0,.36-.29,.64-.64,.64Z"/><path class="cls-4" d="M24.91,83.72H1.39c-.3,0-.55-.21-.61-.5-.01,.05-.03,.09-.03,.15v.25c0,.36,.29,.64,.64,.64H24.91c.36,0,.64-.29,.64-.64v-.25c0-.05-.02-.1-.03-.15-.07,.28-.31,.5-.61,.5Z"/><path class="cls-12" d="M1.39,82.84c-.13,0-.24,.05-.34,.11,.1,.07,.21,.11,.34,.11H24.91c.13,0,.24-.05,.34-.11-.1-.07-.21-.11-.34-.11H1.39Z"/></g><rect class="cls-10" x="1.13" y="6.57" width="1.76" height="2.57"/><rect class="cls-10" x="23.41" y="6.57" width="1.76" height="2.57"/><path class="cls-12" d="M.96,5.96H25.3c.53,0,.96,.43,.96,.96v.65c0,.53-.43,.96-.96,.96H.96c-.53,0-.96-.43-.96-.96v-.65c0-.53,.43-.96,.96-.96Z"/><path class="cls-10" d="M25.3,7.61H.96c-.48,0-.86-.36-.93-.82,0,.05-.03,.09-.03,.14v.65c0,.53,.43,.96,.96,.96H25.3c.53,0,.96-.43,.96-.96v-.65s-.02-.09-.03-.14c-.07,.46-.45,.82-.93,.82Z"/></g></g></g></g></g></g></svg>