<svg xmlns="http://www.w3.org/2000/svg" xmlns:xlink="http://www.w3.org/1999/xlink" width="600" height="745.324" viewBox="0 0 600 745.324">
  <defs>
    <linearGradient id="linear-gradient" y1="0.5" x2="1" y2="0.5" gradientUnits="objectBoundingBox">
      <stop offset="0" stop-color="#cdebf2"/>
      <stop offset="0" stop-color="#64c4ef"/>
      <stop offset="1" stop-color="#4272b7"/>
    </linearGradient>
    <clipPath id="clip-path">
      <rect id="Rectangle_1" data-name="Rectangle 1" width="600" height="745.324" transform="translate(587 156)" fill="url(#linear-gradient)"/>
    </clipPath>
  </defs>
  <g id="Mask_Group_1" data-name="Mask Group 1" transform="translate(-587 -156)" clip-path="url(#clip-path)">
    <path id="Path_309" data-name="Path 309" d="M1536.82,130.37v10.46l6.446-5.23Z" transform="translate(-59.629 104.981)" fill="#371465" opacity="0.25"/>
    <path id="Path_310" data-name="Path 310" d="M1538.13,130.37v10.46l6.446-5.23Z" transform="translate(-60.468 104.981)" fill="#fff"/>
    <path id="Path_2" data-name="Path 2" d="M786.764,1069.915c-.076-5.446-3.676-10.108-5.4-15.108a6.189,6.189,0,0,0-.719-3.6c-8.507-15.205-18.025-29.831-35.252-41.007-11.536-7.489-23.281-14.446-39.928-12.59a39.518,39.518,0,0,1-18.345-2.158,81.323,81.323,0,0,0-12.95-3.957c-14.748-2.759-23.09-11.115-26.619-20.863-5.572-15.468-19.306-28.079-24.46-43.525a9.591,9.591,0,0,0-3.957-2.158c-9.55-1.3-10.475-3.014-5.036-8.993a12.175,12.175,0,0,0,3.237-5.036c.155-.558.525-1.227.719-1.8,2.518-3.856.191-7.795,1.079-11.87,2.68-12.374,5.554-24.82,6.115-37.41-.291-3.6-3.835-5.64-6.475-8.273-5.755-5.7-3.9-12.338,4.317-15.827,2.489-1.043,5.568-1.565,7.554-3.237,3.842-4.5,7.216-9.216,16.547-7.554a6.836,6.836,0,0,0,7.554-4.317c1.888-4.532,5.831-7.55,10.072-10.791a35.622,35.622,0,0,0,11.151-14.029c2.856-6.446,2.68-13.486,2.518-20.144-.094-4.475,1.475-8.022,5.755-11.511,6.888-5.6,6.568-25.9,0-32.014-.331-.313-.719-.435-1.079-.719-5.978-4.759-7.414-10.072-4.676-16.187,1.079-2.4,2.317-4.9,1.439-7.554.464-.4.946-.676,1.439-1.079,5.205-2.712,5.313-6.428,2.518-10.072a30.442,30.442,0,0,0-7.554-6.835c-8.486-5.428-11.917-12.428-14.388-20.144-.964-3.047-2.522-6.295-3.237-9.353-2.489-10.662-11.921-17.511-23.022-23.381-7.676-4.076-14.173-8.687-18.705-14.748a67.186,67.186,0,0,0-16.187-15.827c-6.27-4.216-10.475-9.41-12.23-15.468-2.7-9.389-10.061-16.68-18.705-23.381-9.914-7.658-16.885-16.532-20.144-26.978a40.831,40.831,0,0,0-14.748-20.5c-9.327-7.025-16.906-14.532-21.223-24.1-2.317-5.144-5.5-10.446-13.309-12.59-2.065-1.529-4.05-3.147-6.115-4.676-.482-2.629-2.554-4.417-4.676-6.475-5.227-5.115-12.478-6.68-20.5-7.194-6.076-.284-12.126.917-16.187,4.317-6.809,5.687-13.741,9.691-25.18,7.194-3.723-.813-5.5-1.428-7.194-3.957-3.82-5.658-5.342-12.137-8.273-17.986-4.029-8.061-10.209-10.083-21.223-7.554-6.058,1.4-11.763,3.248-17.626,5.036-2.219.669-4.59,1.932-6.835.36-3.781-2.658-8.252-4.748-10.432-8.633a22.853,22.853,0,0,0-10.072-8.993c-8.158-4.018-15.522-8.371-21.942-14.029-7.892-6.96-20.752-5.662-27.7,1.8-1.658,1.77-3.281,3.665-5.036,5.4-4.05,4.032-8.324,5.349-14.748,2.518a19.041,19.041,0,0,0-17.266.719c-3.993,2.158-8.457,1.493-12.95,1.079-16.32-1.471-28.82,3.964-38.849,12.95-2.777,2.489-4.029,5.309-2.158,8.633-.518.813-1.277,1.691-1.8,2.518.058,4.317.317,8.41,4.676,11.87,1.022.813,2.043,2.007,1.079,3.237-4.957,6.3-1.73,10.255,5.755,14.029,4.6,2.295,6.475,5.806,0,8.993-5.288,2.615-9.723,15.374-7.194,19.784,2.392,4.187,3.165,8.5,3.957,12.95.827,4.572.446,9.446,3.957,13.669,1.8,2.158,3.432,4.651,1.079,7.194-2.414,2.6-5.777,2.658-9.712,2.158-4.514-.586-9.086-.964-11.151,3.237-1.234.719-3.335.352-4.317,1.439a4.275,4.275,0,0,0-.719,1.8c-.058,1.558.32,2.637,2.518,3.237,2.158.327,4.392-1.87,6.475.36,2.025,1.669.745,4.014,2.518,5.755,2.432,1.586,3.856.791,4.317-1.079a7.126,7.126,0,0,0,.36-1.439c-.094-.96.036-1.9,0-2.878a28.223,28.223,0,0,1,0,2.878,7.433,7.433,0,0,0,0,1.079,3.658,3.658,0,0,0,2.878,2.158c1.658.158,3.46-.022,4.676,1.079,3.065,5.831,9.511,8.489,18.345,6.475,6.96-1.586,13.763-3.871,19.065-7.914,0,0,6.514-3.234,12.59-.36a6.475,6.475,0,0,0-1.439,3.957c4.727,5.73,12.669,9.586,15.827,16.187a25.143,25.143,0,0,0,2.518,2.878,5.356,5.356,0,0,0,3.6,1.439c2.255-.058,2.64-1.514,4.317-2.158,1.486.216,3.209-.54,4.676.36-2.835-.673-4.187.36-5.036,2.158-.464,2.716-.784,5.327.719,7.914.676,2.7,2.989,5.05,4.317,7.554,11.806,8.129,14.356,17.18,5.755,27.7-.252.317.022.694,0,1.079-1.561,9.317-.306,18.734-2.158,28.058-.964,4.8-.651,9.845,2.878,14.388,2.45,3.173,2.061,6.77,0,10.072-7.079,11.374-13.608,23.165-33.453,25.18a18.728,18.728,0,0,0-3.957,1.079c-6.655,2.284-8.486,4.727-7.194,10.072,1.8,7.432,1.543,8.032-8.273,10.791a48.345,48.345,0,0,0-8.633,2.878c-4.4,2.187-7.475,4.932-7.554,8.993a7.5,7.5,0,0,0,5.036,7.554c3.705,1.572,7.23.486,10.432-1.079,3.1-1.514,5.5-3.6,8.273-5.4,8.219-5.4,12.1-5.209,18.705,1.439,1.388.971,2.18,2.439,3.237,3.6,1.176,1.23,3.421,1.435,4.317,2.878.5,1.615.5,3.061,1.079,4.676a5.553,5.553,0,0,0,.719,1.439c1.194,1.673.824,3.637.36,5.4C280.357,774.782,281.555,778,290,782.5a8.634,8.634,0,0,1,5.036,6.835c.831,5.144,4.939,8.291,11.871,8.993,3.144.313,6.173.878,9.353,1.079,5.594.36,9.543,2.8,11.511,6.475a48.235,48.235,0,0,1,5.036,14.748,96.625,96.625,0,0,1-.36,32.734c-2.313,13.576-3.565,27.1-8.993,40.288-4.881,11.87-13.921,20.655-32.014,21.942-3.435.259-7.014.205-10.432.36-5.014.23-9.266,1.205-11.871,4.676-5.572,2.831-12.147,5.108-12.59,11.151-.464,6.23-1.32,12.489-1.439,18.705-.212,13.478-5.227,17.3-23.741,17.266a71.053,71.053,0,0,0-14.029,1.079c-8.662,1.759-11.022,7-4.676,11.511a21.449,21.449,0,0,1,8.633,12.23c3.335,12.273,12.845,19.921,28.777,23.741,8.777,5.86,20.342,8.176,30.216,12.59,10.072,4.5,20.791,7.827,32.734,8.273,19.151.719,27.115,11.6,37.05,21.223,5.266,5.115,1.579,9.557.719,14.388-.309,1.77-.7,3.766.36,5.4,1.291,2.015,3.129,3.687,6.835,2.158.385-.4.694-.694,1.079-1.079a13.547,13.547,0,0,0,6.835-4.676c4.957-6,12.478-8.838,21.583-9.353a178.79,178.79,0,0,1,22.3,0c10.205.719,20.108,2.529,25.18,10.432,1.853,2.878,5.133,5.043,9.353,6.115a8.412,8.412,0,0,1,4.676,2.878c5,5.985,12.813,8.683,21.583,9.712,18.633,2.216,29.853,11.619,40.288,21.942,1.928,1.914,3.306,3.8,3.6,6.115,1.291,10,5.878,20.014.36,30.216-2.737,5.072-1.561,10.687,3.957,14.748,5.824,4.273,13.032,8.194,20.863,9.353,10.126,1.486,17.586,6.025,25.9,9.712,4.727,2.086,8.094,4.6,8.633,8.993.327,2.8,2.5,5.367,5.4,7.194,4.108,2.615,5.978,5.676,5.755,9.712-.173,3.284,1.04,6.708,6.115,7.554,6.421,1.043,12.37,2.388,19.065,2.518,15.759.288,31.23,1.572,41.007,12.59a9.621,9.621,0,0,0,2.518,1.439c7.349,4.018,11,3.576,17.266-1.439,6.367-5.09,9.842-11.964,16.187-16.906,4.054-3.173,6.406-6.115,7.194-10.432,1.158-6.374-.112-13.712,8.993-17.986,1.14-.529.906-1.849,1.439-2.878.04-.12.283-.26.36-.36a3.482,3.482,0,0,0,1.079-2.518,3.885,3.885,0,0,1-1.439,2.878c5.439,2.629,8.209,2.04,8.633-2.518.424-4.5,3.939-7.14,7.914-9.712,3.374-2.158,7.281-3.694,10.791-5.755,7.389.057,15.9.471,18.345-6.475,7.1-20.144,20.252-38.338,28.058-58.273,1.755-4.644-.946-9.759,1.079-14.388-.424-2.6.752-4.964,2.158-7.194C784.627,1078.455,786.821,1074.6,786.764,1069.915Zm-80.576,111.87a5.093,5.093,0,0,1,0-2.518,5.56,5.56,0,0,0,0,2.518Z" transform="translate(464.625 -110.319)" fill="#85c628"/>
    <path id="Path_6" data-name="Path 6" d="M572.082,81.774c.993-4.255,7.266-10.219,1.079-13.669-.543-.651-.942-1.493-1.439-2.158a4.335,4.335,0,0,1-1.079-2.518,7,7,0,0,0,.719-2.518,9.068,9.068,0,0,0,0-2.518c-.068-3.237-2.518-6.781-2.518-10.072l.36.36c0-1.079.6-2.518-1.439-2.518,4.083-6.216-2.888-12.5-7.194-16.547a12.071,12.071,0,0,1-1.8-2.518c-1.223-2.439-1.072-4.388,0-6.115a11.882,11.882,0,0,1,2.158-2.158c6.73-4.935,8.133-15.371,3.237-21.223-1.223-1.46-4.669-.04-7.554,0H468.125c-1.647-.04-3.406,0-5.036,0,2.04,4.025,3.029,9.277,7.914,11.511a22.559,22.559,0,0,0,2.158,1.439c4.572,2.518,10.691,3.881,11.511,8.633a51.945,51.945,0,0,1-1.079,15.827c-1.227,4.022-5.665,6.946-8.993,10.791a19.989,19.989,0,0,0-1.439,1.8,16.009,16.009,0,0,0-1.8,4.676,33.333,33.333,0,0,0-.719,6.475c0,1.953-.478,4.04.719,5.755a23.17,23.17,0,0,0,5.036,5.036,8.654,8.654,0,0,1,3.6,6.835c.216,2.719.651,5.572,1.079,8.273a28.991,28.991,0,0,0,3.237,8.993c.36.719.7,1.09,1.079,1.8a10.9,10.9,0,0,0,2.518,3.957c1.385,1.586,3.043,2.5,4.676,3.957a7.334,7.334,0,0,1,1.439,2.518,14.151,14.151,0,0,0,.719,2.158,13.671,13.671,0,0,0,1.439,2.158c.932,1.335,8.514,1.5,12.95,3.237,1.1.434,2.46.763,3.6,1.079a15.415,15.415,0,0,0,10.072,0c-.406-.719-1.849-1.047-1.439-2.158a2.394,2.394,0,0,0,2.878,0c.777-.547,1.446-1.432,2.518-1.439a37.129,37.129,0,0,1,5.036-.719c9.374-1.079,19.576-.14,28.058-5.036a12.556,12.556,0,0,0,2.158-2.518c1.219-1.917,2.119-4.115,3.957-5.4,3.263-2.558,5.389-6.37,5.036-10.072a8.569,8.569,0,0,1,.36-2.158C571.56,84.113,571.8,82.8,572.082,81.774Zm-9.353-71.223c-.719,2.047-.421-.137-.36,0a2.331,2.331,0,0,1,.36,0ZM561.29,8.033c.119-.09.3.043.36,0-.156.033-.215-.067-.36,0Zm2.518,56.835a6.838,6.838,0,0,0-.719,0,1.481,1.481,0,0,1,.36-.36,3.153,3.153,0,0,1,.36.36ZM571,39.688l-2.518-29.5m-44.6-5.036h0c.06.007-.06.007,0,0-.014.061.032-.054,0,0ZM507.334,24.221h0c0-.013,0,.013,0,0Zm63.309-1.079" transform="translate(290.458 158.038)" fill="#85c628"/>
    <path id="Path_164" data-name="Path 164" d="M585.69,1203.457l-15.468,57.914s36.691,45.5,21.943,61.151-21.227,10.057-21.223,30.935-74.82-7.554-74.82-7.554c8.421-1.914,30.446-84.194-13.669-95.324-30.2-7.615-20.489-23.773-20.144-28.777,0,0,5.723-15.439-12.95-18.705s33.094-65.827,33.094-65.827" transform="translate(301.85 -572.098)" fill="none" stroke="#f4d74d" stroke-linecap="round" stroke-miterlimit="10" stroke-width="3"/>
    <path id="Path_233" data-name="Path 233" d="M752.913,1193.694c3.8,7.8,55.169,34.63,77.338,31.295s35.838-21.96,63.309-19.784,22.788-46.291,32.734-50.719c17.842-7.943,11.7-26.6,16.187-35.611,28.777-57.8-13.065-49.817-33.453-54.676-8.719-2.076-104.763,10.73-140.647,6.475s-35.971-34.173-35.971-34.173c-.043-.09-24.871-112.457-24.82-112.23" transform="translate(133.908 -435.716)" fill="none" stroke="#f4d74d" stroke-linecap="round" stroke-miterlimit="10" stroke-width="3"/>
    <path id="Path_234" data-name="Path 234" d="M637.178,800.434s-15.673-60.288-53.6-67.266c-36.5-6.745-138.237-73.831-147.482-73.022-.263-3.108-13.8-6.288-16.906,2.878-3.824,11.288-37.349,92.6-44.6,70.144-7.342-22.727-.87-57.755-5.036-57.554-2.284.108-3.788-74.291-31.655-62.23-41.478,17.986-73.151-56.086-41.367-82.734,24.46-20.5,32.734-17.626,32.734-17.626" transform="translate(405.398 -172.313)" fill="none" stroke="#f4d74d" stroke-linecap="round" stroke-miterlimit="10" stroke-width="3"/>
    <line id="Line_1" data-name="Line 1" x2="203.597" y2="346.043" transform="translate(792.935 236.755)" fill="none" stroke="#fff" stroke-miterlimit="10" stroke-width="1.5"/>
  </g>
</svg>
