<?xml version="1.0" encoding="UTF-8"?><svg id="Layer_2" xmlns="http://www.w3.org/2000/svg" xmlns:xlink="http://www.w3.org/1999/xlink" viewBox="0 0 1100.84 1674.83"><defs><style>.cls-1{clip-path:url(#clippath);}.cls-2{fill:none;}.cls-3{fill:#ffcc4d;}</style><clipPath id="clippath"><rect class="cls-2" y="6.36" width="1100.84" height="1668.47"/></clipPath></defs><g id="Layer_1-2"><g class="cls-1"><path class="cls-3" d="M1303.55,1715.4c-.16-11.82-7.56-21.78-11.29-32.63,.28-2.61-.28-5.24-1.59-7.51-18.44-33-38.8-65.06-76.14-89.31-25-16.26-50.48-31.55-86.61-27.52-13.46,1.59-27.1-.04-39.81-4.75-9.24-3.35-18.61-6.73-28.56-8.62-32-6-50.27-23.58-57.92-44.74-12.08-33.56-41.86-61.2-53-94.74-2.34-2.15-5.17-3.69-8.24-4.5-20.7-2.82-22.83-6.54-11-19.51,3.18-3.47,6.19-7,7.28-11.17,.33-1.21,.71-2.45,1.12-3.69,5.44-8.38,.51-17.25,2.43-26.09,5.81-26.87,12.42-53.73,13.63-81.06-.62-7.85-8.36-12.53-14.09-18.21-12.5-12.38-8.32-26.56,9.49-34.13,5.4-2.26,11.8-3.25,16.1-6.88,8.32-9.78,15.64-20,35.84-16.41,8.2,1.45,14.13-3.76,16.39-9.28,4.1-9.83,13.13-16.72,22.33-23.76,10.45-8.02,18.67-18.58,23.88-30.68,6.19-14,5.81-28.54,5.48-43-.21-9.71,3.05-18,12.34-25.53,14.92-12.16,14-55.72-.21-69-.75-.66-1.54-1.28-2.35-1.86-13-10.33-15.89-22.18-9.95-35.46,2.34-5.21,5.48-10.33,3.56-16.1,1-.87,2-1.73,3.09-2.6,11.29-5.9,10.79-13.34,4.73-21.25-4.36-5.87-9.69-10.94-15.77-15-18.4-11.79-26-27.48-31.36-44.24-2.09-6.6-5.52-13-7.07-19.66-5.39-23.15-25.76-38.1-49.8-50.85-16.65-8.84-30.57-19.33-40.4-32.48-9.89-13.26-21.95-24.76-35.67-34-13.59-9.15-22.79-20.38-26.6-33.54-5.85-20.38-21.11-36.6-39.85-51.15-21.49-16.63-36.84-35.34-43.91-58-5.27-16.69-15.22-31.92-31.78-44.48-20.15-15.3-37-32.14-46.29-52.93-5-11.16-11.92-22.33-28.9-27-4.47-3.31-8.95-6.6-13.42-9.92-1.05-5.71-5.6-9.87-10.2-14.34-11.34-11.1-27.06-14.33-44.46-15.44-13.17-.62-25.76,1.49-34.54,8.87-14.76,12.35-29.69,21-54.49,15.6-8.07-1.77-12.46-3-16.14-8.5-8.28-12.28-11.5-25.75-17.85-38.47-8.74-17.49-22-22-45.88-16.53-13.13,3-25.8,7.1-38.51,11-4.81,1.46-9.33,3.79-14.22,.37-8.2-5.77-18.57-9.86-23.29-18.3-4.48-8-11.79-14.74-21.54-19.54-17.69-8.72-33.7-18.34-47.63-30.62-17.1-15.11-45.12-12.54-60.17,3.66-3.6,3.84-6.82,7.82-10.62,11.57-8.79,8.75-18.4,11.91-32.33,5.77-12.35-5.54-25.16-5.26-37.16,1.32-8.66,4.71-18.45,3.47-28.19,2.57-35.41-3.15-62.21,8.13-83.96,27.64-6,5.4-9.28,11.73-5.22,18.93-1.13,1.76-2.3,3.53-3.43,5.33,.12,9.37,.5,18.65,9.95,26.15,2.22,1.77,4.52,4.22,2.43,6.89-10.75,13.68-3.68,22.55,12.54,30.74,10,5,13.93,12.16-.13,19.08-11.45,5.68-20.69,33.6-15.22,43.16,5.19,9.08,6.69,18.67,8.41,28.32,1.8,9.93,.67,20.32,8.28,29.47,3.89,4.68,7.57,9.93,2.47,15.45s-12.76,6.14-21.29,5.06c-9.78-1.28-19.82-2-24.3,7.16-2.67,1.52-6.77,.68-8.9,3-.89,1.01-1.52,2.23-1.84,3.54-.13,3.38,1,6.17,5.81,7.47,4.68,.72,9.66-4.46,14.18,.38,4.39,3.63,1.71,9,5.56,12.75,5.27,3.44,8.15,1.46,9.16-2.61,.26-1.07,.41-2.16,.46-3.26-.21-2.07-.13-4.12-.21-6.2,.12,2.08,.29,4.16,.21,6.2,.05,.76,.16,1.52,.33,2.27,1,2.45,3,4.19,6.4,5,3.6,.34,7.4,.16,10,2.55,6.65,12.65,20.58,18.24,39.73,13.86,15.1-3.44,29.9-8.28,41.4-17.06,0,0,14-7.23,27.14-1-2.07,2.44-3.29,5.49-3.47,8.69,10.25,12.44,28.1,20.66,34.92,35,1.41,2.22,3.01,4.31,4.76,6.27,2.1,2.13,4.89,3.43,7.87,3.66,4.89-.13,6.06-4,9.7-5.4,3.22,.46,7-.75,10.2,1.21-6.15-1.46-9.41,.46-11.25,4.37-1,5.9-1.25,11.76,2,17.37,1.46,5.87,6.23,10.74,9.12,16.17,25.59,17.65,31.48,37.57,12.83,60.4-.42,.76-.59,1.62-.5,2.48-3.38,20.23-.71,40.67-4.72,60.9-2.09,10.42-.88,21,6.77,30.86,5.31,6.89,4.43,15,0,22.18-15.35,24.7-30.15,50-73.18,54.42-2.74,.42-5.43,1.16-8,2.2-14.43,5-18.53,10.8-15.72,22.4,3.93,16.13,3.26,17-18,23-6.44,1.8-13,3.25-18.81,6.14-9.54,4.75-15.85,11.11-16,19.92-.13,6.63,2.51,12.78,10.87,16.28,8,3.42,15.52,1.06,22.46-2.35,6.73-3.29,12-7.79,18.06-11.73,17.82-11.7,25.72-11,40.06,3.44,3,2.11,4.73,4.87,7,7.39,2.55,2.66,7.78,3,9.74,6.11,1.09,3.5,.67,7.19,1.92,10.7,.39,1.08,.94,2.09,1.64,3,2.59,3.63,2,7.44,1,11.26-7.65,16.81-5.23,24.47,13.09,34.25,7.36,3.94,10.16,8.56,11.21,14.76,1.8,11.17,10.7,17.5,25.71,19,6.82,.68,13.43,2.2,20.33,2.64,12.13,.74,20.36,5.86,24.63,13.83,5.37,9.98,9.09,20.76,11,31.93,4,23.85,3.34,47.49-.72,71.16-5,29.47-7.77,59.25-19.57,87.89-10.58,25.78-30.27,44.48-69.5,47.31-7.44,.55-14.93,.37-22.33,.71-10.87,.5-20.24,3-25.88,10.49-12.09,6.14-26.47,10.82-27.44,23.94-1,13.53-2.55,27-2.8,40.52-.46,29.25-11.2,37.47-51.35,37.41-10.21-.09-20.41,.84-30.44,2.76-18.78,3.82-23.71,14.62-10,24.42,10.66,7.63,15.43,16.84,18.1,26.65,7.24,26.64,28,43.74,62.56,52,19,12.72,44.16,17.31,65.57,26.9,21.83,9.77,44.91,16.87,70.8,17.84,41.52,1.55,58.88,25.62,80.41,46.5,11.42,11.1,3.1,21,1.26,31.45-.67,3.85-.88,7.76,1.42,11.3,2.8,4.37,6.36,8.43,14.38,5.12,.84-.87,1.72-1.74,2.56-2.58,6.69-2,10.83-5.86,14.51-10.39,10.74-13,27.6-19,47.33-20.07,16.03-1.01,32.11-1.01,48.14,0,22.12,1.55,43.15,5.21,54.15,22.36,4,6.27,11.12,10.8,20.24,13.13,4.07,.91,7.74,3.11,10.45,6.29,10.83,13,28.11,19,47.09,21.22,40.4,4.81,64.82,25,87.44,47.41,4.18,4.15,7.24,9,7.86,14,2.8,21.71,12.3,43.15,.34,65.3-5.94,11-3.26,23.39,8.7,32.2,12.62,9.28,27.85,17.87,44.82,20.38,22,3.23,38.56,12.44,56.58,20.45,10.25,4.53,17.61,10.54,18.78,20.07,.71,6.08,5,11.41,11.25,15.38,8.91,5.68,13,12.48,12.5,21.26-.37,7.13,2.18,14.11,13.17,15.94,13.93,2.27,27.56,5.83,42.07,6.11,34.17,.62,67.29,3.23,88.49,27.15,1.21,1.39,3.34,2.29,5.18,3.32,15.94,8.71,24.3,7.16,37.89-3.73,13.8-11,21.12-25.4,34.88-36.14,8.78-6.88,13.75-13.93,15.47-23.3,2.51-13.83,.08-29.37,19.82-38.65,2.47-1.15,2-4.09,3.14-6.33,.09-.25,.21-.49,.37-.71,1.58-1.26,2.55-3.13,2.68-5.15-.05,2.31-1.16,4.47-3,5.86,11.79,5.71,18,4.5,18.94-5.4s8.49-15.32,17.1-20.91c7.32-4.71,15.56-8.59,23.17-13.06,16,.13,34.17,1.68,39.48-13.4,15.39-43.71,43.91-83.88,60.8-127.16,3.8-10.08-1.51-20.66,2.88-30.71-.92-5.65,1.38-11,4.44-15.82,5.47-8.75,9.86-17.28,9.73-27.46Zm-174.08,242.94c-.43-1.74-.41-3.56,.08-5.28-.44,1.73-.47,3.54-.08,5.28h0Z"/></g><path class="cls-3" d="M460.91,182.56c2.15-9.13,16.3-22.49,2.89-29.9-1.17-1.4-2.34-2.81-3.41-4.24-1.4-1.71-2.26-3.8-2.46-6,.94-1.65,1.56-3.47,1.82-5.35,.23-1.79,.2-3.61-.08-5.4-.15-7-5.45-14-5.45-21.1l.88,.79c0-2.36,.89-5.5-3.54-5.5,8.85-13.35-6.19-26.71-15.53-35.41-1.54-1.64-2.86-3.47-3.93-5.45-2.65-5.24-2-9.42,.36-13.15,1.28-1.95,2.8-3.73,4.51-5.31,14.59-10.54,18.13-32.54,7.52-45.15-2.66-3.14-10.62,0-16.87,.08H235.77c-3.57-.09-7.11-.09-10.64-.09,4.42,8.62,6.19,19.62,16.78,24.46,1.66,1.14,3.38,2.2,5.15,3.16,9.91,5.43,23.18,8.57,24.95,18.78,.88,11.33-.02,22.73-2.66,33.78-2.65,8.64-12.38,14.92-19.59,23.16-1.02,1.38-1.96,2.82-2.83,4.3-1.75,2.95-3,6.17-3.7,9.53-.9,4.62-2,9.3-2,13.94,0,4.2-.63,8.88,2,12.57,2.82,4.09,6.27,7.71,10.23,10.72,4.87,3.49,7.87,9.02,8.13,15,.47,5.84,1.23,11.68,2.15,17.48,1.08,6.84,4,13.06,7.31,19.17,.82,1.53,1.65,3.06,2.48,4.58,1.09,3.13,2.88,5.98,5.22,8.33,3,3.4,6.53,5,10.07,8.11,1.45,1.53,2.58,3.33,3.32,5.31,.48,1.78,1.09,3.53,1.81,5.23,.7,1.64,1.56,3.2,2.58,4.66,2,2.87,18.83,2.87,28.45,6.6,2.38,.93,4.8,1.74,7.26,2.42,7.12,2.46,14.85,2.5,22,.13-.89-1.57-3.54-2.35-2.66-4.71,2.66,1.57,4.42,.79,6.11-.4s3.29-2.76,5.6-2.78c3.44-.75,6.92-1.27,10.43-1.53,20.32-2.36,42.43,0,60.81-10.52,1.79-1.72,3.35-3.67,4.63-5.79,2.64-4.12,4.85-8.44,8.83-11.19,7.08-5.49,11.5-14.14,10.74-22.09,0-1.66,.2-3.32,.6-4.94,.48-2.01,.98-4.07,1.58-6.29Zm-20-153.18c-1.54,4.4-.72-.29-.58,0,.2-.02,.41-.02,.61,0h-.03Zm-3.09-5.46c.26-.18,.86-.23,1-.32-.33,.08-.66,.18-.97,.32h-.03Zm5.37,121.89c-.37,0-.73,.02-1.1,.06,.23-.25,.5-.45,.81-.59,.13,.16,.24,.34,.32,.53h-.03ZM356.75,17.77l-.23-.36c.13,.02,.25,.02,.38,0-.04,.11-.1,.23-.15,.36Zm-36,40.9l.1,.09h-.12s0-.06-.01-.09h.03Z"/></g></svg>