<?xml version="1.0" encoding="UTF-8"?><svg id="Layer_2" xmlns="http://www.w3.org/2000/svg" viewBox="0 0 71.71 72.52"><defs><style>.cls-1{fill:#fcd97e;}.cls-2{fill:#390b11;}.cls-3{fill:#ee9e7a;}.cls-4{fill:#d04e68;}.cls-5{fill:#fbe7a7;}.cls-6{fill:#ea5f7f;}.cls-7{fill:#1c0304;}.cls-8{fill:#450915;}.cls-9{fill:#580002;}.cls-10{fill:#3e151a;}.cls-11{fill:#3d0913;}.cls-12{fill:#1d0404;}.cls-13{fill:#481820;}.cls-14{fill:#f9eda0;}.cls-15{fill:#500d22;}.cls-16{fill:#260105;}.cls-17{fill:#f1635e;}.cls-18{fill:#4a1c26;}.cls-19{fill:#fbd97e;}.cls-20{fill:#9c7d3d;}.cls-21{fill:#fef0af;}.cls-22{fill:#e77174;}.cls-23{fill:#fb9065;}.cls-24{fill:#e6625d;}.cls-25{fill:#d95753;}.cls-26{fill:#993544;}.cls-27{fill:#390001;}.cls-28{fill:#440814;}.cls-29{fill:#a75562;}.cls-30{fill:#de6f73;}.cls-31{fill:#fefefe;}.cls-32{fill:#dd6566;}</style></defs><g id="Layer_1-2"><g><path class="cls-28" d="M0,36.29C.02,16.06,15.91-.08,35.98,0c20.49,.08,35.8,17.21,35.73,36.41-.08,19.71-16.29,36.59-36.78,36.1C15.99,72.05-.27,56.27,0,36.29Z"/><path class="cls-4" d="M39.41,1.71c6.9,.46,12.91,3.13,18.15,7.51,16.77,14.01,17.08,39.03,.72,53.53-13.26,11.75-34.33,10.82-46.81-1.72C-1.53,47.98-2.24,25.78,10.88,12.14,16.6,6.19,23.54,2.51,31.88,1.74c2.51,.08,5.02,.13,7.53-.02Z"/><path class="cls-6" d="M39.41,1.71c-2.51,.56-5.02,.5-7.53,.02,2.51-.33,5.02-.37,7.53-.02Z"/><path class="cls-8" d="M63.23,38.09c-.53,3.63-1.24,7.19-2.95,10.5-3.86,7.48-9.83,12.37-17.97,14.41-15.84,3.98-30.12-6.77-33.18-21.1C5.55,25.06,18.45,8.91,35.64,8.83c12.82-.06,23.69,8.47,26.76,21,.13,.52,.31,1.02,.47,1.53,.7,2.21,.78,4.46,.36,6.73Z"/><path class="cls-31" d="M20.63,56.92c-1.76-.4-2.74-1.83-3.84-3.03C3.54,39.36,10.5,15.96,29.53,10.97c14.83-3.89,30.02,6.44,31.97,21.73,.04,.28,.19,.55,.29,.82,.3,1.9,.4,3.8-.04,5.69-.79,4.11-1.94,8.09-4.35,11.59-1.01,1.47-2.02,2.95-3.53,3.98-.49,.07-.46-.29-.49-.6-.14-3.05,.26-6.11-.24-9.15-.29-6.3-.06-12.61-.13-18.91-.01-1.2-.02-2.4-.06-3.6-.01-.41,.01-.92-.44-1.1-.42-.16-.81,.13-1.13,.41-1.18,1.03-1.77,2.42-2.23,3.85-1.36,4.2-1.79,8.57-2.34,12.92-.4,3.16-.16,6.37-.72,9.51-.12,.68,.11,1.16,.47,1.65,.51,.35,1.01,.7,1.52,1.05,.28,2.88,.35,5.76-.05,8.63-1.79,.68-3.59,1.34-5.37,2.04-1,.39-1.25,.03-1.23-.95,.05-2.52-.07-5.06,.05-7.58,.12-2.67-.37-5.26-.68-7.88-.23-1.89-.12-3.88,1.26-5.27,2.95-2.97,2.96-6.49,2.38-10.21-.33-2.13-.81-4.26-.91-6.4-.09-1.79-.91-1.96-2.3-1.61-1.09,.7-2.17,.7-3.26,0-4.04-.35-4.1-.36-4.61,3.27-.41,2.9-.89,5.8-.92,8.74-.02,1.44-.09,2.99,1.02,4.06,3.26,3.16,3.77,6.85,2.41,10.99,.13,4.56,.34,9.13-.11,13.69-3.23,.06-6.36-.4-9.31-1.79-.5-.6-.51-1.32-.51-2.05,0-1.8-.02-3.61,0-5.41,.04-2.41,.03-4.8-.73-7.13-.35-1.09-.39-2.24-.37-3.39,.03-1.36,.48-2.45,1.68-3.18,4.62-2.81,5.93-10.47,2.57-15.49-2.84-4.24-8.96-3.87-11.72,.67-2.64,4.33-1.61,11.19,2.45,14.24,2.33,1.75,2.68,3.8,2.18,6.32-.28,1.41-.76,2.79-.85,4.24-.03,1.85,0,3.7-.02,5.55,0,.71,.04,1.45-.52,2.02Z"/><path class="cls-2" d="M20.65,48.99c.27-2.06,1.11-4.02,1.08-6.15-.02-1.4-.39-2.39-1.73-3.23-5.43-3.4-6.21-12.91-1.52-17.28,3.95-3.68,9.95-2.16,12.08,3.05,2.18,5.34,.4,12.53-4.29,14.75-.75,.35-.91,1.09-.91,1.82,0,1.19-.09,2.39,.28,3.57,1.51,4.93,.73,10,.82,15.02-.33-.3-.9,.04-1.16-.44-.83-.46-.8-1.27-.8-2.05-.02-1.92,0-3.83,0-5.75,0-1.97,.04-3.92-.61-5.85-.62-1.83-.46-3.78-.18-5.67,.12-.78,.48-1.48,1.11-2,5.08-2.97,6.55-10.46,2.84-14.45-2.74-2.95-6.25-2.78-8.75,.42-1.43,2.41-1.91,4.99-1.36,7.75,.36,2.23,1.41,4.05,3.18,5.46,2.43,.91,2.97,2.87,2.82,5.17-.1,1.47-.23,2.95-.65,4.38-.09,.33-.22,.65-.33,.97-.05,.15-.11,.3-.17,.44-.13,.28-.28,.54-.47,.78-.11,.1-.25,.15-.4,.16-.22-.04-.39-.16-.53-.33-.11-.17-.17-.38-.32-.53Z"/><path class="cls-15" d="M37.98,21.57c1.09-.11,2.17-.19,3.26,0q2.01,.85,1.4,4.36c.18-.16-.25,.21-.19-.01,.03-.13-.22-.15-.21-.08,.17,1,.02,2.01,.14,3.02,.22,1.85,.14,3.71,.05,5.56-.04,.93-.09,2-1.43,2.11-1.1-.47-.87-1.58-1.16-2.43-.07-1.14-.02-2.28-.04-3.42,0-1.28,.07-2.56-.24-3.82-.06-.23-.4,.06-.18-.03,.06-.03,.1,0,.12,.07,.27,.78,.31,1.59,.3,2.4,0,1.84,0,3.67,0,5.51-.26,.69-.22,1.62-1.2,1.75-.7,.1-1.03-.44-1.28-1-.14-2.47,.02-4.94-.04-7.41,0-.63,0-1.26,0-1.9,0,.59,0,1.18,0,1.77-.03,1.75,.07,3.5-.06,5.25-.05,.21-.13,.4-.24,.58-.49,.58-.1,2.03-1.27,1.82-1-.18-.73-1.37-.72-2.17,0-2.51-.14-5.02,.12-7.49-.17,.32-.23,.71-.69,.65-.06-.47-.08-.95-.18-1.41-.53-2.48,.04-3.26,2.44-3.33,.47-.01,.97,.1,1.33-.34Z"/><path class="cls-25" d="M40.19,34.09c.44,.67,0,1.62,.7,2.21,1.33,.38,.46,1.22,.4,1.89-1.98,2.78-2.21,5.81-1.6,9.09,.86,4.7,.36,9.47,.34,14.2,0,1.63-1.56,.64-2.41,.83-.37-3.17-.07-6.35-.17-9.52-.05-1.38,.14-2.76-.12-4.13,1.19-3.93,.99-7.63-1.84-10.88-.09-.73,.69-1.17,.64-1.89,.56-.73-.04-1.66,.43-2.4,.09-.04,.18-.09,.28-.12,.96,.48-.13,1.73,.84,2.2,1.6,2.09,1.27-.22,1.73-.75,.38,.36,.39,.73,.02,1.15,.65-.5,.09-1.44,.78-1.87Z"/><path class="cls-11" d="M46.57,49.76c-.93,.07-.93-.59-.9-1.2,.4-7.68,.68-15.37,2.92-22.8,.59-1.94,1.26-3.93,3.27-4.97,.88-.46,1.68-.59,1.68,.8,0,7.76,.01,15.52,.02,23.28,.23,3.22,.21,6.45,0,9.67,.1,.08,.21,.16,.31,.25-.6,.53-.65,.05-.73-.39-.5-.53-.49-1.2-.49-1.87-.03-8.53-.02-17.06,.19-25.56-.3,2.29,.36,4.61-.37,6.86-1.17-.17-.86-1.12-.88-1.81-.07-2.64,.01-5.28-.06-8.26-1.72,2.95-1.99,5.99-2.57,8.93-.9,4.53-.88,9.17-1.45,13.74-.08,.64,.06,1.34-.53,1.83-1.11,.23,.17,1.12-.42,1.49Z"/><path class="cls-3" d="M46.99,48.27c.41-5.25,.57-10.53,1.48-15.73,.61-3.5,1.05-7.08,3.58-10.51,.12,4.27,.22,8.09,.33,11.91,.49,.4,.41,.97,.41,1.5,.01,5.81,0,11.62,0,17.43,0,.54,.03,1.09-.34,1.54,.32,2.22-.98,3.23-2.98,3.95,0-1.73-.13-3.34,.03-4.93,.23-2.3-.28-4.12-2.52-5.16Z"/><path class="cls-19" d="M22.16,48.64c-.05-.31-.05-.59,.28-.76,.57-.61,.2-2.11,.96-2.05,1.08,.08,.98,1.52,1.12,2.37,.59,3.61,.2,7.25,.26,10.89,0,.33-.21,.54-.51,.65-.71-.32-1.4-.66-1.89-1.29-.79-2.89-.37-5.83-.29-8.75,.01-.35,.22-.69,.07-1.06Z"/><path class="cls-14" d="M24.26,59.74c.61-.94,.34-1.99,.34-2.99-.02-3.34,.33-6.72-.71-9.99-.09-.28-.08-.6-.53-.77-.21,.65-.41,1.3-.62,1.94-.01,.03-.11,.06-.16,.05-.05,0-.1-.06-.15-.1,.23-1.77,.54-3.54,.66-5.32,.14-2.1-.86-3.6-2.8-4.44,.51-1.13,1.17-.28,1.71-.07,.75,.28,1.19,.92,1.39,1.71,.57-.5,.64-1.97,1.93-.95-1.7,1.52-1.81,3.64-1.3,5.48,1.38,4.94,1.02,9.94,1.1,14.94,0,.29,.11,.58,.16,.87-.44,.15-.73-.1-1.03-.36Z"/><path class="cls-24" d="M41.29,38.19c-.94-.46,.81-1.49-.4-1.89,1.12-.16,1.01-1.03,1.01-1.8,.01-3.19,0-6.37,.24-9.63,.17,.36,.34,.72,.51,1.07,.21,2.08,.36,4.17,.64,6.25,.32,2.35-.12,4.4-1.99,6Z"/><path class="cls-32" d="M36.19,36.35c.27,.73-.43,.98-.71,1.44-1.34-1.08-1.72-2.51-1.59-4.16,.18-2.33,.34-4.65,.51-6.98,.46-.54,.25-1.23,.43-1.83,.01-.04,.09-.08,.13-.08,.05,0,.1,.05,.15,.08,.34,3.13,.1,6.28,.14,9.42,.01,.88,.08,1.65,.94,2.11Z"/><path class="cls-27" d="M52.45,54.4c-.02-6.82-.05-13.65-.07-20.47,.02-2.55,.03-5.1,.08-7.65,.01-.63-.23-1.32,.34-1.85,.26,.38,.17,.81,.17,1.22,0,9.18,0,18.35,0,27.53,0,.41,.09,.84-.17,1.22-.12,0-.23,0-.35,0Z"/><path class="cls-13" d="M52.8,54.41c0-9.99,0-19.98,0-29.98,.58,.54,.34,1.24,.34,1.87,.01,9.36,0,18.73,0,28.09-.12,0-.23,0-.35,0Z"/><path class="cls-16" d="M20.65,48.99c.12,.12,.24,.25,.37,.37,.37,2.32,.06,4.65,.16,6.51,.24-1.73-.27-3.96,.21-6.15,.1,0,.19,0,.29,0,.63,.58,.43,1.35,.4,2.04-.1,2.2,.35,4.43-.29,6.61-.67-.25-.12-1.49-1.16-1.44-.13-2.64-.18-5.29,.03-7.93Z"/><path class="cls-7" d="M35.77,62.33c.04-4.56,.07-9.13,.11-13.69,.52,.56,.29,1.25,.29,1.88,.02,3.33,.02,6.67,0,10,0,.61,.28,1.33-.4,1.81Z"/><path class="cls-22" d="M37.32,48.66c.54,.62,.29,1.37,.29,2.05,.02,3.86,0,7.73,0,11.6-.38-.07-.44-.37-.43-.67,.07-4.33-.17-8.65,.14-12.98Z"/><path class="cls-21" d="M22.16,48.64c.66,1.54,.2,3.15,.27,4.73,.08,1.69-.03,3.38-.06,5.07-.1,.01-.19-.02-.26-.09-.36-3.13-.22-6.27-.07-9.41,.01-.11,.05-.21,.11-.31Z"/><path class="cls-20" d="M22.04,48.95c.02,3.14,.04,6.27,.07,9.41l-.16,.02h-.16c-.04-2.89-.07-5.77-.11-8.65,.12-.26,.25-.52,.37-.77Z"/><path class="cls-12" d="M48.05,59.44c.02-2.88,.03-5.75,.05-8.63,.38-.15,.38,.13,.37,.35-.25,2.75,.51,5.56-.41,8.28Z"/><path class="cls-10" d="M53.56,54.54c0-3.22,0-6.45,0-9.67,.2,3.22,.36,6.45,0,9.67Z"/><path class="cls-1" d="M25.33,38.81c-1.52-.52-1.13,1.11-1.92,1.69-.58-1.38-1.27-2.71-3.11-2.38-1.83-1.34-2.77-3.2-3.18-5.38,.37-.94,0-1.9-.03-2.83-.04-2.01,.93-3.66,1.5-5.45,2.68-3.55,7.1-3.65,9.73-.22,2.93,3.83,2.13,10.93-1.59,13.95-.39,.32-.75,.83-1.4,.63Z"/><path class="cls-5" d="M18.59,24.45c.07,.16,.25,.39,.21,.46-1.63,2.29-1.35,4.95-1.48,7.53,0,.1-.13,.19-.19,.29-.52-2.94-.35-5.76,1.47-8.28Z"/><path class="cls-8" d="M25.79,59.4v-10.02h.18v9.98l-.18,.04Z"/><path class="cls-18" d="M21.39,49.72v6.43h-.36c0-2.26,0-4.52,0-6.79,.12,.12,.24,.24,.36,.36Z"/><path class="cls-17" d="M37.66,35.57c-.11,.17-.05,.78-.45,.25-.55-.72-.19-1.64-.38-2.45,.04-1.88,.08-3.76,.13-5.64,.2-.25,.4-.26,.58,.02,.04,2.61,.09,5.21,.13,7.82Z"/><path class="cls-9" d="M36.19,36.35c-1.11,.16-1.09-.58-1.09-1.34,.01-3.4,.01-6.8,.02-10.2,.7,1.04,.28,2.2,.32,3.3,.07,2.42,.02,4.84,.02,7.47,1.15-.58,.32-1.7,1.1-2.11-.03,.97,.18,1.96-.36,2.86Z"/><path class="cls-30" d="M40.19,34.09c-.12,.67,.07,1.43-.66,2.03-.05-.5-.1-.9-.14-1.31,.03-1.88,.07-3.76,.1-5.64,.96,.15,.19,1.02,.59,1.4,.03,1.17,.07,2.34,.1,3.52Z"/><path class="cls-26" d="M37.53,27.75c-.19,0-.39-.02-.58-.02-.02-.99-.23-2,.58-2.96v2.98Z"/><path class="cls-29" d="M40.09,30.58c-.2-.47-.39-.94-.59-1.4v-3.06c.68,1.78,.7,3.12,.59,4.47Z"/><path class="cls-23" d="M51.27,24.68c.69,.5,.43,1.22,.43,1.84,.02,9.43,.01,18.85,.01,28.28,0,.42,.02,.85-.04,1.26-.11,.7-.7,1.07-1.29,1.05-.7-.01-.45-.72-.46-1.14-.03-1.38-.05-2.76,0-4.14,.05-1.43,.08-2.78-1.64-3.35-.53-.18-.51-.74-.54-1.24-.2-2.71,.27-5.38,.47-8.05,.2-2.61,.47-5.24,1.04-7.78,.51-2.27,.6-4.7,2.03-6.72Z"/></g></g></svg>