<?xml version="1.0" encoding="UTF-8"?><svg id="Layer_2" xmlns="http://www.w3.org/2000/svg" xmlns:xlink="http://www.w3.org/1999/xlink" viewBox="0 0 56.89 75.43"><defs><style>.cls-1{fill:#707a3b;}.cls-2{fill:url(#linear-gradient-2);}.cls-3{fill:#c4a79f;}.cls-4{fill:url(#radial-gradient);}.cls-5{fill:#b6c760;}.cls-6{fill:url(#linear-gradient);}</style><linearGradient id="linear-gradient" x1="23.5" y1="-1400.03" x2="23.5" y2="-1357.65" gradientTransform="translate(0 -1328.64) scale(1 -1)" gradientUnits="userSpaceOnUse"><stop offset=".12" stop-color="#c67a49"/><stop offset=".95" stop-color="#5a3821"/></linearGradient><linearGradient id="linear-gradient-2" x1="24.25" y1="-1400.03" x2="24.25" y2="-1357.65" gradientTransform="translate(0 -1328.64) scale(1 -1)" gradientUnits="userSpaceOnUse"><stop offset=".12" stop-color="#ac6a40"/><stop offset=".95" stop-color="#402818"/></linearGradient><radialGradient id="radial-gradient" cx="8.75" cy="-1345.25" fx="8.75" fy="-1345.25" r="46.33" gradientTransform="translate(0 -1328.64) scale(1 -1)" gradientUnits="userSpaceOnUse"><stop offset=".18" stop-color="#a6b658"/><stop offset=".84" stop-color="#7c8742"/></radialGradient></defs><g id="Layer_1-2"><g><path class="cls-3" d="M29.76,74.3c-2.97,1.51-6.49,1.51-9.46,0-2.61-1.51-2.61-3.95,0-5.46,2.97-1.51,6.49-1.51,9.46,0,2.61,1.51,2.61,3.95,0,5.46Z"/><path class="cls-6" d="M28.66,71.36c-.08,.93-.66,1.73-1.51,2.11-1.36,.7-2.89,.99-4.41,.83-1.01-.07-2-.35-2.89-.83-1.61-.94-1.93-2.34-1-3.45,3.91-13.33,4-21.31,2-34.81h5.16c-1.85,14-.94,22.33,2.36,35.29,.17,.26,.27,.55,.29,.86Z"/><path class="cls-2" d="M28.66,71.36c-.08,.93-.66,1.73-1.51,2.11-1.36,.7-2.89,.99-4.41,.83l-2.89-.83s4.09,.85,4.48-17.06-3.41-21.2-3.41-21.2h5.16c-1.85,14-.94,22.33,2.36,35.29,.14,.26,.22,.56,.22,.86Z"/><path class="cls-1" d="M2.51,12.25s-1.13,2.68,1.23,3.89c0,0,1.66-1.9-1.23-3.89Z"/><path class="cls-5" d="M0,26.54s.33,2.89,3,2.79c-.02,0,.5-2.47-3-2.79Z"/><path class="cls-1" d="M14.33,41.57s-2.79,.81-2.24,3.4c0,0,2.52,.1,2.24-3.4Z"/><path class="cls-5" d="M14.88,0s-1.8,2.29,.15,4.08c0,0,2.11-1.4-.15-4.08Z"/><circle class="cls-4" cx="24.59" cy="23.09" r="23.09"/><path class="cls-5" d="M9.66,14.19s-1.12,2.69,1.23,3.89c0,0,1.66-1.9-1.23-3.89Z"/><path class="cls-5" d="M37.1,24.05s-1.12,2.69,1.23,3.89c0,0,1.66-1.9-1.23-3.89Z"/><path class="cls-5" d="M22.77,21.15s-1.13,2.68,1.23,3.88c0,0,1.66-1.9-1.23-3.88Z"/><path class="cls-5" d="M9.79,26.88s.33,2.89,3,2.79c-.02,.01,.46-2.47-3-2.79Z"/><path class="cls-5" d="M9.79,36.83s.33,2.89,3,2.78c-.02,0,.46-2.46-3-2.78Z"/><path class="cls-1" d="M20.57,8.11s-2.79,.81-2.25,3.4c0,0,2.52,.09,2.25-3.4Z"/><path class="cls-5" d="M21.81,31.6s-2.79,.81-2.25,3.4c0,0,2.52,.1,2.25-3.4Z"/><path class="cls-1" d="M28.73,37.92s-2.79,.81-2.25,3.4c0,0,2.52,.09,2.25-3.4Z"/><path class="cls-5" d="M29.96,4.11s-1.8,2.28,.15,4.07c0,0,2.14-1.39-.15-4.07Z"/><path class="cls-5" d="M41.32,10.28s-2.8,.81-2.25,3.4c0,0,2.52,.1,2.25-3.4Z"/><path class="cls-1" d="M48.03,24.24s-1.13,2.68,1.23,3.88c-.01,0,1.66-1.9-1.23-3.88Z"/><path class="cls-5" d="M45.53,38.53s.33,2.89,3,2.78c-.03,0,.49-2.46-3-2.78Z"/><path class="cls-5" d="M55.18,26.18s-1.12,2.68,1.24,3.88c0,0,1.65-1.9-1.24-3.88Z"/></g></g></svg>