<?xml version="1.0" encoding="UTF-8"?><svg id="Layer_2" xmlns="http://www.w3.org/2000/svg" viewBox="0 0 101.84 101.84"><defs><style>.cls-1{fill:#005720;}.cls-2{fill:#00571f;}.cls-3{fill:#fff7dc;}.cls-4{fill:#009844;}.cls-5{fill:#029843;}.cls-6{fill:#8ec31f;}</style></defs><g id="Layer_1-2"><g><circle class="cls-3" cx="50.92" cy="50.92" r="50.92"/><path class="cls-5" d="M51.73,88.76c1.58-3.03,1.72-6.61,.37-9.75-.38-.75-.82-1.46-1.32-2.13-1.45-2.14-1.65-4.89-.54-7.23,.55-1.19,1.17-2.34,1.87-3.44,.88-1.37,1.31-2.98,1.23-4.61-.15-1.45-.64-2.85-1.44-4.07-.34-.56-.72-1.1-1.11-1.63-1.43-1.9-1.93-4.35-1.38-6.66,.38-1.54,.83-3.07,1.37-4.56,.38-1.21,.59-2.46,.62-3.73,.11-2.01-.02-4.02-.38-6h.43c.2,.76,.32,1.55,.34,2.34,.21,2.16,.12,4.34-.29,6.47-.19,.78-.43,1.56-.71,2.31-.6,1.55-.98,3.17-1.13,4.82-.09,1.54,.34,3.07,1.23,4.34,.75,1.02,1.41,2.09,2,3.21,.56,1.11,.87,2.33,.9,3.57-.02,1.41-.4,2.78-1.1,4-.79,1.27-1.5,2.58-2.14,3.93-1.05,2.35-.71,5.09,.89,7.1,1.82,2.54,2.45,5.75,1.74,8.79-.23,.98-.53,1.94-.9,2.88l-.55,.05Z"/><path class="cls-5" d="M67.09,88.76c.6-1.52,1.45-2.92,2.51-4.16,1-1.28,2.14-2.45,3.11-3.77,1.07-1.45,1.68-3.2,1.74-5,.04-1.28-.06-2.55-.3-3.81-.29-1.58,.02-3.21,.87-4.57,.95-1.53,1.77-3.15,2.43-4.83,.59-1.71,.95-3.48,1.08-5.28,.24-2.18,1.06-4.25,2.37-6l.6-.87c.15,.03,.28,.1,.4,.19-.61,.92-1.22,1.83-1.76,2.79-.73,1.42-1.15,2.97-1.23,4.56-.29,3.14-1.32,6.16-3,8.82-.64,.92-1.09,1.96-1.33,3.06-.11,1-.06,2.01,.15,3,.4,2.09,.22,4.24-.52,6.23-.56,1.23-1.31,2.36-2.22,3.36-1.27,1.4-2.45,2.9-3.51,4.47-.37,.58-.68,1.19-.91,1.84l-.48-.03Z"/><path class="cls-2" d="M59.81,58.45c0-2.09,.18-4.18,.57-6.24,.12-.61,.33-1.19,.42-1.8,.09-.76,.07-1.53-.06-2.29-.26-1.5-.44-3.02-.54-4.54,.01-1.7,.35-3.37,1-4.94,.54-1.16,.79-2.44,.72-3.72-.12-.83-.3-1.66-.56-2.46-.51-1.77-1.61-3.24-2.33-4.91-.72-1.68-1.25-3.43-1.56-5.23-.13-.78-.26-1.56-.32-2.35-.07-1.72,.25-3.43,.95-5,.24-.66,.54-1.29,.9-1.89h.42c-.01,.15-.06,.29-.14,.42-.78,1.46-1.32,3.03-1.61,4.66-.15,1-.13,2.01,.06,3,.23,1.68,.63,3.32,1.19,4.92,.41,1.11,.9,2.19,1.48,3.22,1.05,1.75,1.73,3.69,2,5.71,.08,1.17-.13,2.34-.63,3.41-.78,1.78-1.16,3.7-1.13,5.64,.08,1.03,.23,2.05,.43,3.06,.36,1.69,.29,3.44-.21,5.09-.22,.78-.34,1.57-.38,2.38-.21,2.18-.29,4.37-.25,6.56,.01,2.31,.4,4.6,1.15,6.79,.43,1.06,.37,2.25-.16,3.26-.8,1.79-1.38,3.68-1.72,5.61,0,.17-.1,.33-.15,.49l-.28-.56c-.06-.23-.06-.48,0-.71,.37-1.85,.96-3.65,1.74-5.36,.33-.69,.37-1.47,.13-2.19-.41-1.17-.75-2.37-1-3.58-.14-.85-.19-1.71-.28-2.57,0-.32,.04-.64,.1-.95,.16-.97,.18-1.96,.05-2.93Z"/><path class="cls-6" d="M33.22,88.76c0-.68,0-1.37-.11-2.05-.19-1.21-.78-2.32-1.67-3.15-.9-.88-1.73-1.82-2.49-2.81-.65-1-1.12-2.1-1.41-3.25,0-.16,0-.24,.16-.2,.62,.11,1.23,.27,1.83,.48,.78,.35,1.28,1.14,1.27,2,.07,.96,.22,1.92,.45,2.86,.28,1.34,1.59,2.2,2.93,1.93,.02,0,.05,0,.07-.02,1.06-.18,2.15-.18,3.21,0l.27,.09c.12,.14,.05,.31,0,.46-.08,.54-.25,1.07-.48,1.56-.34,.7-.66,1.4-1,2.09h-3.03Z"/><path class="cls-4" d="M65.97,38.28c-.65,1.06-.79,2.36-.36,3.53,.52,1.33,1.19,2.61,2,3.79,.82,1.24,1.27,2.69,1.29,4.18-.04,1.98-.88,3.86-2.32,5.22-1.18,1.2-1.71,2.89-1.43,4.55,.23,1.96,.92,3.84,2,5.49,.22,.34,.41,.69,.62,1,.34,.4,.52,.91,.51,1.44,.13,1.07-.08,2.16-.62,3.1-.71,1.18-1.51,2.3-2.39,3.35-.58,.67-.97,1.48-1.12,2.35-.07,.53-.01,1.08,.15,1.59,.39,1.12,.94,2.18,1.63,3.14,.25,.37,.45,.76,.61,1.18,.24,.82,.24,1.68,0,2.5-.37,1.36-.95,2.66-1.74,3.83-.06,.09-.14,.16-.22,.23h-6c-.07-.2,.06-.33,.14-.48,.94-1.62,1.5-3.42,1.66-5.28,.09-1.77-.26-3.54-1-5.15-.1-.18-.16-.38-.17-.58,.39-2.25,1.06-4.43,2-6.51,.33-.69,.39-1.48,.18-2.21-.23-.81-.5-1.62-.72-2.44-.3-1.23-.48-2.49-.54-3.75-.08-1.19-.11-2.39-.07-3.59,.03-2.01,.19-4.01,.49-6,.1-.64,.36-1.24,.46-1.88,.16-1.26,.12-2.53-.11-3.78-.25-1.17-.39-2.36-.44-3.56,.01-1.76,.39-3.49,1.12-5.09,.86-2.02,.86-4.31,0-6.33-.38-1.07-.86-2.09-1.43-3.07-1.2-2.27-2.03-4.71-2.45-7.24-.51-2.65-.09-5.4,1.18-7.78,.12-.35,.31-.67,.54-.95,1.06,0,2.08,.36,2.92,1,.86,.69,1.36,1.72,1.37,2.82,.04,1.03-.15,2.05-.56,3-.51,1.09-.69,2.31-.52,3.5,.19,.86,.58,1.66,1.14,2.34,.56,.74,1.19,1.43,1.88,2.05,1.69,1.31,2.57,3.41,2.32,5.53-.03,1.02-.29,2.01-.76,2.92-.27,.62-.59,1.21-.94,1.79-.08,.11-.18,.19-.3,.25Z"/><path class="cls-6" d="M59.34,77.28c.49,1.09,.85,2.23,1.06,3.41,.31,2.05,.04,4.16-.79,6.06-.29,.69-.62,1.36-1,2h-6.3c-.13-.17,0-.34,0-.5,.48-1.11,.78-2.29,.91-3.5,.37-2.63-.28-5.3-1.8-7.48-.86-1.11-1.41-2.44-1.58-3.84-.08-1.11,.1-2.22,.51-3.25,.48-1.23,1.09-2.41,1.83-3.5,.63-.99,1.09-2.08,1.33-3.23,.31-1.67,.06-3.4-.72-4.91-.47-.97-1.03-1.89-1.69-2.75-.99-1.24-1.55-2.77-1.6-4.36-.01-1.04,.13-2.07,.42-3.07,.26-.98,.56-1.94,.92-2.89,.46-1.32,.74-2.7,.83-4.1,.15-2.04,.05-4.1-.28-6.12v-.31c2.24,.14,4.27,1.37,5.43,3.29,.03,.06,.08,.1,.15,.11,.49,.82,.79,1.75,.87,2.7,.21,2.06-.16,4.14-1.08,6-.34,.75-.76,1.45-1.11,2.19,0,.1-.1,.2-.14,.29-.62,.96-.39,2.23,.52,2.92,.88,.82,1.67,1.71,2.38,2.68,.69,1.01,1.19,2.15,1.45,3.35,.16,.91,.16,1.83,0,2.74-.53,1.95-1.37,3.81-2.47,5.5-.49,.78-.9,1.59-1.25,2.44-.41,1.07-.29,2.28,.33,3.25,.66,1.1,1.41,2.13,2.06,3.24,.19,.32,.38,.65,.56,1,.14,.19,.22,.41,.25,.64Z"/><path class="cls-6" d="M45.58,78.65c-.19-.42-.4-.82-.58-1.24-.68-1.56-.58-3.35,.27-4.82,.67-1.14,1.43-2.22,2.28-3.24,.64-.78,1.17-1.65,1.57-2.58,.46-1.06,.36-2.27-.27-3.24-.48-.74-1.07-1.42-1.74-2-1.53-1.31-2.74-2.95-3.53-4.8-.56-1.2-.5-2.59,.15-3.74,.36-.56,.83-1.03,1.39-1.38,.51-.33,.97-.72,1.4-1.15,.74-.69,.99-1.77,.61-2.72-.37-.96-.83-1.87-1.39-2.73-1.53-2.75-1.2-6.15,.82-8.56,1.16-1.19,2.82-1.75,4.46-1.5,.12,.11,.19,.27,.2,.43,.51,2.92,.46,5.92-.17,8.82-.25,1-.66,2-1,3-.28,.87-.5,1.76-.64,2.66-.39,2.18,.19,4.43,1.57,6.16,.79,1.02,1.44,2.15,1.92,3.35,.79,1.94,.7,4.13-.25,6-.4,.85-.94,1.63-1.4,2.45-.75,1.23-1.27,2.58-1.54,4-.25,1.54,.04,3.13,.83,4.48,.27,.48,.57,.95,.89,1.39,.92,1.37,1.48,2.95,1.62,4.59,.17,1.95-.12,3.92-.86,5.74-.07,.3-.24,.57-.49,.76h-2.83c-.17-.18-.08-.42-.16-.63-.02-.11-.02-.21,0-.32-.28-1.77-.7-3.53-1.24-5.24-.39-1.19-.95-2.31-1.64-3.35-.12-.19-.31-.34-.25-.59Z"/><path class="cls-6" d="M80.15,66.53c-.26,.52-.26,1.12,0,1.64,.34,.73,.73,1.44,1.05,2.18,.84,1.76,1.11,3.75,.76,5.67-.29,1.29-.91,2.49-1.78,3.49-1.22,1.33-2.53,2.57-3.91,3.73-.91,.7-1.57,1.69-1.86,2.81-.08,.75-.02,1.51,.2,2.24,.07,.15,.09,.31,.08,.47h-7.12c-.11-.17,0-.31,.06-.45,.56-1.24,1.3-2.4,2.18-3.44,.89-1.13,1.86-2.2,2.77-3.31,1.24-1.51,2-3.35,2.18-5.3,.1-1.25,.02-2.5-.22-3.73-.38-1.89,0-3.84,1.06-5.45,1.01-1.55,1.82-3.24,2.39-5,.46-1.48,.75-3.01,.85-4.55,.27-2.41,1.22-4.7,2.74-6.59,.08-.13,.19-.23,.32-.29h.05c.25,.05,.49,.15,.7,.3,1.7,.99,2.87,2.69,3.18,4.64,.24,1.65-.02,3.33-.75,4.83-.63,1.33-1.49,2.54-2.53,3.58-.84,.8-1.64,1.65-2.4,2.53Z"/><path class="cls-4" d="M48.84,88.12c.08,.2,.1,.43,.06,.64h-9.54c-.31-.58-.4-1.26-.25-1.91,.26-.87-.25-1.79-1.12-2.05-.08-.02-.17-.04-.26-.05-1.11-.29-2.27-.33-3.4-.12-.62,.09-1.25,0-1.82-.24-.67-.34-1.16-.95-1.34-1.68-.26-.93-.43-1.89-.49-2.86,.04-1.11-.78-2.06-1.88-2.18l-.83-.19c-.22-.05-.31,0-.24,.24,.32,1.29,.92,2.49,1.74,3.53,.57,.67,1.19,1.31,1.79,2,.82,.74,1.44,1.68,1.8,2.73,.2,.83,.29,1.67,.27,2.52,0,.11-.03,.21-.11,.29h-.49c-.1-.15-.14-.33-.11-.5v-1.21c-.15-1.2-.72-2.31-1.6-3.14-.88-.87-1.7-1.79-2.46-2.77-.64-.9-1.11-1.92-1.38-3-.07-.57-.51-1.02-1.08-1.11-.58-.13-1.13-.36-1.62-.69-.84-.5-1.25-1.5-1-2.45,.06-.34,.16-.68,.28-1,.09-.18,.04-.4-.12-.53-1.34-1.37-2.36-3.01-3-4.81-.06-.18-.14-.35-.25-.51-.65-.95-.83-2.15-.49-3.25,.19-.69,.33-1.39,.45-2.09,.22-1.09,.52-2.17,.9-3.22,.21-.67,.32-1.37,.33-2.07,0-1.78,.12-3.55,.18-5.32,0-1.01-.11-2.02-.34-3,0-.21-.17-.43,0-.65,.18,0,.35,.05,.5,.14,.27,.48,.41,1.03,.41,1.58,.14,1.28,.14,2.58,0,3.86-.11,1.07-.17,2.15-.18,3.23,.03,.9-.12,1.8-.42,2.65-.27,.75-.49,1.51-.68,2.28,0,.13-.06,.27,.15,.15s.18,0,.27,.05c1.54,.75,2.86,1.9,3.82,3.33,.24,.4,.46,.82,.65,1.25,.48,1,1,2,1.54,3,.63,1.12,1.63,2,2.83,2.47,2.07,.78,3.79,2.29,4.84,4.25,.32,.58,.69,1.13,1,1.7,.49,.83,1.1,1.57,1.82,2.2,.42,.36,.91,.63,1.43,.82,.71,.29,1.41,.63,2.09,1,.76,.37,1.36,.99,1.7,1.76,.78,1.95,2.27,3.53,4.16,4.44,.47,.23,.97,.4,1.49,.49Z"/><path class="cls-6" d="M64.58,88.76c.2-.45,.44-.88,.71-1.29,.64-1.12,1.08-2.35,1.28-3.62,.08-.54,.04-1.1-.1-1.63,.24-.29,.54-.52,.87-.7,.56-.41,1.1-.87,1.6-1.35,1.07-.93,1.47-2.42,1-3.76-.21-.7-.49-1.37-.85-2-.58-1.03-1.07-2.12-1.44-3.24-.07-.19-.1-.39-.1-.59,.78-1.38,.86-3.05,.22-4.5,.55-.92,1.45-1.59,2.5-1.84,.6-.16,1.18-.39,1.73-.66,1.06-.48,1.66-1.61,1.47-2.75-.07-.86-.26-1.7-.41-2.55-.65-2.84,.42-5.79,2.74-7.55,1.78-1.42,3.77-1.3,5.74-.33,0,.2-.09,.33-.19,.47-.64,.91-1.22,1.87-1.73,2.87-.57,1.24-.91,2.58-1,3.94-.28,3.26-1.36,6.4-3.13,9.15-.53,.82-.92,1.71-1.17,2.65-.22,1.04-.22,2.12,0,3.16,.22,1.27,.27,2.57,.15,3.86-.22,1.85-.99,3.59-2.21,5-1.09,1.32-2.25,2.57-3.26,4-.68,.89-1.26,1.85-1.7,2.88-.05,.14-.14,.26-.25,.36l-2.47,.02Z"/><path class="cls-6" d="M21.34,47.38c.39,1.43,.55,2.92,.46,4.4-.17,1.73-.08,3.47-.21,5.2-.06,.66-.21,1.3-.43,1.92-.43,1.19-.73,2.43-.9,3.68-.07,.58-.34,1.1-.41,1.68-.16,.94,.06,1.91,.6,2.69,.07,.08,.12,.18,.15,.28,.55,1.57,1.37,3.02,2.43,4.3,.2,.27,.44,.51,.71,.72,.19,.12,.26,.37,.14,.56v.02c-.23,.51-.35,1.05-.38,1.6-.02,.66,.3,1.29,.85,1.66,.69,.47,1.45,.8,2.26,1,.24,.04,.43,.22,.48,.46,.33,1.45,.97,2.82,1.87,4,.7,.84,1.47,1.61,2.22,2.41,.71,.69,1.21,1.57,1.44,2.53,.12,.76,.16,1.52,.11,2.29h-4.58c-.59-.71-1.24-1.38-1.76-2.15-.71-.94-1.15-2.04-1.29-3.21-.14-1.48-.95-2.81-2.2-3.61-.31-.23-.65-.44-1-.61-.8-.4-1.37-1.13-1.56-2-.63-1.99-.67-4.12-.11-6.13,.23-.73,.06-1.53-.45-2.11-.91-1.06-1.75-2.19-2.49-3.38-.68-1.06-1.13-2.24-1.35-3.47-.25-1.33,.18-2.69,1.13-3.64,.64-.66,1.29-1.33,1.92-2,.2-.22,.38-.45,.54-.7,.58-.81,.66-1.87,.21-2.76-.55-1.14-.79-2.39-.71-3.65,.02-.38,.11-.75,.25-1.1,.25-.78,1.08-1.21,1.86-.96,.07,.02,.14,.05,.2,.08Z"/><path class="cls-4" d="M59.81,58.45c-.35-1.39-.98-2.69-1.86-3.82-.53-.66-1.11-1.28-1.73-1.86-1.31-1.25-1.42-1.94-.59-3.57,.65-1.17,1.22-2.4,1.68-3.66,.83-2.25,.75-4.73-.23-6.92-.05-.08-.07-.18-.05-.27,.24-.65,.52-1.3,.7-2,.29-.98,.14-2.04-.42-2.9-.67-1.1-1.52-2.06-2.28-3.08-.63-.77-1.12-1.65-1.44-2.59-.28-.6-.38-1.27-.26-1.92,.07-.85,.22-1.68,.22-2.54,0-.9-.17-1.8-.51-2.63-.29-.69-.42-1.43-.39-2.17,0-.24,.06-.48,.2-.68,.72-2.53,2.87-4.38,5.47-4.74,.22-.04,.46-.04,.68,0,.06,.21-.08,.36-.16,.52-.77,1.5-1.28,3.12-1.52,4.79-.09,.83-.07,1.67,.05,2.5,.29,2.4,.95,4.74,1.93,6.94,.45,1,1.07,1.9,1.51,2.9,.82,1.62,1.24,3.41,1.24,5.22-.03,.6-.15,1.2-.38,1.76-.62,1.41-1.04,2.9-1.26,4.42-.16,1.43-.08,2.88,.21,4.29,.16,.87,.28,1.75,.35,2.64,.07,.82-.03,1.65-.28,2.44-.32,1.18-.52,2.4-.59,3.62-.09,1-.16,1.95-.17,2.94,.02,.14-.02,.27-.12,.37Z"/><path class="cls-4" d="M45.58,78.65c1.38,2,2.32,4.26,2.75,6.65,.2,.82,.35,1.65,.46,2.49-.14,.11-.28,0-.41,0-2.25-.79-4.05-2.51-4.93-4.72-.31-.71-.84-1.3-1.51-1.68-.6-.37-1.23-.67-1.89-.91-1.6-.59-2.92-1.75-3.72-3.25-.55-.92-1.08-1.86-1.7-2.75-.88-1.32-2.15-2.34-3.63-2.92-1.72-.64-3.12-1.96-3.86-3.64-.33-.69-.68-1.38-1-2.08-.85-1.87-2.29-3.41-4.09-4.39-.18-.1-.41-.13-.51-.36,.32-.35,.77-.55,1.25-.56,.52-.16,1.09-.16,1.61,0,1.5,.11,2.88,.87,3.78,2.08,.82,1,1.59,2,2.37,3,.8,1.11,2.18,1.66,3.53,1.41,3.09-.38,5.91,1.82,6.28,4.91,0,.05,.01,.09,.02,.14,.13,1.39,.59,2.72,1.34,3.89,.94,1.32,2.3,2.27,3.86,2.69Z"/><path class="cls-6" d="M24.42,60.52c-.98-.13-1.97,.08-2.82,.59-.03,.14-.15,.24-.29,.24l-.46,.41c.15-.87,.37-1.72,.68-2.54,.38-1.05,.56-2.16,.55-3.28,0-1.51,.12-3,.19-4.51,.03-1.32-.11-2.63-.43-3.91,1.23,.35,2.29,1.11,3,2.17,.48,.69,.6,1.57,.3,2.35-.11,.31-.21,.62-.29,.93-.13,.44-.08,.92,.13,1.33,.57,1.09,.61,2.39,.1,3.51-.33,.74-.57,1.51-.72,2.3,0,.17-.09,.29,.06,.41Z"/><path class="cls-4" d="M59.8,61.36c0,2.34,.4,4.65,1.2,6.85,.33,1.05,.2,2.18-.35,3.13-.74,1.72-1.28,3.53-1.59,5.38-.78-1.43-1.72-2.76-2.57-4.14-.8-1.2-.86-2.74-.17-4,.47-1,1.07-1.92,1.61-2.88,.82-1.35,1.45-2.81,1.87-4.34Z"/><path class="cls-1" d="M21.31,61.35c.07-.11,.17-.19,.29-.24,.69,.29,1.34,.69,1.91,1.17,1.39,1.09,2.46,2.54,3.08,4.19,.46,1.11,1.04,2.16,1.75,3.13,.75,.85,1.71,1.49,2.78,1.85,1.41,.6,2.62,1.57,3.51,2.81,.62,.89,1.2,1.82,1.72,2.77,.85,1.61,2.28,2.84,4,3.44,.93,.29,1.78,.78,2.49,1.44,.29,.28,.53,.62,.69,1,.92,2.34,2.86,4.13,5.27,4.85,0,.11,0,.22,.05,.33s-.2,.08-.29,0c-2.16-.67-3.96-2.18-5-4.19-.24-.63-.58-1.21-1-1.74-.66-.58-1.42-1.03-2.25-1.32-1.24-.41-2.35-1.14-3.23-2.11-.62-.83-1.18-1.69-1.69-2.59-.55-1.01-1.22-1.95-2-2.79-.8-.77-1.74-1.37-2.78-1.75-1.52-.59-2.76-1.74-3.46-3.22-.47-.92-.93-1.85-1.35-2.79-.85-1.72-2.23-3.12-3.94-4-.24-.02-.44-.07-.55-.24Z"/><path class="cls-6" d="M21.26,67.7c.92,.64,1.77,1.2,2.58,1.82,.71,.57,.88,1.57,.4,2.34-.13,.24-.21,.06-.3,0-.66-.64-1.22-1.36-1.67-2.16-.41-.63-.75-1.3-1.01-2Z"/></g></g></svg>