<?xml version="1.0" encoding="UTF-8"?><svg id="Layer_2" xmlns="http://www.w3.org/2000/svg" viewBox="0 0 99.64 99.64"><defs><style>.cls-1{fill:#fff;}.cls-2{fill:#1da360;}</style></defs><g id="Layer_1-2"><g><circle class="cls-2" cx="49.82" cy="49.82" r="49.82" transform="translate(-15.27 22.86) rotate(-22.5)"/><path class="cls-1" d="M50.77,45.57c1-1.57,2.81-2.44,4.66-2.25,2.75,.25,5.45,.93,8,2,2.34,1,3.66,2.69,3.6,5.28,0,.94,.3,1.12,1.17,1,5.11-.78,8.33,2.88,7,7.87-1.45,4.76-5.74,8.11-10.71,8.35h-.67c-.33,.05-.58,.31-.62,.64,0,.32,.31,.34,.57,.43,1.26,.45,2.53,.87,3.76,1.39,1.04,.44,2,1.03,2.85,1.76,2.87,2.47,2.81,5.52-.2,7.82-2.41,1.73-5.18,2.89-8.1,3.41-9.88,2.28-20.16,2.05-29.93-.66-2.28-.55-4.39-1.63-6.16-3.16-2.49-2.31-2.43-5.08,.13-7.3,1.9-1.51,4.1-2.58,6.46-3.16,.92-.27,.89-.53,.48-1.25-3.15-5.54-4.35-11.98-3.42-18.28,.2-1.64,1.23-3.05,2.73-3.74,2.74-1.34,5.7-2.16,8.74-2.42,2-.25,3.94-.26,5.91-.45,1.11-.11,1,.37,.59,1-.76,1.19-2.1,1.89-3.52,1.84-3.09,.11-6.13,.74-9,1.88-.38,.15-.74,.33-1.09,.53-.47,.29-1.15,.43-1.11,1.19s.63,.84,1.08,1.08c2.78,1.53,5.86,1.94,8.93,2.23,5.58,.63,11.23,.3,16.7-1,1.27-.27,2.48-.79,3.55-1.53,1.07-.79,1.06-1.34-.12-2-2.42-1.17-5.04-1.88-7.72-2.12-1.45-.15-2.82-.27-4.54-.38Z"/><path class="cls-1" d="M48.91,45.93c.68-2.43,1.18-4.91,1.5-7.42,.16-3.06-.56-6.09-2.08-8.75-.68-1.21-1.32-2.44-2-3.63-2.16-3.58-.69-8.71,1.61-11.33-.24,1.49-.46,2.88-.55,4.3-.16,2.48,.55,4.93,2,6.94,1.53,1.99,2.67,4.26,3.36,6.67,1,4.35-.11,8.23-2.67,11.77-.37,.5-.78,.97-1.17,1.45Z"/><path class="cls-1" d="M44.98,41.68c.26-1.37,.45-2.76,.55-4.15,.06-2.62-1.1-4.75-2.48-6.82-1.81-2.72-1.78-5,.07-7.69,.06,0,.19,.1,.18,.13-.26,2.75,.63,5.48,2.46,7.54,2.78,3.6,2.41,7.83-.78,10.99Z"/><path class="cls-1" d="M32.12,52.82c9.53,3.53,19.09,3.52,28.76,1.23,.99-.27,1.95-.64,2.87-1.09,.58-.27,.83-.22,.82,.46-.12,7.21-2.08,13.69-7.95,18.33s-13.06,3.91-18.33-1.44c-4.36-4.74-6.59-11.06-6.17-17.49Z"/><path class="cls-2" d="M46.78,82.11c-5.1,0-10.16-.83-15-2.45-1.59-.47-3.06-1.3-4.28-2.43-.74-.52-.92-1.55-.39-2.29,.11-.15,.24-.29,.39-.39,2.08-2,4.8-2.69,7.47-3.44,.55-.16,.74,.41,1,.71,2.66,2.95,6.27,4.89,10.21,5.47,4.93,.74,9.91-.99,13.32-4.62,1.05-1.34,2.91-1.72,4.4-.89,1.66,.54,3.22,1.33,4.65,2.33,1.54,1.25,1.52,2.41-.08,3.6-2.54,1.9-5.54,2.67-8.57,3.3-4.32,.84-8.72,1.21-13.12,1.1Z"/><path class="cls-1" d="M64.98,65.06c1.28-3,2.01-6.2,2.15-9.46,0-.83,.36-1.15,1.17-1.31,1.31-.45,2.75-.12,3.74,.84,1,1.11,.88,2.47,.47,3.79-1.02,3.27-4.34,6-7.53,6.14Z"/><path class="cls-1" d="M43.49,72.32c-3.99-2.64-6.91-6.62-8.23-11.22-.44-1.27-.74-2.58-.9-3.91-.06-.54,0-.73,.6-.62,1.29,.22,2.09,.51,2.31,2.21,.62,5.05,2.79,9.78,6.22,13.54Z"/></g></g></svg>