<?xml version="1.0" encoding="UTF-8"?><svg id="Layer_2" xmlns="http://www.w3.org/2000/svg" viewBox="0 0 100.22 100.22"><defs><style>.cls-1{fill:#fff;}.cls-2{fill:#ff5e34;}</style></defs><g id="Layer_1-2"><g><circle class="cls-2" cx="50.11" cy="50.11" r="50.11"/><path class="cls-1" d="M50.14,22.62h17.49c1.09-.17,2.12,.57,2.29,1.66s-.57,2.12-1.66,2.29c-.21,.03-.42,.03-.63,0h-15.04c-.41,0-.5,.12-.5,.52,0,2.25,0,4.5,0,6.75,0,.45,.09,.6,.58,.59,3.06,0,6.14-.07,9.2,0,4.76-.07,9.08,2.78,10.89,7.19,.63,1.44,.95,3,.92,4.57v23.48c.08,4.33-3.36,7.92-7.7,8-.1,0-.2,0-.3,0h-31.13c-4.33,.09-7.91-3.35-8-7.68,0-.11,0-.22,0-.32v-23.38c-.06-5.97,4.36-11.04,10.28-11.8,.57-.07,1.15-.1,1.73-.09h9.11c.39,0,.51-.09,.5-.5v-6.86c0-.41-.11-.5-.5-.5h-15c-1.09,.19-2.13-.53-2.32-1.62-.19-1.09,.53-2.13,1.62-2.32,.21-.04,.42-.04,.63-.01h17.6l-.06,.03Z"/><path class="cls-2" d="M50.12,59.93h-13.5c-1.1,.14-2.1-.63-2.24-1.73-.02-.17-.02-.33,0-.5v-11.26c-.11-2.21,1.59-4.08,3.8-4.19,.13,0,.27,0,.4,0h23.07c2.21-.1,4.08,1.61,4.18,3.81,0,.12,0,.23,0,.35v11.3c.13,1.1-.66,2.09-1.76,2.22-.15,.02-.3,.02-.44,0h-13.51Z"/><path class="cls-2" d="M50.06,69.76h-5.72c-1.08,.22-2.14-.48-2.36-1.56s.48-2.14,1.56-2.36c.26-.05,.53-.05,.8,0h11.5c1.08-.22,2.14,.48,2.36,1.56s-.48,2.14-1.56,2.36c-.26,.05-.53,.05-.8,0h-5.78Z"/></g></g></svg>