<?xml version="1.0" encoding="UTF-8"?><svg id="Layer_2" xmlns="http://www.w3.org/2000/svg" viewBox="0 0 100.26 100.26"><defs><style>.cls-1{fill:#fff;}.cls-2{fill:#03a9f4;}</style></defs><g id="Layer_1-2"><g><circle class="cls-2" cx="50.13" cy="50.13" r="50.13"/><path class="cls-1" d="M90.15,55.17c-1.11,2.57-3.34,4-5.63,5.26-4.15,2.17-8.55,3.81-13.11,4.87-.78,.05-1.56-.15-2.22-.58-.9-.42-1.73-.97-2.46-1.64-.91-.74-1.33-.79-2.3-.08-2.52,1.92-5.77,2.62-8.86,1.89-1.76-.42-3.33-1.42-4.46-2.83-1.67-1.92-2-1.89-3.75,0-3.06,3.44-8.15,4.17-12.05,1.74l-1.21-.73c-1-.59-1.33-.57-2.24,.17-.74,.6-1.53,1.13-2.36,1.59-1.53,.84-3,.48-4.59,.07-3.96-.91-7.75-2.42-11.26-4.46-1.11-.69-2.12-1.52-3-2.48-.35-.36-.56-.83-.6-1.33l6.95,1.08c5.3,.84,10.63,1.42,16,1.86,6.98,.59,13.99,.78,21,.59,9.3-.12,18.56-1.42,27.53-3.88,2.53-.7,5-1.59,7.4-2.65,.63-.28,1-.29,1.18,.44l.04,1.1Z"/><path class="cls-1" d="M58.3,37.54c-1.97-.86-4.01-1.53-6.1-2-1.17-.12-2.34-.16-3.51-.11-.86-.01-1.62-.57-1.88-1.39-.34-.79-.14-1.72,.51-2.29,.5-.43,1.14-.65,1.79-.63,3.72-.37,7.07,1,10.44,2.19,.53,.19,1.05,.44,1.58,.66,.99,.44,2.04,.73,3.12,.86,1.57,.26,3.07,.82,4.43,1.64,3.17,1.67,6.19,3.63,9,5.85,3.54,2.75,6.93,5.69,10.13,8.83l.46,.4c-1,.41-1.94,.8-2.88,1.14-5.69,2.01-11.58,3.4-17.57,4.16-9.62,1.2-19.33,1.5-29,.9-7.29-.36-14.55-1.11-21.75-2.27-2-.32-4.06-.67-6.09-1-.54-.08-.75-.18-.54-.81,.74-2.25,.71-2.26,3.06-2.26h18.69c.51,0,.69-.1,.77-.64,.31-3.59,3.4-6.31,7-6.15h14.39c.56,0,.77-.14,.93-.72,.58-2.3,1.61-4.46,3.02-6.36Z"/><path class="cls-1" d="M13.83,67.83c1.73-.26,3.38-.95,4.78-2,.36-.33,.91-.36,1.31-.08,3.27,1.8,7.19,1.97,10.61,.46,.89-.37,1.69-.92,2.37-1.61,.25-.36,.75-.45,1.11-.2,.05,.03,.1,.07,.14,.12,2,1.53,4.48,2.3,7,2.17,2.91,0,5.66-1.37,7.39-3.72,.74-1,.86-1,1.59,0,3.55,4.86,10.57,4.36,14,1.74,1.05-.79,1.08-.75,2.08,.07,3.88,3.01,9.26,3.16,13.31,.38,.65-.46,1-.5,1.58,.1,1.43,1.35,3.24,2.22,5.18,2.5,.16,0,.32,0,.47,.07,.14,.05,.28,.11,.41,.19-2.25,.06-4.48-.48-6.44-1.58-.24-.15-.55-.12-.76,.07-4.59,3-9.37,3-14.28,.9-.3-.2-.68-.22-1-.06-5.1,2.42-10.13,2.41-15.05-.51-.21-.16-.49-.16-.7,0-4.54,2.77-10.2,2.96-14.91,.49-.34-.17-.75-.15-1.07,.06-3.78,1.83-8.17,1.89-12,.16-1.11-.66-2.47-.73-3.64-.17-.94,.42-1.97,.61-3,.56-.19,.08-.44,.3-.48-.11Z"/></g></g></svg>