<?xml version="1.0" encoding="UTF-8"?><svg id="Layer_2" xmlns="http://www.w3.org/2000/svg" viewBox="0 0 99.59 99.6"><defs><style>.cls-1{fill:#fff;}.cls-2{fill:#ff4d77;}</style></defs><g id="Layer_1-2"><g><circle class="cls-2" cx="49.8" cy="49.8" r="49.79" transform="translate(-7.34 8.62) rotate(-9.22)"/><path class="cls-1" d="M29.45,63.83v-11.08c-.03-.86,.31-1.7,.93-2.29,6.09-6.07,12.16-12.15,18.22-18.26,.9-.9,1.5-.9,2.42,0l18.44,18.43c.46,.44,.71,1.05,.7,1.68v23.07c.09,1.13-.76,2.13-1.89,2.22-.09,0-.18,0-.27,0-3.16,0-6.32,0-9.48,0-1.1,.08-2.06-.76-2.13-1.86,0-.13,0-.26,.01-.39v-10.95c.17-1.17-.64-2.25-1.81-2.42-.21-.03-.43-.03-.64,0h-8.29c-1.19-.17-2.3,.66-2.47,1.85-.03,.22-.03,.43,0,.65v10.73c0,1.63-.75,2.39-2.38,2.4h-8.92c-1.16,.17-2.25-.63-2.42-1.79-.03-.22-.03-.43,0-.65-.04-3.77-.03-7.55-.03-11.34Z"/><path class="cls-1" d="M77.86,49.99c0,1-2,3-2.91,3-.52-.04-.99-.29-1.31-.7l-17-16.95-5.52-5.52c-1.15-1.15-1.56-1.16-2.69,0l-22.37,22.37c-1.13,1.12-1.74,1.12-2.86,0l-.84-.84c-.69-.47-.87-1.42-.4-2.11,.11-.16,.24-.29,.4-.4l10.89-10.89,15.18-15.18c1-1,1.68-1,2.66,0l26,26c.42,.28,.7,.72,.77,1.22Z"/><path class="cls-1" d="M29.45,32.13v-4.17c-.12-.79,.43-1.53,1.22-1.65,.13-.02,.26-.02,.39,0h3.69c.8-.1,1.53,.47,1.63,1.27,.02,.12,.02,.24,0,.36v3.21c.04,.8-.26,1.58-.83,2.14-1.33,1.32-2.64,2.67-4,4-.36,.46-.97,.62-1.51,.4-.46-.26-.71-.78-.62-1.3,.03-1.43,.02-2.84,.03-4.26Z"/><path class="cls-2" d="M49.77,49.4c-2.15-.02-3.87-1.78-3.85-3.93s1.78-3.87,3.93-3.85c2.15,.02,3.87,1.78,3.85,3.93-.02,2.15-1.78,3.87-3.93,3.85h0Z"/></g></g></svg>