<?xml version="1.0" encoding="UTF-8"?><svg id="Layer_2" xmlns="http://www.w3.org/2000/svg" viewBox="0 0 100.69 100.69"><defs><style>.cls-1{fill:#fff;}.cls-2{fill:#f9b125;}</style></defs><g id="Layer_1-2"><g><circle class="cls-2" cx="50.34" cy="50.34" r="50.33"/><path class="cls-1" d="M21.87,78.46c5.23-4.84,11-7.15,17.86-5.74,5,1,10.08,2,15.25,1.34,2.68-.35,5.33-1,8-1.37,6.2-.85,11.36,1.31,16,5.77H21.87Z"/><path class="cls-1" d="M28.26,35.84c1.95-5.63,5.91-10.34,11.13-13.22,.24-.17,.55-.2,.83-.1,5.65,1.94,10.38,5.89,13.29,11.1l-25.25,2.22Z"/><path class="cls-1" d="M36.42,22.96c-2.78,2.09-5.15,4.66-7,7.6-.9,1.43-1.62,2.97-2.15,4.58-.07,.5-.49,.87-1,.87-3.62,.3-7.24,.63-11.18,1,4.85-7.44,12.58-12.53,21.33-14.05Z"/><path class="cls-1" d="M43.11,22.26c8.93,.05,17.45,3.73,23.6,10.21l-6.21,.58c-1.64,.14-3.29,.24-4.93,.41-.52,.05-.85,0-1.13-.51-2.48-4.52-6.33-8.14-11-10.32-.1-.07-.18-.2-.33-.37Z"/><path class="cls-1" d="M54.04,35.76c-.34,2.77-.34,2.74-2.89,3-7.09,.61-14.17,1.23-21.26,1.88-.64,.06-.95,0-1.19-.7-1-2.77-1-2.81,1.87-3.07,7.51-.68,15-1.31,22.52-2,.89-.11,1.32,.02,.95,.89Z"/><path class="cls-1" d="M41.74,40.75c1.07-.33,.9,.54,1,1.1,.55,6.13,1.07,12.25,1.61,18.37,.33,3.72,.68,7.43,1,11.15,0,.35,.56,1.22-.37,1.11-.69-.08-1.84,.36-2-1-.2-2.24-.41-4.47-.61-6.71-.67-7.6-1.3-15.2-2-22.8-.21-1.35,.53-1.22,1.37-1.22Z"/><path class="cls-1" d="M74.43,60.55c-6-2-6.9-2-10.41,1.08-2.32-4.18-6.07-3.91-10-3,2.35-2.08,4.92-3.48,7.87-2.09,1.69,.82,3.62,1,5.43,.49,2.88-.5,5.76,.92,7.11,3.52Z"/><path class="cls-1" d="M65.14,47.42c3.62-2.75,6.8-2.78,10.05-.27,.36,.34,.88,.47,1.36,.34,4.12-1,6.87,.32,9.05,4.26-1-.54-1.86-1-2.75-1.46-2.54-1.18-5-1.16-7.24,.7-.35,.29-.59,.56-.9-.1-1.58-3.31-4.44-4-7.76-3.71-.5,.08-.99,.13-1.81,.24Z"/><path class="cls-1" d="M55.39,34.65l10.72-1c.08,0,.2-.06,.25,0,1,.76,.41,1.91,.65,2.86,.12,.43,.12,.82-.53,.87-3.12,.25-6.24,.52-9.36,.8-.33,.09-.67-.1-.76-.43v-.03c-.31-.98-.63-1.98-.97-3.07Z"/><path class="cls-1" d="M15.34,39.39c-.4-1,.21-1.31,1.3-1.38,3-.22,6.07-.5,9.1-.81,.78-.07,.89,.17,.81,.89-.28,2.8-.26,2.82-3,3.07-2.23,.21-4.47,.31-6.69,.6-1.16,.16-1.5-.26-1.47-1.29,0-.36-.02-.72-.05-1.08Z"/></g></g></svg>