<?xml version="1.0" encoding="UTF-8"?><svg id="Layer_2" xmlns="http://www.w3.org/2000/svg" viewBox="0 0 99.46 99.46"><defs><style>.cls-1{fill:#fff;}.cls-2{fill:#a936ad;}</style></defs><g id="Layer_1-2"><g><circle class="cls-2" cx="49.73" cy="49.73" r="49.73"/><path class="cls-1" d="M49.58,74.14c-7.14,.06-14.28,.18-21.42-.06-.46-2.71-.12-5.44-.18-8.15-.1-1.97-.07-3.94,.07-5.9,.53-.66,1.36-1.01,2.2-.93,6-.08,12-.08,18,0,.38,0,.76,.09,1.11,.25,.22,.1,.4,.27,.52,.48,.36,1.52,.42,3.1,.16,4.65-1.45,1.61-1.59,3.23,0,4.87,.04,1.62,.48,3.26-.46,4.79Z"/><path class="cls-1" d="M49.58,74.14v-5.48c.54-.94,1.73-1.81,.28-2.94-.18-.2-.29-.44-.32-.71v-5c.51-1,1.44-1,2.32-1,5.53,0,11.05-.07,16.58,0,2.33,0,2.75,.51,2.7,2.84-.09,4,.26,8.11-.19,12.15-7.09,.33-14.24,.2-21.37,.14Z"/><path class="cls-1" d="M28.2,60.1v14c-.54-.53-.26-1.21-.27-1.81v-10.87c0-1-.19-1.64-1.34-1.49s-1.59-.38-1.48-1.52c.09-.82,.09-1.66,0-2.48-.15-1.26,.25-1.91,1.61-1.81,1.06,.08,1.2-.58,1.2-1.46v-20.23c0-1.24-.45-1.6-1.55-1.44s-1.25-.36-1.28-1.31c-.09-3.46,.8-4.43,4.29-4.43l20.23,.06c.9,1.82,.9,3.95,0,5.77-.59,.4-1.29,.58-2,.51-5.53,0-11.05,.08-16.57,0-2.18,.2-2.26,.25-2.27,2.35v17.57c0,1.31,.33,2.24,1.68,2.59,.11,.06,.21,.15,.32,.21,1.76,1,10.3,.87,12-.22,1.84-.55,3.8-.5,5.62,.12,.29,2.84-1.07,4.52-3.77,4.54h-13.1c-1.31-.03-2.56,.07-3.32,1.35Z"/><path class="cls-1" d="M49.59,30.91v-5.62c7.13,0,14.26-.07,21.39,0,2.48,0,4.29,3.35,3,5.4-.29,.48-.8,.35-1.21,.3-1.14-.12-1.55,.25-1.54,1.47,.06,6.75,0,13.5,0,20.26,0,.72-.06,1.53,1,1.38,1.87-.27,1.93,.81,1.7,2.16-1.6,1-3,.48-4.39-.49-.53-.38-1-.87-.48-1.6,.85-.46,1.36-1.37,1.29-2.34v-18.23c0-1.64-.78-2.12-2.22-2-5.51,.1-11,0-16.52,0-.64,.05-1.27-.08-1.84-.37,0-.13-.1-.22-.18-.32Z"/><path class="cls-1" d="M69.08,54.28c1,2.19,3,1.94,4.91,1.94,0,.69,0,1.39,.07,2.08,.12,1.08-.17,1.74-1.41,1.58s-1.44,.51-1.42,1.58v10.81c0,.6,.26,1.26-.25,1.8v-12.39c0-1.39-.49-2-1.85-2h-18.11c-.5,.07-.99,.19-1.46,.37v-.4c-.82-1.67-.88-3.6-.18-5.32,.77-.74,1.75-.5,2.66-.55,1.42,.08,2.85,0,4.26-.23,.23-.06,.46-.1,.7-.13,3.64-.17,7.29-.15,10.93,.08,.47,.09,.89,.37,1.15,.78Z"/><path class="cls-1" d="M49.57,54.29v5.36H30.97c-.95-.04-1.89,.1-2.78,.43,.08-1.53,.92-2,2.4-2,4.91,.06,9.81,0,14.72,0,1.15,0,2.13-.14,1.95-1.6-.14-1.08,1.29-1.25,1.16-2.26,.34-.3,.85-.26,1.15,.07Z"/><path class="cls-1" d="M41.03,65.09c.61,.78,1.86,1.17,1.68,2.15-.17,.9-.98,1.54-1.9,1.5-.79-.13-1.68-.94-1.64-1.61,.05-.87,1.07-1.42,1.86-2.04Z"/><path class="cls-1" d="M49.56,65.01l.38,.38c.35,1.14,.21,2.38-.37,3.42v.1q-2.3-1.97-.01-3.9Z"/><path class="cls-1" d="M60.24,66.92c-.62,.87-1.11,1.75-2,1.83-.91-.01-1.69-.67-1.86-1.57-.11-.84,.91-1.67,1.63-1.83,1.02-.22,1.29,1.14,2.23,1.57Z"/><path class="cls-1" d="M49.57,68.81c.16-1.14-.38-2.35,.37-3.42,1.97,1.63,1.97,1.67-.37,3.42Z"/><path class="cls-2" d="M30.86,31.01l18.74-.1v.12c.51,.66,.72,1.5,.59,2.32,0,2.47-.06,4.94,.05,7.4,.06,1.37-.39,2.18-1.76,2.41-4.28,1.69-5.53,3.54-5.63,8.19,0,1,.34,2.2-.84,2.92-3.76,.26-7.53,.75-11.26-.29-.43-.78-.61-1.68-.49-2.57v-17.7c-.18-.94,.04-1.92,.6-2.7Z"/><path class="cls-1" d="M42.37,53.96v-3.24c0-4.27,1.61-6.5,5.69-8,.55-.23,1.18-.17,1.69,.14,.82,2.16,.36,4.4,.4,6.6,.08,4.28-.16,3.79,3.83,3.84,.87,0,1.8-.13,2.52,.59-2.28,.79-4.62,.13-6.92,.36h-6.87c-.16-.03-.28-.14-.34-.29Z"/><path class="cls-1" d="M30.86,31.01v23c0,.3,0,.48-.39,.32-2,.36-2.39-.6-2.35-2.45,.11-6.09,0-12.19,0-18.29q.01-2.68,2.74-2.58Z"/><path class="cls-1" d="M30.44,54.28l.39-.32h11.54l.33,.29c0,.89-.36,1.23-1.26,1.22h-9.73c-.85,0-1.35-.26-1.27-1.19Z"/><path class="cls-2" d="M49.56,42.78h-1.51c1.34-.16,1.63-.87,1.57-2.2-.16-3.17-.07-6.35-.07-9.53h18.74c.55,.72,.78,1.63,.64,2.52v17.91c.15,.89-.07,1.8-.62,2.52-3.85,.15-7.7,.17-11.55,0-.45-.84-.6-1.82-.43-2.76,.13-3.79-1.57-7.27-6-7.93-.31-.08-.59-.27-.77-.53Z"/><path class="cls-1" d="M68.31,53.96V30.96q2.71-.1,2.71,2.54v18.67c0,1.51-.31,2.3-1.95,2.06l-.76-.27Z"/><path class="cls-1" d="M49.56,42.78c3.82-.15,7.05,2.83,7.2,6.65,0,.04,0,.08,0,.13,.07,1.46,0,2.93,0,4.39-.09,0-.18,0-.27,0h-5.52c-1.09,0-1.43-.41-1.42-1.46,.04-3.24,.01-6.48,.01-9.71Z"/></g></g></svg>