<?xml version="1.0" encoding="UTF-8"?><svg id="Layer_2" xmlns="http://www.w3.org/2000/svg" viewBox="0 0 121.14 132.77"><defs><style>.cls-1{fill:#fff;}.cls-2{fill:#ec2028;}.cls-3{fill:#fee8b8;}.cls-4{fill:#f40b0b;}.cls-5{fill:#fdda8c;}.cls-6{fill:#f26f25;}.cls-7{fill:#fbb419;}</style></defs><g id="Layer_1-2"><g><path class="cls-4" d="M6.88,132.77c-1.34,0-2.66-.21-3.93-.63-1.09-.33-2.09-.88-2.95-1.63l.95-2c.78,.65,1.66,1.15,2.62,1.48,1.06,.4,2.18,.6,3.31,.59,.86,.03,1.72-.09,2.54-.35,.57-.18,1.07-.53,1.44-1,.31-.41,.47-.92,.46-1.43,.02-.56-.2-1.1-.6-1.49-.46-.4-.99-.71-1.57-.91-.69-.24-1.4-.45-2.12-.6-.77-.17-1.54-.37-2.32-.6-.74-.22-1.46-.51-2.13-.89-.63-.35-1.16-.85-1.55-1.45-.42-.71-.63-1.53-.59-2.35,0-.9,.25-1.79,.73-2.55,.55-.83,1.34-1.48,2.26-1.87,1.23-.51,2.56-.76,3.89-.71,1.05,0,2.09,.14,3.1,.41,.95,.24,1.85,.64,2.67,1.18l-.85,2c-.74-.5-1.57-.87-2.43-1.11-.81-.22-1.65-.34-2.49-.35-.85-.03-1.69,.11-2.49,.39-.57,.18-1.06,.53-1.43,1-.3,.42-.45,.92-.45,1.44-.02,.57,.2,1.12,.61,1.52,.45,.4,.98,.71,1.56,.89,.69,.24,1.4,.45,2.12,.61,.77,.18,1.54,.38,2.32,.6,.74,.2,1.46,.5,2.13,.87,.63,.35,1.16,.84,1.55,1.44,.43,.69,.63,1.5,.6,2.31,0,.9-.26,1.78-.75,2.53-.57,.84-1.37,1.49-2.3,1.87-1.23,.54-2.57,.81-3.91,.79Z"/><path class="cls-4" d="M22.94,132.71c-1.06,.02-2.1-.2-3.06-.64-.88-.43-1.6-1.13-2.05-2-.53-1.03-.78-2.17-.74-3.32v-7.83h2.47v7.54c-.07,1.09,.29,2.17,1,3,.72,.7,1.71,1.06,2.71,1,.78,.02,1.54-.17,2.23-.53,.63-.35,1.14-.89,1.46-1.54,.36-.76,.54-1.6,.52-2.45v-7h2.46v13.6h-2.33v-3.67l.38,1c-.44,.89-1.13,1.62-2,2.1-.93,.51-1.99,.77-3.05,.74Z"/><path class="cls-4" d="M41.86,118.83c1.02-.02,2.02,.2,2.94,.64,.85,.43,1.55,1.11,2,1.95,.51,1.03,.76,2.16,.72,3.31v7.83h-2.47v-7.54c.08-1.09-.28-2.17-1-3-.72-.7-1.71-1.06-2.71-1-.79-.02-1.57,.16-2.28,.51-.64,.34-1.17,.86-1.5,1.51-.38,.78-.56,1.63-.53,2.49v7h-2.46v-13.6h2.36v3.67l-.39-1c.45-.89,1.17-1.62,2.06-2.08,1.01-.5,2.13-.73,3.26-.69Z"/><path class="cls-4" d="M54.69,132.56l-5-13.6h2.33l4.49,12.32h-1.1l4.64-12.32h2.08l4.57,12.32h-1.08l4.59-12.32h2.21l-5.08,13.6h-2.36l-4.29-11.24h.72l-4.36,11.24h-2.36Z"/><path class="cls-4" d="M80.33,132.71c-1.27,.02-2.52-.28-3.63-.89-1.05-.58-1.92-1.44-2.53-2.48-.62-1.09-.94-2.33-.92-3.58-.02-1.25,.29-2.49,.92-3.58,.61-1.03,1.48-1.87,2.52-2.45,1.11-.61,2.37-.92,3.64-.9,1.27-.02,2.52,.29,3.63,.89,1.05,.57,1.92,1.42,2.52,2.45,1.21,2.24,1.21,4.94,0,7.18-.6,1.04-1.47,1.89-2.52,2.47-1.11,.61-2.36,.91-3.63,.89Zm0-2.15c.82,.01,1.63-.19,2.35-.59,.69-.39,1.26-.97,1.63-1.68,.4-.78,.61-1.65,.59-2.53,.02-.88-.18-1.75-.59-2.53-.38-.69-.94-1.27-1.63-1.65-.72-.4-1.53-.61-2.35-.59-.82-.02-1.62,.19-2.33,.59-.69,.39-1.26,.96-1.65,1.65-.42,.77-.63,1.65-.61,2.53-.02,.88,.19,1.75,.61,2.53,.38,.7,.95,1.28,1.65,1.68,.71,.4,1.51,.6,2.33,.59Z"/><path class="cls-4" d="M90.8,132.56v-13.6h2.36v3.69l-.23-.92c.36-.92,1.03-1.68,1.9-2.16,1.02-.52,2.15-.78,3.29-.74v2.39h-.57c-1.16-.06-2.3,.37-3.13,1.18-.83,.94-1.24,2.17-1.16,3.42v6.77l-2.46-.03Z"/><path class="cls-4" d="M101.15,132.56v-19h2.46v19h-2.46Z"/><path class="cls-4" d="M113.92,132.71c-1.23,.02-2.44-.28-3.52-.87-1.03-.57-1.88-1.41-2.45-2.44-1.2-2.27-1.2-5,0-7.27,.57-1.02,1.42-1.86,2.45-2.43,1.08-.59,2.29-.89,3.52-.87,1.09-.01,2.16,.25,3.11,.77,.95,.54,1.72,1.34,2.22,2.31,.6,1.19,.89,2.52,.84,3.85,.05,1.33-.23,2.65-.81,3.85-.49,.97-1.25,1.78-2.2,2.32-.97,.53-2.06,.8-3.16,.78Zm.21-2.15c.81,.01,1.61-.19,2.32-.59,.7-.39,1.27-.98,1.65-1.68,.41-.78,.62-1.65,.6-2.53,.02-.88-.18-1.75-.6-2.53-.39-.69-.96-1.26-1.65-1.65-1.45-.79-3.2-.79-4.65,0-.69,.39-1.26,.96-1.65,1.65-.42,.77-.63,1.65-.61,2.53-.02,.88,.19,1.75,.61,2.53,.38,.7,.95,1.28,1.65,1.68,.71,.4,1.51,.6,2.33,.59Zm4.65,2v-3.67l.15-3.16-.26-3.15v-9.06h2.47v19l-2.36,.04Z"/><path class="cls-1" d="M59.19,0h4.4c.76,.08,1.52,.1,2.28,.08,2.24,.09,4.47,.37,6.66,.86,7.1,1.53,13.8,4.53,19.67,8.8,9.07,6.57,15.8,15.87,19.22,26.54,.97,2.97,1.64,6.04,2,9.15,.17,1.62,.23,3.25,.18,4.88v5.55c-.03,.19-.03,.39,0,.58-.03,2.48-.35,4.94-.94,7.35-.84,3.74-2.09,7.37-3.73,10.83-4.01,8.51-10.22,15.78-18,21.07-4.36,2.96-9.13,5.25-14.17,6.79-3.1,.95-6.28,1.61-9.51,1.95-.76,.08-1.53,.08-2.29,.1-1.68,.04-3.35,.06-5,.06-6.57-.03-13.07-1.41-19.09-4.05-4.02-1.7-7.81-3.91-11.27-6.57-2.17-1.65-4.21-3.47-6.09-5.45-3.12-3.27-5.81-6.92-8-10.87-2.68-4.83-4.57-10.05-5.61-15.47-.41-1.92-.63-3.88-.68-5.84v-1.39c-.06-1.79-.05-3.57,0-5.35,.05-4.07,.67-8.11,1.86-12,.88-3.06,2.03-6.03,3.46-8.87,1.59-3.18,3.5-6.2,5.7-9,1.65-2.09,3.46-4.06,5.4-5.88,3.36-3.14,7.12-5.83,11.17-8,4.6-2.46,9.54-4.21,14.66-5.21,1.84-.36,3.71-.58,5.59-.63,.71,.04,1.42,.04,2.13,0Z"/><path class="cls-1" d="M9.05,50.27c.18-.24,0-.56,.19-.8,.03,.3,.03,.59,0,.89-.09,1.31-.09,2.61,0,3.92v.79c-.16-.25,0-.56-.19-.8v-4Z"/><path class="cls-1" d="M113.57,50.13h.09v4.2h-.09c-.03-.28-.03-.57,0-.85v-2.83c-.02-.13-.01-.31,0-.52Z"/><path class="cls-1" d="M62.66,17.29c2.19,.11,4.37,.41,6.51,.87,5.18,1.18,10.03,3.54,14.15,6.89,1.21,.98,2.36,2.05,3.44,3.18,1.93,2.04,3.61,4.3,5,6.74,1.56,2.74,2.74,5.67,3.5,8.73,.35,1.41,.61,2.83,.77,4.27,.2,1.55,.28,3.11,.26,4.67-.04,1.99-.25,3.98-.6,5.94-.96,5.06-3.03,9.84-6.07,14-1.36,1.87-2.9,3.61-4.61,5.17-1.97,1.82-4.15,3.4-6.49,4.71-3,1.7-6.25,2.94-9.62,3.67-1.22,.27-2.45,.44-3.69,.59-1.84,.2-3.69,.25-5.53,.17-1.08-.03-2.16-.13-3.22-.31-7.89-1.15-15.16-4.97-20.59-10.81-3.99-4.33-6.83-9.59-8.25-15.3-.36-1.47-.63-2.96-.79-4.46-.12-.86-.17-1.72-.17-2.59,.27-.06,.39,.14,.5,.32,.9,1.36,1.93,2.63,3.09,3.78,1.56,1.57,3.32,2.94,5.23,4.06,2.01,1.18,4.17,2.09,6.42,2.7,1.74,.45,3.52,.73,5.31,.84,5.34,.3,10.64-1.07,15.17-3.9,2.1-1.33,4-2.94,5.65-4.79,1.22-1.36,2.29-2.86,3.17-4.47,1.58-2.78,2.62-5.83,3.06-9,.53-3.64,.27-7.34-.75-10.87-1.03-3.55-2.8-6.83-5.19-9.64-1.46-1.71-3.14-3.22-5-4.48-.23-.16-.5-.27-.63-.54-.03-.04-.04-.09-.03-.14Z"/><path class="cls-1" d="M62.66,17.36c.66,.33,1.27,.74,1.83,1.21,1.01,.77,1.95,1.61,2.83,2.52,2.52,2.62,4.48,5.73,5.73,9.14,.64,1.75,1.1,3.56,1.37,5.4,.2,1.43,.27,2.88,.23,4.33-.12,5.52-2,10.85-5.36,15.23-1.59,2.08-3.48,3.91-5.62,5.42-2.81,2.01-6,3.44-9.37,4.18-1.38,.32-2.78,.51-4.19,.59-.67,0-1.33,.09-2,.07-6.56-.12-12.84-2.71-17.58-7.25-1.38-1.3-2.6-2.76-3.66-4.33-.1-.14-.2-.27-.29-.41v-.15c-.13-.34-.2-.7-.21-1.07-.07-3.88,.55-7.75,1.83-11.42,1.31-3.89,3.32-7.51,5.92-10.69,2.91-3.61,6.52-6.61,10.6-8.82,3.63-1.98,7.59-3.28,11.68-3.86,1.63-.22,3.27-.35,4.92-.39,.47-.03,.93,.08,1.34,.3Z"/><path class="cls-1" d="M62.66,17.36c-1.3-.09-2.6-.07-3.89,.06-2.82,.19-5.61,.74-8.29,1.65-9,2.95-16.4,9.45-20.47,18-1.54,3.15-2.58,6.53-3.08,10-.29,2.06-.41,4.15-.34,6.23-.14-.12-.25-.27-.33-.44-7.5-12.33-3.58-28.39,8.75-35.89,4.52-2.75,9.76-4.06,15.04-3.76,4.43,.23,8.72,1.61,12.45,4l.17,.11s-.01,.03-.01,.04Z"/><path class="cls-1" d="M113.54,55.95c.05,.18,.02,.37-.06,.53-.05-.18-.02-.37,.06-.53Z"/><path class="cls-7" d="M59.36,4.01h4.06c.7,.07,1.4,.1,2.1,.08,2.07,.07,4.13,.34,6.15,.79,6.55,1.41,12.74,4.18,18.16,8.13,2.53,1.83,4.87,3.9,7,6.18,2.57,2.75,4.81,5.79,6.68,9.06,1.68,2.94,3.04,6.04,4.07,9.26,.9,2.74,1.53,5.57,1.86,8.44,.14,1.5,.2,3,.16,4.51v5.12c-.02,.18-.02,.36,0,.54-.03,2.29-.32,4.57-.87,6.79-1.59,7.12-4.78,13.78-9.33,19.48-1.4,1.77-2.92,3.45-4.56,5-5.46,5.19-12.05,9.04-19.25,11.24-2.86,.88-5.8,1.49-8.78,1.8-.7,.07-1.41,.08-2.12,.09-1.55,.04-3.1,.06-4.65,.06-6.07-.03-12.07-1.3-17.63-3.74-3.71-1.58-7.2-3.62-10.4-6.07-2-1.51-3.88-3.19-5.62-5-2.87-3.01-5.35-6.37-7.37-10-2.47-4.46-4.22-9.28-5.18-14.28-.37-1.77-.59-3.58-.63-5.39v-1.29c-.06-1.64-.05-3.29,0-4.93,.04-3.75,.62-7.48,1.71-11.07,.81-2.82,1.88-5.57,3.2-8.19C24.87,17.18,37.46,7.62,52.22,4.74c1.7-.34,3.43-.54,5.16-.59,.66,0,1.32-.04,1.98-.14Z"/><path class="cls-3" d="M13.05,50.42c.16-.22,0-.51,.17-.74,.03,.28,.03,.55,0,.83-.08,1.2-.08,2.41,0,3.61v.74c-.15-.23,0-.52-.17-.75v-3.69Z"/><path class="cls-5" d="M109.57,50.32h.08v3.88h-.08c-.03-.26-.03-.52,0-.78v-2.62c0-.16,0-.32,0-.48Z"/><path class="cls-6" d="M62.56,19.98c2.02,.1,4.03,.37,6,.8,4.79,1.08,9.26,3.25,13.07,6.35,1.13,.91,2.19,1.89,3.18,2.94,1.77,1.88,3.31,3.96,4.58,6.21,1.44,2.53,2.53,5.24,3.23,8.07,.66,2.7,1,5.47,1,8.25-.05,1.86-.24,3.7-.57,5.53-.88,4.7-2.79,9.14-5.61,13-1.26,1.72-2.69,3.32-4.25,4.77-4.18,3.85-9.32,6.52-14.88,7.73-1.12,.25-2.26,.41-3.4,.55-1.7,.17-3.41,.23-5.11,.16-1.01-.03-2.01-.13-3-.29-1.99-.29-3.95-.76-5.86-1.41-10.32-3.56-18.14-12.11-20.77-22.7-.34-1.35-.58-2.73-.73-4.12-.11-.79-.16-1.59-.16-2.39,.26-.06,.36,.13,.47,.29,.82,1.26,1.78,2.43,2.85,3.49,1.44,1.46,3.06,2.72,4.83,3.75,1.85,1.09,3.85,1.93,5.93,2.49,1.6,.42,3.24,.68,4.9,.78,4.93,.28,9.82-.98,14-3.6,1.94-1.22,3.69-2.71,5.22-4.42,1.13-1.26,2.11-2.65,2.93-4.13,1.46-2.57,2.42-5.4,2.82-8.33,.48-3.34,.25-6.75-.69-10-.95-3.27-2.58-6.31-4.79-8.9-1.34-1.58-2.9-2.98-4.62-4.14-.24-.11-.44-.28-.58-.5-.06-.07-.05-.17,.01-.23Z"/><path class="cls-2" d="M62.56,20.04c.6,.3,1.17,.66,1.69,1.09,.93,.71,1.8,1.49,2.62,2.32,2.34,2.41,4.15,5.29,5.32,8.44,1.08,2.87,1.58,5.93,1.48,9-.04,2.24-.41,4.47-1.08,6.61-.84,2.69-2.15,5.22-3.87,7.45-1.47,1.92-3.22,3.6-5.19,5-2.59,1.86-5.54,3.18-8.66,3.86-1.27,.3-2.57,.48-3.87,.54-.61,0-1.22,.09-1.84,.07-6.06-.12-11.85-2.5-16.23-6.69-1.26-1.21-2.4-2.55-3.38-4l-.27-.38v-.14c-.12-.32-.19-.66-.19-1-.07-3.59,.5-7.15,1.68-10.54,1.2-3.6,3.05-6.94,5.46-9.87,2.69-3.34,6.01-6.11,9.78-8.15,3.35-1.8,7-3,10.77-3.52,1.51-.2,3.02-.32,4.54-.36,.43-.03,.86,.07,1.24,.27Z"/><path class="cls-1" d="M62.56,20.04c-1.2-.08-2.4-.07-3.59,.05-2.61,.18-5.18,.69-7.66,1.53-8.31,2.72-15.14,8.72-18.9,16.61-1.43,2.91-2.39,6.04-2.84,9.25-.27,1.9-.37,3.83-.31,5.75-.13-.11-.23-.25-.31-.4-1.73-2.84-2.85-6.01-3.29-9.31-1.79-13.2,7.46-25.35,20.66-27.14,5.6-.76,11.3,.48,16.09,3.49l.15,.11s-.01,.04,0,.06Z"/><path class="cls-5" d="M109.53,55.67c.05,.16,.03,.34-.05,.49-.04-.16-.03-.34,.05-.49Z"/></g></g></svg>