<?xml version="1.0" encoding="UTF-8"?><svg id="Layer_2" xmlns="http://www.w3.org/2000/svg" viewBox="0 0 98.09 98.09"><defs><style>.cls-1{fill:#fff;}.cls-2{fill:#488cf1;}</style></defs><g id="Layer_1-2"><g><circle class="cls-2" cx="49.05" cy="49.05" r="49.04" transform="translate(-7.13 8.35) rotate(-9.08)"/><path class="cls-1" d="M75.72,53.4c-2.06-1.48-4.23-1.34-6.4-1.34-7.41,0-14.83,.1-22.25,0-2.16-.05-2.54,.67-2.5,2.63,.12,5.91,0,11.83,0,17.75,0,.78,.28,2-.83,2-1.35,.09-1.06-1.17-1.07-2,0-4.2-.09-8.39,0-12.58,0-1.64-.5-2-2-2-4.56,.1-9.14,.09-13.7,0-1.44,0-1.93,.32-1.89,1.84,.11,4.34,.08,8.69,0,13,0,.92,.63,2.52-.89,2.57s-1-1.58-1-2.47V39.09c0-1.14,.58-2.56-1.44-2.89-.82-.14-.6-1.1,0-1.6,3.79-3.18,7.59-6.35,11.39-9.5,.78-.65,1.37-.14,2,.35l10.53,8.78c1.08,.92,1.58,1.78-.36,2.2-.7,.16-.69,.68-.69,1.22v5.39c0,1,.51,1.29,1.39,1.22,9.45-.76,18.06,3,27,5,2.11,.48,2.88,1.82,2.71,4.14Z"/><path class="cls-1" d="M62.22,61.86h-9.19c-2.8,0-4.48-1.56-4.48-3.93s1.66-3.91,4.47-3.93c6.13-.04,12.26-.04,18.39,0,2.68,0,4.49,1.74,4.42,4s-1.83,3.78-4.41,3.82c-3.07,.08-6.13,.04-9.2,.04Z"/><path class="cls-1" d="M72.32,79.38c-1.55,.05-3.07-.4-4.34-1.28-1.07-.89-2.61-.92-3.72-.08-2.38,1.75-5.62,1.75-8,0-1.1-.84-2.64-.84-3.74,0-2.38,1.76-5.62,1.76-8,0-1.1-.85-2.63-.85-3.73,0-2.38,1.76-5.62,1.76-8,0-1.19-.86-2.81-.8-3.93,.14-1.88,1.32-4.32,1.55-6.41,.6-.68-.28-1.52-.61-1.1-1.59s1.09-.54,1.73-.27c1.68,.75,3.62,.52,5.08-.6,1.67-1.27,3.97-1.27,5.64,0,1.73,1.32,4.13,1.32,5.86,0,1.73-1.32,4.12-1.32,5.85,0,1.73,1.31,4.12,1.31,5.85,0,1.73-1.32,4.12-1.32,5.85,0,1.73,1.32,4.12,1.32,5.85,0,1.71-1.35,4.13-1.35,5.84,0,1.35,1,3.12,1.23,4.68,.62,.79-.28,1.72-.8,2.05,.34s-.81,1.29-1.54,1.57c-.57,.23-1.17,.41-1.77,.55Z"/><path class="cls-1" d="M55.36,63.76h9.79c.74-.02,1.46,.25,2,.76,1.8,1.57,3.6,3.15,5.51,4.57,1.39,1,1.37,2.2,.72,3.52-.69,1.63-2.24,2.72-4,2.82-1.86,.13-3.71-.46-4.35-2.13-1.17-3-3.81-4.46-6-6.43-.99-.95-2.11-1.81-3.67-3.11Z"/><path class="cls-1" d="M33.95,36.47h7.18c1.11,0,1.66,.21,1.58,1.47-.09,1.64-.09,3.29,0,4.93,.08,1.25-.47,1.52-1.58,1.47-1.64-.07-3.29,0-4.93,0-.55,0-1.1,.1-1.2,.75-.11,.51,.21,1.01,.71,1.12,.04,0,.07,.01,.11,.02,2,.46,.87,2,1,3.07,.12,1.37-1.13,.8-1.83,.85-1.04,.11-2.09,.11-3.13,0-.91-.12-2.43,.74-2.6-.74-.12-1.06-1.2-3,1.23-3.31,.37-.12,.59-.52,.49-.9-.1-.64-.57-.83-1.14-.84-1.12,0-2.25-.07-3.37,0s-1.38-.33-1.28-1.29c0-.08,0-.15,0-.23q-.31-6.33,5.88-6.33l2.88-.04Z"/><path class="cls-1" d="M42.65,48.19c.39,1.62-.31,2-1.87,2.05-1.77,0-2.06-.59-2.09-2.19,0-1.76,.75-1.84,2.13-1.89,1.6-.05,2.23,.43,1.83,2.03Z"/><path class="cls-1" d="M27.11,48.11c-.3,.7,.57,2-1,2s-.92-1.27-.93-2-.62-2,1-1.91c1.47,.1,.65,1.25,.93,1.91Z"/><rect class="cls-2" x="25.06" y="36.88" width="17.65" height="10.78"/></g></g></svg>