<?xml version="1.0" encoding="UTF-8"?><svg id="Layer_2" xmlns="http://www.w3.org/2000/svg" viewBox="0 0 1106.95 1251.31"><defs><style>.cls-1{fill:none;stroke:#f4d74d;stroke-linecap:round;stroke-miterlimit:10;stroke-width:3px;}</style></defs><g id="Layer_1-2"><g><path class="cls-1" d="M553.17,809.19l-42.44,161.26s102,126.82,61,170.34-59.86,27.54-59.85,85.58-207.27-20.39-207.27-20.39c23.41-5.32,84.15-234.15-38.49-265.09-83.95-21.17-56.54-66.39-55.58-80.3,0,0,15.53-43.09-36.38-52.17s92.44-183,92.44-183"/><path class="cls-1" d="M551.48,1161.49c10.56,21.68,153.48,96.8,215.11,87.53s99.63-61.39,176-55.34,62.84-129.05,90.49-141.36c49.6-22.08,32.66-73.66,45.14-98.72,80-160.68-36.22-138.17-92.9-151.68-24.24-5.77-291,29.95-390.76,18.12s-99.83-95.09-99.83-95.09c-.12-.25-69.3-313.07-69.16-312.44"/><path class="cls-1" d="M984.21,801.02s-43.26-167.6-148.69-187c-101.48-18.75-384.42-205.35-410.12-203.1-.73-8.64-38.54-17.77-47.17,7.71-10.63,31.38-103.56,257.74-123.73,195.32-20.41-63.18-2.17-160.8-13.75-160.24-6.35,.3-11.39-207-88.86-173.47C36.58,330.24-50.69,124.62,37.67,50.54,105.67-6.46,128.4,1.93,128.4,1.93"/></g></g></svg>