<?xml version="1.0" encoding="UTF-8"?><svg xmlns="http://www.w3.org/2000/svg" viewBox="0 0 47.26 75.32"><defs><style>.cls-1{fill:#542a33;}.cls-2{fill:#ff978d;}.cls-3{isolation:isolate;}.cls-4{mix-blend-mode:soft-light;}.cls-5{fill:#d33b2b;}.cls-6{fill:#eb513e;}</style></defs><g class="cls-3"><g id="Layer_2"><g id="Layer_1-2"><g><path class="cls-5" d="M6.09,.79c.83-.21,10.45-2.21,14.36,6.84,3.91,9.05-.35,20.4-.35,20.4l1.54-1.48c2.92-9.45,1.76-19.75-4.36-24.31C11.72-1.9,5.26,1,6.09,.79Z"/><path class="cls-5" d="M42.37,2.72c-.81-.22-10.24-2.3-15.01,6.72-4.77,9.02-1.58,20.39-1.58,20.39l-1.4-1.49c-2.03-9.47,.11-19.76,6.66-24.26C37,0,43.17,2.94,42.37,2.72Z"/><g><g><path class="cls-5" d="M5.94,32.77s1.32,7.67,11.51,8.08l-.06,2.12s-10.93,.44-11.45-10.2Z"/><path class="cls-5" d="M4.54,36.67s1.32,7.67,11.51,8.08l-.06,2.12s-10.93,.44-11.45-10.2Z"/><path class="cls-5" d="M7.6,60.02s1.49-6.36,10.08-6.02l.05-1.79s-9.17-1.1-10.13,7.81Z"/><path class="cls-5" d="M6.61,56.64s1.49-6.36,10.08-6.02l.05-1.79s-9.17-1.1-10.13,7.81Z"/></g><g><path class="cls-5" d="M38.92,34.07s-1.76,7.55-11.96,7.15l-.06,2.12s10.88,1.31,12.02-9.27Z"/><path class="cls-5" d="M40.09,38.08s-1.76,7.55-11.96,7.15l-.06,2.12s10.88,1.31,12.02-9.27Z"/><path class="cls-5" d="M35.69,61.13s-1.11-6.47-9.7-6.81l.05-1.79s9.21-.37,9.65,8.6Z"/><path class="cls-5" d="M36.87,57.84s-1.11-6.47-9.7-6.81l.05-1.79s9.21-.37,9.65,8.6Z"/></g></g><g><g><path class="cls-5" d="M13.79,14.5c-1.45,4.27-3.79,4.44-3.79,4.44l-1.12,6.77c4.86,.21,8.28-6.93,4.91-11.2Z"/><path class="cls-5" d="M11.58,24.11l-7.4-.03s2.32,12.14,13.26,12.61c.09-2.03,.1-2.43,.1-2.43,0,0-6.36-.98-5.97-10.16Z"/><path class="cls-5" d="M9.89,4.44S.46,6.74,.01,17.14c-.36,8.37,7.96,11.55,10.67,6.82,4.24-7.4-6-11.49-.79-19.52Z"/></g><g><path class="cls-5" d="M33.74,15.35c1.08,4.38,3.4,4.75,3.4,4.75l.54,6.84c-4.86-.21-7.66-7.61-3.94-11.58Z"/><path class="cls-5" d="M35.12,25.12l7.37,.61s-3.35,11.9-14.29,11.43l.1-2.43s6.42-.43,6.82-9.61Z"/><path class="cls-5" d="M38.48,5.67s9.2,3.1,8.76,13.5c-.36,8.37-8.92,10.82-11.21,5.88-3.59-7.73,6.96-10.93,2.46-19.38Z"/></g></g><path class="cls-6" d="M22.97,23.51s-16.68,10.3-6.64,26.25c3.04,.13,5.5,.24,5.5,.24,0,0,2.46,.11,5.5,.24,11.37-15.03-4.36-26.72-4.36-26.72Z"/><path class="cls-6" d="M16.89,47.83c-4.06,4.67,1.3,10.65,1.3,10.65l4.56-.47,4.56-.47s4.02-6.96-.91-10.69c-2.91-2.2-7.11-1.77-9.51,.99Z"/><path class="cls-6" d="M17.29,56.85c-2.19,4.81,3.65,8.4,3.65,8.4l3.62-1.49,3.62-1.49s1.61-6.67-3.34-8.53c-2.92-1.1-6.25,.28-7.55,3.12Z"/><path class="cls-6" d="M21.24,61.13c-2.55,3.01-.24,6.57,2.65,7.35,2.89,.78,3.83,1.2,5.94,3.47s4.19,0,4.19,0c0,0,1.9-2.43-.69-4.14-2.59-1.71-3.16-2.56-4.4-5.28-1.24-2.72-5.14-4.41-7.69-1.4Z"/><g><path class="cls-6" d="M30.97,71.95l-5.41-4.58s1.08,7.99,4.29,7.95c1.72-.02,2.43-2.25,1.12-3.37Z"/><path class="cls-6" d="M33.52,68.93l-5.41-4.58s8.06-.26,8.55,2.92c.26,1.7-1.82,2.77-3.14,1.66Z"/></g><g><path class="cls-1" d="M19.48,25.26c-.03,.69,.51,1.27,1.19,1.3s1.27-.51,1.3-1.19-.51-1.27-1.19-1.3-1.27,.51-1.3,1.19Z"/><path class="cls-1" d="M23.81,25.45c-.03,.69,.51,1.27,1.19,1.3,.69,.03,1.27-.51,1.3-1.19,.03-.69-.51-1.27-1.19-1.3s-1.27,.51-1.3,1.19Z"/></g><path class="cls-5" d="M27.68,48.84c-.68,.58-1.49,1-2.34,1.3-.85,.3-1.75,.47-2.65,.51-.9,0-1.81-.04-2.68-.29-.44-.09-.86-.27-1.28-.41-.41-.17-.81-.38-1.2-.58,.85,.28,1.68,.57,2.55,.71,.86,.18,1.73,.23,2.6,.2,.87,0,1.73-.18,2.58-.41,.84-.24,1.66-.58,2.42-1.03Z"/><path class="cls-5" d="M27.68,29.55c-.68,.58-1.49,1-2.34,1.3-.85,.3-1.75,.47-2.65,.51-.9,0-1.81-.04-2.68-.29-.44-.09-.86-.27-1.28-.41-.41-.17-.81-.38-1.2-.58,.85,.28,1.68,.57,2.55,.71,.86,.18,1.73,.23,2.6,.2,.87,0,1.73-.18,2.58-.41,.84-.24,1.66-.57,2.42-1.03Z"/><path class="cls-5" d="M27.2,56.87c-.61,.53-1.35,.91-2.11,1.19-.77,.27-1.58,.43-2.4,.47-.82,0-1.64-.04-2.43-.27-.4-.08-.78-.25-1.16-.38-.37-.16-.73-.35-1.09-.53,.77,.25,1.52,.5,2.31,.63,.78,.16,1.57,.2,2.35,.18,.79,0,1.57-.16,2.33-.37,.76-.21,1.5-.51,2.2-.92Z"/><path class="cls-5" d="M27.91,62.1c-.81,1.15-2.09,1.92-3.44,2.32-.69,.16-1.39,.29-2.1,.26-.7,0-1.4-.14-2.07-.33,.7,.04,1.38,.1,2.06,.04,.68-.02,1.35-.15,2-.33,.66-.16,1.28-.45,1.87-.77,.6-.33,1.16-.72,1.67-1.19Z"/><path class="cls-5" d="M29.69,65.25c-.03,.82-.47,1.59-1.05,2.18-.31,.27-.64,.54-1.02,.71-.37,.18-.77,.3-1.17,.35,.71-.38,1.39-.77,1.92-1.32,.56-.53,.98-1.18,1.31-1.92Z"/><path class="cls-5" d="M28.07,67.7c.95,1.73,2.1,3.37,3.39,4.89-1.39-1.44-2.64-3-3.72-4.7l.32-.18Z"/><path class="cls-5" d="M29.34,66.06c.52,.12,.94,.33,1.37,.57,.42,.23,.83,.5,1.21,.78,.77,.56,1.49,1.19,2.17,1.86-.72-.62-1.47-1.2-2.27-1.71-.4-.25-.81-.49-1.23-.68-.42-.19-.87-.38-1.29-.45l.05-.37Z"/><g class="cls-4"><path class="cls-2" d="M44.05,12.32c.57,1.11,.98,2.3,1.28,3.52,.3,1.22,.46,2.48,.4,3.75-.08,1.26-.37,2.53-1.01,3.64-.68,1.1-1.69,1.91-2.8,2.47,1.04-.7,1.96-1.54,2.55-2.61,.56-1.09,.84-2.3,.89-3.52,.09-1.22-.07-2.46-.31-3.67-.24-1.21-.58-2.41-1.01-3.58Z"/></g><g class="cls-4"><path class="cls-2" d="M27.83,30.37c.73,1.5,1.29,3.1,1.68,4.73,.39,1.63,.59,3.32,.53,5.02-.08,1.69-.49,3.39-1.35,4.86-.44,.73-.99,1.38-1.61,1.95-.63,.57-1.36,1-2.1,1.38,1.44-.85,2.67-2.03,3.46-3.48,.78-1.45,1.17-3.09,1.22-4.74,.1-1.65-.11-3.31-.43-4.94-.34-1.63-.79-3.24-1.4-4.79Z"/></g></g></g></g></g></svg>