<?xml version="1.0" encoding="UTF-8"?><svg id="Layer_2" xmlns="http://www.w3.org/2000/svg" viewBox="0 0 95.16 85.68"><defs><style>.cls-1{fill:#374645;}.cls-2{fill:#4c3c3a;}.cls-3{fill:#ff8436;}.cls-4{fill:#f25941;}.cls-5{fill:#f8f5f4;}.cls-6{fill:#463f40;}</style></defs><g id="Layer_1-2"><g><g><polygon class="cls-4" points="3.59 43.9 3.59 83.35 34.15 83.35 34.15 41.77 3.59 43.9"/><polygon class="cls-3" points="90.11 42.09 61.73 14.86 34.15 42.09 34.15 85.36 90.11 85.36 90.11 42.09"/><path class="cls-2" d="M94.16,41.48l-28.98-29.04c-.8-.8-1.9-1.11-2.93-.96-.9-.14-1.83,.09-2.59,.67l-30.49,2.98L2.04,39.86l-.28-.02s-.44,.39-.87,1.08l-.22,.2h.1c-.44,.76-.84,1.81-.75,3.09,.19,2.66,2.16,4,3.58,4.07,1.41,.07,28.2,0,28.2,0,.88,0,1.76-.34,2.43-1.01l28.02-28.07,27.07,27.12c.67,.67,1.55,1.01,2.43,1.01s1.75-.33,2.42-1c1.34-1.34,1.34-3.51,0-4.85Z"/></g><path class="cls-2" d="M.54,40.93s-1.18,2.5,0,4.35c1.18,1.85,3.23,2.22,3.23,2.22H31.83l2.33-5.73L.54,40.93Z"/><rect class="cls-1" x="43.91" y="67.03" width="11.23" height="18.65" rx=".88" ry=".88"/><g><rect class="cls-1" x="60.83" y="68" width="9.64" height="9.64" rx="1.32" ry="1.32"/><rect class="cls-5" x="61.77" y="68.93" width="7.77" height="7.77" rx="1.32" ry="1.32"/><rect class="cls-1" x="65.29" y="68" width=".73" height="8.71"/><rect class="cls-1" x="60.93" y="72.45" width="8.71" height=".73"/></g><g><rect class="cls-1" x="76.03" y="68" width="9.64" height="9.64" rx="1.32" ry="1.32"/><rect class="cls-5" x="76.97" y="68.93" width="7.77" height="7.77" rx="1.32" ry="1.32"/><rect class="cls-1" x="80.49" y="68.47" width=".73" height="8.71"/><rect class="cls-1" x="76.5" y="72.45" width="8.71" height=".73"/></g><g><rect class="cls-1" x="7.73" y="64.11" width="9.64" height="9.64" rx="1.32" ry="1.32"/><rect class="cls-5" x="8.67" y="65.05" width="7.77" height="7.77" rx="1.32" ry="1.32"/><rect class="cls-1" x="12.19" y="64.58" width=".73" height="8.71"/><rect class="cls-1" x="8.2" y="68.57" width="8.71" height=".73"/></g><g><rect class="cls-1" x="20.48" y="64.11" width="9.64" height="9.64" rx="1.32" ry="1.32"/><rect class="cls-5" x="21.41" y="65.05" width="7.77" height="7.77" rx="1.32" ry="1.32"/><rect class="cls-1" x="24.93" y="64.58" width=".73" height="8.71"/><rect class="cls-1" x="20.95" y="68.57" width="8.71" height=".73"/></g><g><rect class="cls-1" x="58.61" y="33.93" width="9.64" height="9.64" rx="1.32" ry="1.32"/><rect class="cls-5" x="59.54" y="34.86" width="7.77" height="7.77" rx="1.32" ry="1.32"/><rect class="cls-1" x="63.06" y="34.4" width=".73" height="8.71"/><rect class="cls-1" x="59.07" y="38.38" width="8.71" height=".73"/></g><rect class="cls-3" x="24.7" y="1.28" width="10.19" height="28.22"/><rect class="cls-4" x="22.84" width="13.91" height="4.53" rx="1.96" ry="1.96"/><rect class="cls-6" x="45.34" y="68.57" width="8.39" height="17.11"/><g><rect class="cls-1" x="46.63" y="70.12" width="5.79" height="6.42"/><rect class="cls-1" x="46.63" y="77.7" width="5.79" height="6.42"/></g><rect class="cls-6" x="34.15" y="56.05" width="55.95" height="5.29"/><rect class="cls-1" x="34.15" y="54.24" width="55.95" height="1.9"/><g><rect class="cls-1" x="34.15" y="54.24" width="1.47" height="7.09"/><rect class="cls-1" x="36.75" y="54.24" width="1.47" height="7.09"/><rect class="cls-1" x="39.34" y="54.24" width="1.47" height="7.09"/><rect class="cls-1" x="41.94" y="54.24" width="1.47" height="7.09"/><rect class="cls-1" x="44.53" y="54.24" width="1.47" height="7.09"/><rect class="cls-1" x="47.13" y="54.24" width="1.47" height="7.09"/><rect class="cls-1" x="49.72" y="54.24" width="1.47" height="7.09"/><rect class="cls-1" x="52.32" y="54.24" width="1.47" height="7.09"/><rect class="cls-1" x="54.91" y="54.24" width="1.47" height="7.09"/><rect class="cls-1" x="57.5" y="54.24" width="1.47" height="7.09"/><rect class="cls-1" x="60.1" y="54.24" width="1.47" height="7.09"/><rect class="cls-1" x="62.69" y="54.24" width="1.47" height="7.09"/><rect class="cls-1" x="65.29" y="54.24" width="1.47" height="7.09"/><rect class="cls-1" x="67.88" y="54.24" width="1.47" height="7.09"/><rect class="cls-1" x="70.48" y="54.24" width="1.47" height="7.09"/><rect class="cls-1" x="73.07" y="54.24" width="1.47" height="7.09"/><rect class="cls-1" x="75.67" y="54.24" width="1.47" height="7.09"/><rect class="cls-1" x="78.26" y="54.24" width="1.47" height="7.09"/><rect class="cls-1" x="80.86" y="54.24" width="1.47" height="7.09"/><rect class="cls-1" x="83.45" y="54.24" width="1.47" height="7.09"/><rect class="cls-1" x="86.04" y="54.24" width="1.47" height="7.09"/><rect class="cls-1" x="88.64" y="54.24" width="1.47" height="7.09"/></g></g></g></svg>