<?xml version="1.0" encoding="UTF-8"?><svg id="Layer_2" xmlns="http://www.w3.org/2000/svg" viewBox="0 0 149.05 65.16"><defs><style>.cls-1{fill:#1c0d0b;}.cls-2{fill:#4c392c;}.cls-3{fill:#262626;}.cls-4{fill:#141516;}.cls-5{fill:#25130d;}.cls-6{fill:#f6ad19;}.cls-7{fill:#422f23;}.cls-8{fill:#2d1910;}.cls-9{fill:#432f22;}.cls-10{fill:#090808;}.cls-11{fill:#301d13;}.cls-12{fill:#f3aa19;}.cls-13{fill:#120808;}.cls-14{fill:#161718;}.cls-15{fill:#908d8b;}.cls-16{fill:#2a1811;}.cls-17{fill:#0f0909;}.cls-18{fill:#3c3331;}.cls-19{fill:#3d2819;}.cls-20{fill:#0b0807;}.cls-21{fill:#d7d4d3;}.cls-22{fill:#382417;}.cls-23{fill:#9c9896;}.cls-24{fill:#1e100c;}.cls-25{fill:#f5ac18;}.cls-26{fill:#3e291c;}.cls-27{fill:#322017;}.cls-28{fill:#130808;}.cls-29{fill:#b17c1e;}.cls-30{fill:#130908;}.cls-31{fill:#a6741e;}.cls-32{fill:#3e2a1c;}.cls-33{fill:#392417;}.cls-34{fill:#fefdfd;}.cls-35{fill:#f2aa19;}.cls-36{fill:#785423;}.cls-37{fill:#38261a;}.cls-38{fill:#47301e;}.cls-39{fill:#150909;}.cls-40{fill:#0a0808;}.cls-41{fill:#4a3320;}.cls-42{fill:#e7e5e4;}.cls-43{fill:#0d0808;}.cls-44{fill:#180d0c;}.cls-45{fill:#332015;}.cls-46{fill:#140c0a;}.cls-47{fill:#c8c4c2;}.cls-48{fill:#362216;}.cls-49{fill:#23130e;}.cls-50{fill:#281812;}.cls-51{fill:#473324;}.cls-52{fill:#160d0a;}.cls-53{fill:#3b281b;}.cls-54{fill:#24140e;}.cls-55{fill:#20110d;}.cls-56{fill:#151616;}.cls-57{fill:#3f2d23;}.cls-58{fill:#2e1b12;}.cls-59{fill:#dedad5;}.cls-60{fill:#817d7c;}.cls-61{fill:#3b281c;}.cls-62{fill:#29170f;}.cls-63{fill:#21110d;}.cls-64{fill:#5a493d;}.cls-65{fill:#3f2b1f;}.cls-66{fill:#a4a09e;}.cls-67{fill:#f7ad18;}.cls-68{fill:#28160f;}.cls-69{fill:#573e26;}.cls-70{fill:#1c0f0c;}.cls-71{fill:#170d0c;}.cls-72{fill:#c7c4c2;}.cls-73{fill:#b27d1f;}.cls-74{fill:#bebab9;}.cls-75{fill:#0c0909;}.cls-76{fill:#382416;}.cls-77{fill:#25140e;}.cls-78{fill:#463323;}.cls-79{fill:#321e12;}.cls-80{fill:#140909;}.cls-81{fill:#432d1b;}.cls-82{fill:#331f14;}.cls-83{fill:#3f2f26;}.cls-84{fill:#150c0a;}.cls-85{fill:#342014;}.cls-86{fill:#121414;}.cls-87{fill:#2f1c13;}.cls-88{fill:#100908;}.cls-89{fill:#442f1f;}.cls-90{fill:#553c22;}.cls-91{fill:#eae8e8;}.cls-92{fill:#3f2b1e;}.cls-93{fill:#23130f;}.cls-94{fill:#110807;}.cls-95{fill:#0f0908;}.cls-96{fill:#3e291b;}.cls-97{fill:#050708;}.cls-98{fill:#f3ab19;}.cls-99{fill:#402b1c;}.cls-100{fill:#121314;}.cls-101{fill:#f4ab18;}.cls-102{fill:#bab7b5;}.cls-103{fill:#3a281d;}.cls-104{fill:#0b0908;}.cls-105{fill:#3b2719;}.cls-106{fill:#4f3721;}.cls-107{fill:#140e0d;}.cls-108{fill:#412e20;}.cls-109{fill:#362114;}.cls-110{fill:#fefefe;}.cls-111{fill:#3d291c;}.cls-112{fill:#5d4c42;}</style></defs><g id="Layer_1-2"><g><path class="cls-24" d="M0,43.3c.68-1.64,1.93-2.43,3.68-2.57,.9-.07,1.8-.25,2.69-.39,.19-.06,.44-.12,.5,.11,.09,.32,.09,.66,.56,.62,.49-.05,1.05,.18,1.41-.39,.32-.5,.81-.61,1.37-.54,.52,.07,.76,.31,.5,.85,1.5-.21,2.99-.1,4.48-.1,.31,0,.79,0,.8,.36,.01,.41-.46,.51-.82,.53-1.46,.09-2.92,.02-4.39,.04-.46,0-.91,0-1.37,.01-.13,0,0,.18-.04,.05,0-.01,.03-.02,.09-.03,1.3-.11,2.58,.25,3.89,.04,.35-.06,.83,0,.78,.59-.33,.47-.86,.56-1.36,.67-2.52,.6-5.05,1.2-7.63,1.49-.5-.04-.99,.12-1.48,.11-.03,.13-.03,.07,.05,.05,.3-.08,.62-.08,.93-.14,.94-.04,1.88-.16,2.83-.1,.59,.03,1.18,.04,1.68,.41,.05,.71-.49,.64-.91,.65-1.17,.03-2.33,0-3.21,.01,1.13-.07,2.56,.1,3.99-.08,.34-.04,.73,.03,.78,.4,.06,.48-.38,.44-.69,.45-1.14,.02-2.27,0-3.41,0,1.2,0,2.4,0,3.6,0,.25,0,.6-.05,.64,.28,.04,.38-.32,.44-.61,.48-.87,.1-1.75,.22-2.62,.19-1.61-.05-3.24,.26-4.84-.15-1.01-.3-1.33-1.25-1.87-1.99v-1.95Z"/><path class="cls-22" d="M78.01,13.42c-1.15,1.53-2.3,3.06-3.45,4.59-.23,.31-.42,.54,.15,.76,4.94,1.9,9.16,4.86,12.72,8.77,.04,.04,.11,.06,.26,.13,.22-1.2,.54-2.36,1.44-3.4-1.88-.18-3.42-.67-4.57-2.01-.13-.15-.27-.28-.37-.45-1.35-2.15-2.39-4.46-3.31-6.82-.29-.73-.48-1.55-.15-2.36,.39,.43,.89,.55,1.46,.53,.47-.02,.96-.07,1.41,.15,.49,2.14,1.59,4.01,2.5,5.97,.61,1.33,1.6,2.09,3.08,1.88,1.65-.23,2.69,.37,3.15,1.97,.06,.22,.2,.41,.3,.61,.82,1.84,.75,1.84-.55,2.87-.72,.57-1.14,1.32-1.12,2.28,.01,.36-.07,.71-.18,1.05-.33,.99-.16,1.85,.36,2.78,.59,1.06,1.29,2,2.03,2.95,1.02,1.3,2.38,1.53,3.83,1.43,1.14-.08,1.29-.02,.97,1.07-.09,.31-.14,.63-.27,.94-.2,.39-.55,.56-.95,.56-2.39,.02-4.78,.15-7.17-.06-.51-.19-.48-.65-.48-1.07,0-1.05-.35-1.95-.94-2.82-.95-1.4-1.9-2.79-2.95-4.12-.25-.31-.61-.62-.3-1.1,1.23-.43,2.44,.13,3.66,.09,.26,0,.51,.11,.77,.02-1.67-.28-3.33-.65-5.05-.48-.57-.07-.89-.51-1.25-.87-5.05-4.97-11.17-7.76-18.18-8.3-7.58-.59-14.49,1.5-20.62,6.06-.4,.3-.72,.79-1.34,.7-1.45-.24-2.91-.19-4.36-.34-.58-.06-1.17-.06-1.7-.36-.36-.57,.18-.82,.45-1.12,2.79-3.06,6.17-5.28,9.93-6.94,4.85-2.14,9.94-3.03,15.24-2.57,.68,.06,.82-.19,.66-.78-.12-.47-.23-.95-.3-1.43-.05-.36-.12-.73,.3-.94,.12-.05,.25-.09,.38-.09,3.01,0,6.03-.12,9.04,.03,.76,.27,.35,.61,.02,.88-1.13,.94-2.43,1.62-3.65,2.41-.35,.23-.75,.37-1.08,.78,.62,.28,1.26,.38,1.85,.59,.46,.16,.72-.11,.96-.45,.83-1.16,1.71-2.29,2.56-3.43,.23-.31,.41-.67,.8-.83,.11-.02,.21-.02,.32,0,.87,.02,1.74,0,2.61,.02,.38,0,.78-.03,1.09,.29Z"/><path class="cls-65" d="M133.19,59.15c-.19,.05-.37,.12-.56,.14-1.35,.17-2.4,.27-2.87,2.11-.71,2.75-3.32,3.82-6.17,3.58-2.43-.21-4.9,.08-7.35,0-1.79-.06-3.65,.48-5.35-.51-.15-.09-.3-.1-.46-.02-1.84,.96-3.83,.44-5.75,.52-2.22,.09-4.45,.08-6.67-.04-2.15-.12-4.32,.42-6.44-.26-.19-.06-.44,.05-.66,.08-1.03-.41-2.12-.56-3.21-.6-.64-.02-1.13-.17-1.2-.85-.08-.76,.54-.91,1.1-.93,1.26-.05,2.53-.03,3.8-.04,1.23-.01,2.46,.08,3.69-.14,1.03-.18,2.08,.08,3.09,.21,1.12,.13,2.22,.07,2.89,.12-.46,0-1.37,.07-2.28-.03-.23-.43,.18-.41,.37-.45,.52-.11,.97-.35,1.39-.68-.3,.15-.6,.35-.93,.1-.34-.25-.33-.61-.26-.97,.1-.51,.25-1.01,.37-1.51,.22-.92,.19-.96-.72-.94-.13,0-.26,.02-.39,.02-2.02,0-2.32,.2-3.09,2.11-.23,.44-.6,.76-.96,1.09-.28,.26-.66,.3-1,.12-.35-.18-.34-.53-.28-.86,.15-.7,.25-1.42,.58-2.06,.2-.37,.29-.71,.23-1.11-.03-.23,.23-.57-.16-.66-.4-.1-.72,.11-.82,.51-.34,1.35-.75,2.69-.79,4.1,0,.31,.16,.66-.19,.9-.68,.22-1.36,.19-2.05,.03-.3-.14-.25-.34-.06-.54,.3-.31,.67-.52,1.25-.71-.73,.05-.79-.35-.82-.76-.04-.55,.04-1.11-.08-1.65-.07-.3-.01-.71-.44-.78-.44-.06-.74,.17-.93,.56-.24,.5-.47,1-.74,1.48-.63,1.12-2.44,1.98-3.63,1.75-.54-.77-.48-1.16,.3-1.52,.44-.21,.9-.37,1.21-.78,.24-.32,.47-.67,.24-1.07-.25-.45-.7-.41-1.13-.33-1.29,.25-2.38,2.1-1.98,3.36,.09,.27,.31,.51,.23,.83-.5,.37-.9,.1-1.26-.24-.28-.26-.47-.59-.8-.8-.1-.87,.42-1.76-.14-2.63-.12-.18,.2-.45,.33-.67,.57-.97,.35-1.55-.73-1.91-.57-.19-1.14-.2-1.72-.06-.37,.09-.74,.26-1.14,.12-.29-.68,.13-1.19,.4-1.74,.3-.16,.63-.15,.95-.15,1.36,0,2.52-.49,3.51-1.4,.28-.26,.54-.56,.96-.63,.6,.07,1.24-.02,1.78,.35,.07,.06,.15,.13,.21,.2,.58,.83,1.21,1.53,2.4,1.21,1.18-.31,1.97-.95,2.1-2.23,.04-.09,.1-.17,.17-.23,.99-.11,1.99,.04,2.97-.21,.77,.41,.71,1.23,.96,1.9,.05,.34,.05,.68,.18,1.06,.25-.09,.3-.49,.62-.44,.35,.1,.48,.42,.7,.67,.18-.48,.1-1.12,.73-1.32,.53-.16,1.06-.32,1.62-.29,.39,.02,.78,.05,1.13,.24,.37,.27,.79,.51,.74,1.06-.28,.48-.81,.33-1.14,.46,.96,.03,2-.01,3.04,0,.34,0,.7,.1,.76,.48,.06,.37-.24,.6-.55,.72-.52,.2-1.11,.37-1.6,.06-.57-.35-1.17-.34-1.78-.43-.61-.09-1,.15-1.29,.75,.97,.37,2,.52,2.95,.43,2.45-.23,4.87,0,7.31,.05,1.11,.02,2.24,.34,3.36-.15,.5-.22,.68,.35,.8,.76,.14,.47-.14,.66-.56,.71-1.13,.13-2.27-.16-3.4,.03-.3,.05-.64,0-.41,.47,.16,.72-.16,1.37-.31,2.04-.12,.52-.82,.32-.96,.81-.31,.31-.66,.44-1.04,.17-.36-.25-.27-.63-.2-.98,.1-.54,.22-1.08,.33-1.62,.05-.25,.14-.55-.24-.63-.3-.06-.49,.14-.59,.4-.2,.48-.23,1.01-.37,1.51-.26,.97-.78,1.6-1.23,1.38-.82-.4-.38-1.11-.26-1.7,.07-.35,.2-.69,.25-1.04,.03-.24,0-.47-.29-.53-.26-.05-.47,.05-.55,.29-.32,.92-.61,1.86-.59,2.84,.01,.6,.61,.89,1.25,.61,.61-.27,1.11-.32,1.74,0,.74,.38,1.27-.21,1.78-.66,.35-.39,.63-.5,.72,.17,.03,.24-.04,.56,.35,.58,.35,.02,.52-.22,.62-.51,.2-.62,.32-1.25,.49-1.88,.3-1.06,.48-1.19,1.56-.99,.32,.06,.57-.02,.82-.19,.5-.19,.9-.97,1.55-.27,.05,.39-.22,.66-.37,.98-.27,.56-.48,1.14-.43,1.77,.07,.86,.68,1.35,1.46,1.04,.67-.26,1.25-.43,1.91,.01,.27,.18,.63,.04,.93-.11,.18-.08,.32-.22,.46-.35,.68-.63,.69-.63,1.04,.21,.07,.17,.16,.28,.34,.28,.25,0,.43-.13,.53-.35,.2-.44,.32-.91,.42-1.39,.09-.41,.18-.82,.38-1.2,.21-.39,.49-.74,.99-.55,.45,.17,.46,.57,.39,.98-.05,.29-.15,.56-.18,.85-.06,.54-.27,1.15,.3,1.51,.62,.39,1.18,.1,1.66-.36,.08-.1,.19-.18,.25-.3-.17-.02-.21,.17-.34,.2-.35,.14-.71,.18-.92-.2-.2-.37-.15-.73,.24-.99,.48-.17,.97-.16,1.46-.03,.32,.14,.34,.44,.4,.72,.25,1.22,.84,1.45,1.91,.74,.13-.09,.27-.18,.37-.29-.96,.29-1.36,.03-1.16-.85,.18-.81,.21-1.67,.73-2.39,.31-.44-.09-1.02,.2-1.49-.01-.76-.56-.48-.9-.41-1.97,.4-3.93,.5-5.9,.08-.68-.14-1.4-.42-1.95,.34-.17,.23-.47,.17-.73,.1-.41-.11-.79-.32-1.19-.43-.57-.16-1.25-.69-1.65,.35-.15,.4-.99,.26-1.32-.21-.27-.39-.51-.76-1.13-.72,.29,.22,.32,.47,.09,.7-.26,.26-.62,.32-.89,.12-.5-.37-.92-.7-1.63-.41-.34,.14-.75-.31-1.13-.48-.33-.14-.75-.29-.46-.84,.1-.18-.13-.08-.2-.1-.65-.11-.63-.45-.31-.89,.72-.54,.92-1.27,.92-2.15,0-1.21-.14-2.4-.32-3.59-.14-.96-.02-1.88,.21-2.8,.18-.71,.56-1.26,1.36-1.35,.84-.09,1.45,.28,1.85,1,.05,.09,.1,.17,.12,.27,.47,1.99,.34,3.99,.12,6-.01,.09-.11,.15-.19,.21-.46-.52-.83-1.17-1.7-1.09-.35,.03-.65,.05-.69,.48-.04,.43,.13,.67,.58,.7,.51,.03,1.03-.04,1.53,.1,.6,.27,.7,.97,1.19,1.36,.96,.76,1.21,.75,1.95-.21,.17-.23,.31-.5,.62-.58,.81-.06,1.61-.27,2.42-.03,.32,.09,.59,.26,.86,.44,2.93,2.03,5.45,1.8,7.95-.74,.16-.16,.32-.32,.56-.36,.36,0,.71,.02,1.03,.23,.07,.9,.24,1.77,.82,2.52,.19,.24,.08,.56,0,.85-.29,1.14-.02,1.44,1.11,1.27,.16-.02,.33-.08,.48-.03,1.61,.53,3.07,.04,4.49-.67,.09-.04,.19-.04,.29-.03,.31,.34,.66,.08,1,.06,.27-.02,.54,.02,.66,.31,.12,.28-.02,.5-.24,.68-.52,.44-1.04,.8-1.75,.35-.36-.23-.82-.24-1.09,.06-.49,.55-1.14,.7-1.65,.84,.67-.41,1.52-.05,2.36-.05,.5,0,.59,.44,.2,.73-.36,.27-.27,.41,0,.61Z"/><path class="cls-76" d="M81.52,61.08c.41-.25,.48,.18,.64,.36,.37,.39,.74,.72,1.33,.61,.73-.25,1.55,.11,2.24-.35,.12-.05,.25-.09,.34-.17,.62-.58,1.18-1.01,1.75,.1,.2,.38,.72,.37,1.15,.34,.31-.02,.63-.18,.92,.08,.8,0,1.61,0,2.41,0,.64-.21,1.33,0,1.97-.23,.48-.02,.96-.05,1.43,.05,.57,.15,1.13,.17,1.7-.02,.54-.19,1.01-.12,1.31,.43,.7,.39,1.46,.1,2.19,.17,.37,.04,.74,0,1.11,.11-1.91,0-3.82,.29-5.72-.08-.92-.18-1.8,.18-2.71,.17-2.02,0-4.04,0-6.06,0-.34,0-.67,.05-.86,.35-.16,.26,.06,.5,.18,.72,.1,.18,.27,.28,.49,.2,1.08-.39,2.04,.35,3.08,.31,.3-.01,.44,.24,.47,.53l-.08,.05h-.09c-1,.14-2.01,.12-3.01,0-.42,0-.83,0-1.25,0-1.01,.11-2.02,.13-3.03,0-2.12,.68-4.27,.18-6.39,.08-1.76-.08-2.97-2.01-2.65-3.8,.1-.57,.15-1.04-.3-1.52-.27-.29-.53-.78-.48-1.14,.29-2.15-1.7-2.01-2.73-2.82-.29-.23-.48,.02-.67,.16-1.24,.9-2.62,1.27-4.14,1.17-1.45-.1-2.9,.52-4.35,.04-.06-.02-.14,0-.19-.04-1.38-.94-2.8-.38-4.25-.21-2.99,.36-5.6-.54-7.64-2.81-.42-.47-.62-.4-1.04-.02-4.05,3.58-10.34,4.05-14.58,1.13-.08-.05-.13-.13-.2-.2q.11-.6,1.2-.74c-1.09,.04-2.13-.07-3.04-.75-.24-.18-.57-.13-.85-.19-.33-.07-.67-.2-.63-.61,.03-.34,.39-.53,.66-.45,1.23,.37,2.44-.13,3.66,0,1.41,.86,2.84,1.63,4.56,1.74,2.68,.18,4.95-.68,6.93-2.43,.26-.23,.43-.59,.86-.55,1.19,.28,2.38,.27,3.57,0,.46-.05,.6,.34,.77,.63,1.38,2.38,5.02,2.92,7.37,1.42,1-.64,.95-.6,1.87,.2,.71,.62,1.52,1.17,2.56,.73,.2-.1,.37-.28,.61-.31,.76,.1,1.51,.05,2.28,.3,.65,.22,1.24-.47,1.92-.6,.45-.1,.9,.08,1.33,0-.29,0-.67,.04-.71-.41-.03-.32,.22-.54,.5-.66,.59-.24,1.21-.17,1.83-.1,.61,.26,.98,.83,1.55,1.15,.54,.3,.9,.19,1.24-.28,.41-.56,.49-1.26,.78-1.87,.08-.05,.17-.08,.27-.08,.43,.05,.87,0,1.27,.21,.29,.44-.37,.77-.11,1.24,.32,.58,.67,1.07,1.34,1.28,.36,.11,.77,.13,.98,.52,.21,.6-.29,1.03-.39,1.55-.25,.74-1.2,.89-1.39,1.68-.27,.58-.07,.95,.49,1.22,.44,.21,.99,.38,.94,1.05,.02,.53-.18,1.02-.26,1.53-.04,.25-.11,.55,.26,.62,.31,.06,.49-.13,.59-.4,.22-.61,.31-1.26,.51-1.88,.16-.48,.29-1.14,.98-.96,.69,.18,.64,.8,.51,1.37-.09,.38-.2,.75-.27,1.14-.05,.3-.09,.61,.3,.71,.41,.11,.49-.19,.56-.49,.04-.17,.14-.29,.31-.34Z"/><path class="cls-8" d="M15.62,26.35c-1.27-.78-2.58-1.51-3.8-2.37-1.44-1.01-1.78-2.92-.9-4.44,.85-1.47,2.58-2.06,4.23-1.38,3.52,1.45,7.04,2.88,10.76,3.75,1.3,.3,2.61,.51,3.96,.48,.76-.02,1.04-.29,.91-1.08-.39-2.32-1.45-4.37-2.49-6.43-.25-.49-.5-.98-.75-1.47,.97-.23,1.96-.02,2.94-.11,.47,.12,.65,.53,.84,.89,1.21,2.2,2.19,4.5,2.65,6.98,.63,3.35-1.07,5.31-4.46,5.41-2.42,.07-4.72-.44-7-1.1-2.31-.66-4.58-1.46-6.78-2.43-.35-.23-.72-.41-1.15-.6,.29,.15,.54,.28,.79,.4,1.29,.75,2.55,1.55,3.71,2.48,.27,.22,.84,.47,.23,.95-1.23,.2-2.47,.11-3.71,.06Z"/><path class="cls-48" d="M43.81,6.78c0-1.14-.03-2.27-.01-3.41,.04-1.71,1.17-3.01,2.86-3.32,1.5-.28,3.04,.6,3.64,2.14,.78,2,1.48,4.02,2.58,5.87,.36,.61,.79,1.19,1.22,1.76,.44,.59,.9,.6,1.44,.07,1.29-1.27,2.19-2.81,3.05-4.38,.3-.54,.54-1.11,.85-1.65,.7-1.23,2.1-1.88,3.48-1.65,1.38,.23,2.57,1.32,2.73,2.7,.3,2.64,.64,5.28,1.05,7.91-.67-.65-1.48-.74-2.38-.72-.68,.02-1.09,.23-1.28,.87-.33,.22-.42-.07-.46-.27-.37-1.97-.67-3.95-.75-5.76-.66,1.55-1.65,3.15-2.81,4.64-.22,.28-.45,.57-.86,.58-1.78,0-3.56-.13-5.34,.12-.61,.09-1.22-.15-1.84-.12-.59,.01-.82-.46-1.08-.85-1.09-1.69-1.93-3.5-2.66-5.37-.15-.38-.28-.76-.46-1.11,.26,.51,.28,.99-.09,1.46-.96,.17-1.91,.36-2.88,.49Z"/><path class="cls-88" d="M132.32,33.08c.93-1.71,1.86-3.42,2.97-5.03,1.22-1.77,2.94-2.49,5.02-1.9,3.41,.96,6.15,2.92,8.05,5.93,.81,1.29,.91,2.75,.28,4.12-1.11,2.39-2.49,4.63-4.14,6.7-.2,.25-.49,.42-.74,.63-1.24,.48-2.5-.05-3.75,.01-.57,.03-1.16-.12-1.74-.19-.36-.04-.7-.14-.87-.66,.96-.26,1.89-.59,2.82-.92,.73-.26,1.27-.75,1.69-1.4,.9-1.42,1.77-2.87,2.66-4.3,.47-.77,.39-1.49-.19-2.15-1.26-1.43-2.7-2.62-4.48-3.35-1.3-.54-1.82-.33-2.61,.83-.56,.82-.73,1.91-1.69,2.44-1.1,.41-2.1-.03-3.11-.36-.16-.05-.25-.2-.16-.39Z"/><path class="cls-45" d="M97.61,18.54c-.03,.23-.22,.56,.26,.52,1.99-.18,3.52,.66,4.8,2.24,.99-2,2.36-3.49,4.44-4.21,1.51-.52,3.03-.67,4.58-.18-.52,1.34-.52,1.32-2.11,1.04-.79-.14-1.62,.06-2.23-.08,2.11-.03,4.36,.59,6.66,.55,.41,0,.87,.02,.8,.58-.06,.45-.44,.62-.89,.52-1.19-.26-2.38-.15-3.58-.11,.38,.22,.8,.14,1.2,.18,1.48,.15,3.07-.22,4.36,.88,.32,.28,.76,.05,1.14,.05,.29,0,.58-.08,.87-.06,.3,.02,.6,.08,.65,.45,.04,.32-.18,.46-.44,.56-.21,.08-.42,.17-.63,.27-1.21-.16-2.42-.35-3.6,.17-.45-.26-.91-.52-1.44-.19-.68-.11-1.27-.48-1.93-.66-2.15-.58-4.15,.39-5,2.44-.26,.63-.44,1.29-.49,1.97-.05,.78-.41,1.31-1.2,1.43-.94,.14-1.61,.81-2.44,1.15-.72-.12-1.51,.08-2.14-.45-.24-.39-.12-.77,.09-1.1,.26-.41,.31-.85,.26-1.31-.08-.79-.39-1.44-1.18-1.76-.82-.33-1.42,.12-1.86,.68-.51,.65-1.13,.94-1.91,1.01-.48,.05-.84-.12-1.04-.56-.46-1.01-1-1.97-1.39-3.01-.22-.57-.21-1.09,.21-1.55,.54-.58,.74-1.47,1.57-1.81,1.12-.04,2.21,.3,3.33,.2,.11,0,.2,.06,.26,.14Z"/><path class="cls-54" d="M117.5,21.61c.03-.29,.21-.37,.47-.38,.22,0,.51,0,.44-.35-.07-.3-.36-.23-.57-.21-.22,.02-.45,.16-.66,.14-.65-.06-1.22,.08-1.94-.43-.97-.69-2.39-.56-3.65-.52-.73,.02-1.43,.04-2-.5,.06-.37,.34-.27,.54-.26,1.32,.06,2.66-.19,3.97,.23,.38,.12,.58-.14,.59-.44,0-.33-.27-.23-.51-.22-1.56,.02-3.09-.11-4.62-.46-.89-.2-1.86-.1-2.79-.12-.18,0-.39,.09-.53-.24,1.7-.33,3.38,.04,5.11,.07q-.52-.86,.34-.99c1.47,.6,2.96,.46,4.51,.35,1.78-.12,3.43,.61,4.81,1.8,.24,.21,.45,.42,.83,.43,3.22,.04,5.26,1.94,6.82,4.48,.79,1.29,1.24,2.74,1.26,4.25,.02,1.13,.17,2.17,.77,3.14,.18,.29,.32,.64,.28,1.02-1.34,.17-2.71,.02-4.05,.3-.92-.4-1.28-1.05-1.15-2.08,.29-2.25-.27-4.22-2.04-5.79-.72-.64-1.48-1.11-2.44-.95-1.92,.31-2.83-1.02-3.81-2.25Z"/><path class="cls-96" d="M34.76,52.3c-.58-.01-1.16-.06-1.7,.26-.43,.26-.8-.11-1.2-.17-.28-.04-.57-.07-.86-.09-.17,0-.34,.07-.37,.24-.03,.18,.16,.36,.29,.32,1.01-.29,1.57,.67,2.43,.84,.82,.16,1.65,.02,2.51,.21-.24,.41-.57,.39-.92,.46-.38,.08-.97-.22-1.12,.45-.28-.19-.62-.34-.84-.59-.45-.51-.57-.14-.72,.22-.31-.37-.65-.54-1.17-.42-.78,.18-1.59-.04-2.39,.04-.18-.2-.19-.43-.1-.67,.16-.18,.29-.41,.55-.52-.32-.12-.35,.7-.76,.22-.58-2.97-.46-5.95-.11-8.93,.03-.23,.12-.44,.32-.58,.39-.22,.82-.18,1.24-.18,3.4-.01,6.8-.27,10.2-.2,.2,0,.39-.03,.36-.02-1.95-.05-4.12,.11-6.28,.11-1.3,0-2.59,.16-3.89,.1-.52-.02-1.04,0-1.52-.25-.14-.62-.31-1.24,.43-1.63,.52,.39,1.14,.47,1.75,.43,2.75-.19,5.5-.06,8.25-.09,.13,0,.26-.03,.38-.07,1.01-.14,1.94,.17,2.83,.56,1.22,.52,1.42,1.72,.47,2.68-.48,.48-1,.92-1.52,1.37-.5,.43-1.09,.55-1.74,.42-.57-.12-1.13-.31-1.69-.46-1.21-.32-2.36,.39-2.64,1.61-.07,.29-.08,.67-.41,.71-.87,.11-1.08,.77-1.34,1.42-.82,.26-1.67,.1-2.51,.14-.45,.02-.91-.02-1.36,.02-.28,.02-.66,0-.67,.39,0,.42,.39,.38,.66,.37,1.42-.04,2.85,.16,4.26-.14,.72,.21,.87,.77,.87,1.43Z"/><path class="cls-79" d="M14.07,42.51c-.11-.54-.57-.42-.86-.35-1.56,.37-3.08-.3-4.7,.06,.19-.7,.63-.67,1.04-.67,1.72,0,3.45,0,5.17,0,.38,0,.78,.06,1.27-.39-2.14,.03-4.09-.11-6.09,.22,.07-.26,.07-.34,.1-.36,.22-.1,.54-.03,.65-.34,.05-.16-.05-.26-.19-.27-.38-.02-.98-.2-1.11,.09-.55,1.29-1.64,.75-2.53,.84-.42,.04-.71-.11-.25-.52,.4-.36,.06-.39-.19-.47,2.25-.51,4.5-.98,6.73-1.55,2.9-.74,5.79-1.54,8.32-3.23,1.73-1.16,1.84-1.83,.64-3.49-1.23-1.71-2.86-3-4.52-4.27-.39-.29-.77-.6-1.15-.89,.44-.42,.96-.23,1.46-.18,.83,.08,1.65,.24,2.46-.1,.32-.11,.58,.03,.8,.24,1.46,1.34,2.94,2.66,3.99,4.38,1.71,2.82,1.22,5.46-1.41,7.47-1.57,1.2-3.35,1.99-5.18,2.68-1.1,.42-2.22,.76-3.33,1.12-.36,.12-.74,.33-1.1,0Z"/><path class="cls-49" d="M132.32,33.08c1.09,.47,2.18,.91,3.4,.47,.2,.4-.06,.7-.25,.98-1.16,1.74-1.09,3.4,.11,5.13,.86,1.24,.58,2.04-.74,2.87-1.28,.15-2.58,.21-3.85,.45-.19-.02-.29-.14-.34-.31-.08-.58,.29-.73,.75-.79,.44-.06,.89-.06,1.31-.23-1.78,.04-3.56-.14-5.32,.05-1.66,.18-3.31,.15-4.96,.06-.33-.11-.65-.22-.7-.63,.08-.31,.34-.41,.6-.41,1.03,0,2.02-.41,3.1-.2,1.06,.21,2.1-.4,3.19-.32,1.53,.12,3.01-.45,4.55-.36-1.65-.29-3.3-.03-4.94,.09-1.5,.11-2.99,.09-4.49,.1-.4,0-.95,.06-1.03-.5-.09-.6,.46-.72,.88-.86,.72-.25,1.48-.15,2.23-.16,.77-.01,1.54,0,2.31-.02-.74-.02-1.49,.04-2.23-.05-.47-.05-.86-.22-.57-.82,.13-.19,.31-.33,.51-.44,1.09-.63,1.42-1.61,1.36-2.8-.02-.4-.26-.84,.16-1.18,.68-.27,1.4-.16,2.1-.15,.61,0,1.14-.11,1.56-.57,.05,.01,.1,.04,.14,.07,.2,1.5,.31,3-.22,4.46-.03,.09-.08,.18-.1,.27-.04,.18,0,.35,.19,.37,.25,.03,.21-.18,.19-.33-.15-.91-.04-1.79,.37-2.62,.25-.54,.49-1.09,.74-1.63Z"/><path class="cls-62" d="M27.76,57.15c-2.86,.7-5.72,1.4-8.54,2.3-1.46,.47-3.02-.32-3.76-1.72-.74-1.41-.42-3.1,.81-4.14,.79-.67,1.63-1.27,2.45-1.91,1.05-.22,2.04,.05,3.02,.38,.33,.11,.56,.31,.65,.65,.06,.47-.2,.83-.49,1.11-.89,.84-1.76,1.71-2.7,2.33,1.5-.34,3.02-1.11,4.72-1.15,.84,.26,1.72,.35,2.55,.65,.47,.17,.95,.15,1.44,0,.28-.09,.61-.11,.81,.15,.25,.34-.11,.5-.27,.73-.19,.25-.31,.58-.69,.62Z"/><path class="cls-82" d="M1.87,47.24c2.66,.05,5.3-.08,7.95-.62H4.43c0-.11,0-.23,0-.34h5.21l.02-.4H3.64c0-.14,0-.28,0-.42,1.27,0,2.54,.01,3.81,0,.6,0,1.25,.18,1.73-.39,.35-.33,.79-.29,1.2-.26,3.35,.18,6.68,.53,9.91,1.51,.88,.27,1.68,.7,2.44,1.21,.77,.53,1.2,1.27,1.31,2.19,.04,.34,.11,.74-.38,.87-.53-.37-1.13-.34-1.74-.36-.52-.01-1.09,.14-1.55-.27,.23-.64-.36-.6-.66-.7-2.33-.79-4.76-1.03-7.19-1.24-3.05-.27-6.11-.32-9.17-.37-.52,0-1.04-.07-1.48-.39Z"/><path class="cls-111" d="M80.9,12.04c.33-1.45,1.44-2.3,2.51-3.17,.37-.3,.8-.52,1.21-.78,1.75-.03,3.51,.1,5.24-.06,1.74-.16,3.46,.02,5.19,.06,.65,1.38,1.29,2.77,1.94,4.15-1.05,.2-2.11,.06-3.17,.04-.35,0-.71-.07-1.06,.02-.64-.03-.71-.6-.89-1.02-.6-1.36-.97-1.56-2.41-1.15-1.23,.36-2.32,1-3.41,1.66-.38,.23-.73,.56-1.23,.53-.62-.23-1.22-.21-1.87-.09-.67,.12-1.44,.5-2.05-.21Z"/><path class="cls-109" d="M39.3,13.24c.45,.15,.91,.29,1.36,.44,.81,.26,1.51,.17,1.97-.64,1.08,.2,2.18,.04,3.27,.12,.18,.14,.21,.34,.15,.52-.79,2.48-2.27,4.82-5.75,4.29-2.96-.45-5.34-2.1-7.7-3.77-.21-.15-.63-.38-.18-.75,1.97-.3,3.95-.06,5.93-.14,.32-.01,.65,.1,.95-.08Z"/><path class="cls-37" d="M133.19,59.15c-.16-.01-.32-.02-.48-.03-.18-.02-.44,.03-.45-.23,0-.22,.21-.3,.41-.34,.25-.04,.62-.05,.54-.39-.07-.34-.41-.12-.65-.13-.83-.03-1.67-.37-2.44,.27-.13,.11-.39-.08-.41-.3-.02-.2,.17-.23,.34-.24,.82-.06,1.54-.2,2.06-1.01,.13-.2,.99-.65,1.47,.04,.18,.27,.53,.26,.7,.12,.32-.26,.79-.36,.95-.77,.09-.24-.15-.29-.35-.34-.46-.1-.66,.3-.95,.5-.3-.22-.15-.51-.22-.74-.2-.38,.06-.63,.28-.83,.74-.68,1.29-1.48,1.74-2.39,.21-.42,.45-.97,1.12-.87,.69,.21,1.39,.11,2.09,.15,.44,.02,.9-.08,1.26,.29-.14,1.05-.84,1.86-1.41,2.63-1.47,1.97-2.8,4.21-5.59,4.62Z"/><path class="cls-99" d="M26.95,12.3c-.54-1.55-.12-3.01,1.15-3.95,1.17-.86,2.84-.83,4.06,.13,1.57,1.24,3.2,2.4,4.85,3.54-1,.29-2.03,.16-3.04,.17-1.12,0-2.25-.22-3.36,.13-.17,.1-.35,.2-.56,.21-.53-.14-1-.44-1.55-.53-.57-.1-1.09-.1-1.55,.3Z"/><path class="cls-32" d="M68.75,12.01c1.59-1.11,3.17-2.23,4.7-3.43,1.23-.96,2.95-.86,4.14,.13,1.21,1,1.53,2.65,.81,4.12-1.12-1.16-2.37-.78-3.63-.31-.25,0-.5,.03-.73-.09-1.26-.51-2.55-.28-3.83-.19-.5,.04-1.03,.23-1.46-.23Z"/><path class="cls-55" d="M140.56,41.93c-.99,.26-1.83,1.01-2.96,.9,2.03,.52,4.11,.45,6.15,.7-1.08,1.08-2.45,1.23-3.91,1.16,0,.62,.46,1.12,.33,1.72,.16,1.15,.08,1.23-1.04,1.28-.85,.04-1.68-.18-2.51-.27-.79-.5-1.15-1.36-1.75-2.02-.26-.29-.13-.67,.04-1,.42-.8,.88-1.58,1.34-2.36,.2-.35,.49-.68,.91-.64,1.15,.09,2.31,.14,3.4,.55Z"/><path class="cls-105" d="M97.39,13.18c.8,1.76,.99,3.54,.22,5.36-.04-.02-.07-.04-.1-.06-1.09-.46-2.22-.7-3.41-.68-.16-1.3-.29-2.6-.9-3.8-.12-.23-.12-.5,.13-.69,1.34-.34,2.7-.17,4.06-.12Z"/><path class="cls-93" d="M95.04,8.09c-1.17,.47-2.39,.24-3.57,.14-.45-.04-.81,.08-1.21,.09-1.78,.03-3.56,0-5.35-.02-.1,0-.2-.14-.31-.21l.23-.14c1.45-.53,2.95-.17,4.39-.29-.68-.01-1.39,.02-2.1-.02-.35-.02-.81,.07-.92-.47,1.41-.82,2.91-1.41,4.54-1.54,1.98-.17,3.4,.68,4.29,2.47Z"/><path class="cls-95" d="M68.75,12.01c1.47-.05,2.94-.09,4.41-.15,.49-.02,.89,.08,1.13,.55-.03,.34-.3,.52-.51,.73-.22,.21-.42,.48-.8,.3-3.33-.01-6.65-.03-9.98-.04-.13-.09-.14-.2-.07-.33-.16-1.05,.36-1.36,1.32-1.22,.25,.04,.52,.04,.77,0,.83-.13,1.48,.03,1.69,.96,.32,.45,.55,.02,.79-.1,.43-.22,.84-.47,1.25-.71Z"/><path class="cls-76" d="M27.76,57.15c.46-.24,.23-1.03,.98-1.19-1.82,.48-3.33-.39-4.92-.75,.61-.82,1.52-.69,2.37-.77,.31,.07,.63,.14,.96,.16,.33,.01,.19-.2,.22-.35,.42-.28,.86-.43,1.35-.2,.25-.17,.41-.45,.83-.3,.58,.21,1.2,.18,1.8-.01,.68-.22,.98,.03,.92,.73-.29,1.26-1.16,1.96-2.34,2.28-.7,.2-1.44,.28-2.16,.41Z"/><path class="cls-48" d="M43.02,12.05c.45-1.6,.56-3.25,.78-4.89,.68-.38,1.3,.13,1.92,.23,.34,.06,.92-.14,1.18,.36,.08,1.5,.11,3-.67,4.37-1.07,.08-2.14,.51-3.2-.07Z"/><path class="cls-43" d="M30.46,12.31c-.08-.33,.03-.47,.39-.45,1.13,.06,2.26-.03,3.39,.08,.91,.09,1.85-.21,2.76,.08,.76,.41,1.53,.82,2.29,1.22,.13,.69-.42,.34-.62,.35-2.14,.03-4.29,.03-6.43,.03-.88-.06-1.44-.53-1.79-1.31Z"/><path class="cls-27" d="M136.46,47.21c.9,.07,1.8,.1,2.69,.21,.83,.1,1.12-.24,1.04-1.02,.09,1.65,.84,3.26,.2,4.94-.34-.69-.94-.73-1.62-.75-.67-.02-1.32,.22-2,.1-.46-1.13-.92-2.26-.31-3.48Z"/><path class="cls-17" d="M97.39,13.18c-.54,.46-1.18,.19-1.76,.23-.81,.05-1.62,.03-2.43,.04-.51-.23-.71-.61-.55-1.16,.06-.18,.12-.45,.34-.39,1.31,.38,2.7-.12,4,.35,.2,.29,.38,.58,.41,.94Z"/><path class="cls-84" d="M74.72,12.45c.56-.57,2.52-.8,3.2-.39,.3,.18,.52,.39,.48,.77-.07,.24-.15,.47-.38,.6-1.3-.11-2.62,.21-3.91-.18-.14-.53,.29-.62,.62-.79Z"/><path class="cls-43" d="M136.84,50.72c1.02-.77,2.19-.33,3.28-.31,.43,0,.15,.62,.27,.93,0,.21-.01,.41-.19,.56-.94,0-1.88-.01-2.81-.01-.33,0-.67,.03-.75-.41-.22-.33-.13-.57,.2-.75Z"/><path class="cls-95" d="M26.95,12.3c.05-.32,.08-.66,.54-.63,.92,.05,1.87,.01,2.57,.79,.36,.19,.62,.44,.48,.9-.99,.48-1.99,.3-2.99,.07-.28-.33-.52-.69-.6-1.13Z"/><path class="cls-13" d="M20.38,49.95c.85,0,1.69,.02,2.54-.01,.47-.01,.77,.09,.75,.62,.25,.43,.05,.7-.32,.92-1.12,.25-2.26,.13-3.39,.09-.27,0-.61-.05-.62-.47l1.03-1.15Z"/><path class="cls-46" d="M80.9,12.04c.71,.25,1.4,.04,2.11-.08,.63-.11,1.33-.41,1.84,.3-.12,.65-.62,.93-1.16,1.16-.71,0-1.41-.04-2.12,0-.63,.04-.89-.2-.84-.81,.01-.21,0-.42,.17-.58Z"/><path class="cls-104" d="M43.02,12.05c.85-.06,1.72,.12,2.56-.16,.23-.08,.44,0,.58,.21,.27,.45,.16,.82-.25,1.11-.99,.41-2.02,.14-3.03,.18-.18,0-.23-.19-.27-.35,.13-.33,.27-.66,.4-.99Z"/><path class="cls-10" d="M131.01,32.5c.05,.67-.26,.89-.93,.86-.94-.05-1.88-.01-2.82-.01-.48-.07-.57-.35-.39-.77,1.35-.55,2.72-.54,4.11-.21,.05,.03,.07,.08,.03,.13Z"/><path class="cls-75" d="M20.35,26.66c.15,.48-.18,.41-.48,.44-1.17,.13-2.32-.26-3.48-.19-.31-.12-.57-.3-.77-.55,.53-.47,1.17-.19,1.75-.23,.74-.05,1.48-.03,2.22-.03,.5-.14,.71,.11,.76,.57Z"/><path class="cls-38" d="M19.34,51.1c.85,.45,1.76,.13,2.63,.21,.48,.04,.97,0,1.45,0,.07,.84-.33,1.36-1.11,1.62-.49-.94-1.47-.81-2.29-1.01-.42-.1-.89,.03-1.29-.23,.13-.28,.35-.44,.61-.58Z"/><path class="cls-70" d="M46.71,7.56c-.34,.31-.49,.44-1.07,.1-.4-.24-1.17-.55-1.84-.49v-.39c.88-.74,1.92-.58,2.93-.59,.35,.46,.35,.91-.02,1.36Z"/><path class="cls-57" d="M86.21,7.16c.86,.44,1.77,.11,2.65,.2,.41,.04,.87-.07,1.06,.59h-5.08c.41-.35,.86-.62,1.37-.79Z"/><path class="cls-42" d="M131.58,34.71c-.18,1.11-.29,2.23,.05,3.44-.54-.14-.93-.25-1.4-.37,1.05-1.65,1.11-3.41,.92-5.21,.55,.63-.05,1.5,.42,2.14Z"/><path class="cls-65" d="M87.72,64.81c1,0,2.01,0,3.01-.01-1,.33-2,.37-3.01,.01Z"/><path class="cls-65" d="M83.44,64.8c1.01,0,2.02,0,3.03,0-1.01,.32-2.02,.35-3.03,0Z"/><path class="cls-67" d="M46.71,7.56l.02-1.36c.03-.53,.06-1.07,.09-1.6,1.24,2.57,2.15,5.28,3.99,7.51,.61,.24,.84,.91,1.39,1.22,1.7,1.14,2.79,1.14,4.51,0,.57-.35,.88-1.04,1.56-1.26,1.55-1.6,2.5-3.59,3.68-5.69,.38,2.35,.47,4.57,.98,6.71,.02,.11,.04,.22,.07,.33,.15,.8,.25,1.6,.45,2.39,.18,.71,.09,.98-.75,.9-5.95-.58-11.59,.56-16.91,3.24-3.45,1.74-6.53,3.99-9.06,6.95-.03,.36-.33,.55-.51,.82-2.39,2.86-4.3,6.02-5.63,9.51-.42,1.09-.7,2.23-1.05,3.34-.1,.33-.11,.71-.42,.96-.29,.49-.23,1.06-.35,1.59,.15,.21,.12,.4-.06,.58-.58,3.2-.6,6.4,0,9.6h0c0,.25,0,.5,0,.75l-1.39,.38c-.27,.32-.62,.19-.95,.19-.88,.09-1.74,.26-2.56,.6-1.8,.26-3.49,.92-5.48,1.43,1.5-1.3,2.92-2.31,3.98-3.71,.51-.45,.85-1.01,1.11-1.62,.08-.25,.17-.49,.25-.74,.34-.93,.01-1.7-.61-2.39-.72-.79-1.68-1.23-2.67-1.54-3.64-1.15-7.41-1.5-11.21-1.58-1.55-.23-3.12-.14-4.67-.21-.05-.5,.46-.11,.57-.36,2.57-.48,5.15-.96,7.69-1.6,.44-.11,.86-.25,1.3-.38,3.08-.75,6.08-1.73,8.75-3.49,1.79-1.18,3.26-2.64,3.02-5.07-.07-.7-.3-1.33-.61-1.94-1.15-2.21-2.91-3.88-4.88-5.35-.19-.27-.43-.47-.76-.57-1.33-1.21-2.86-2.12-4.37-3.08,0-.35,.17-.34,.41-.21,3.61,1.4,7.22,2.75,11.06,3.4,.9,.15,1.81,.18,2.72,.17,3.36-.04,4.9-1.9,4.27-5.18-.54-2.81-1.73-5.36-3.16-7.82l-.48-.9c.05-.27,.23-.2,.4-.15,.57,.47,1.12,.97,1.79,1.31,2.27,1.77,4.66,3.32,7.48,4.02,2.62,.64,4.52-.32,5.62-2.78,.24-.53,.39-1.09,.58-1.64,.08-.37,.17-.74,.25-1.11,.38-1.49,.53-3.01,.54-4.55Z"/><path class="cls-29" d="M5.09,44.48l-.57,.36c-.34,.07-.68,.07-1.21-.14,.73,0,1.22-.33,1.78-.22Z"/><path class="cls-110" d="M94.27,53c-.28-.63-.36-1.35-.8-1.92-.38-.28-.39-.74-.57-1.12-.22-.64-.46-1.43-1.24-1.39-.82,.04-.89,.91-1.02,1.55-.09,.45-.21,.92-.13,1.39,.03,1.28-.67,2.07-2.24,2.49-1.18,.31-1.96-.13-2.66-1.52-.61-.79-.31-1.79-.59-2.66-.45-2.97-.22-5.97-.25-8.95,0-.11,0-.21,.02-.32,.07-.42,.27-.84,.11-1.28-.03-.09-.05-.18-.07-.27-.16-.84-.45-1.61-1.14-2.19-.32-.27-.56-.63-.77-.99-1.29-2.21-3.15-3.92-5.04-5.59-.32-.22-.59-.49-.9-.72-5.63-4.14-11.95-6.15-18.92-5.84-4.62,.2-8.96,1.49-12.86,4.07-.25,.13-.5,.26-.73,.42-.31,.17-.57,.42-.86,.63-.71,.45-1.3,1.04-1.91,1.6-.42,.39-.82,.82-1.43,.91-.26-.04-.42-.19-.49-.45,.11-.75,.77-1.07,1.21-1.56,.41-.46,.85-.88,1.3-1.3,.21-.17,.43-.34,.72-.35,3.27-2.58,6.82-4.68,10.86-5.76,11.27-3.01,21.21-.65,29.67,7.51,.23,.22,.47,.44,.7,.66,.34,.04,.54,.22,.56,.58,1.12,1.53,2.2,3.1,3.37,4.59,.98,1.25,1.26,2.65,1.18,4.17,.33,.39,.27,.86,.26,1.3,0,.97,.02,1.95-.01,2.92-.02,.7,.16,.98,.96,.85,1.63-.26,3.19-.06,4.4,1.24,.1,.11,.2,.22,.3,.33,.15,.18,.27,.38,.41,.57,.06,.07,.11,.15,.16,.23,.2,.31,.35,.65,.53,.97,.09,.17,.18,.35,.25,.54,.41,1.25,.21,2.54,.19,3.82-.01,.66-.41,.9-1.05,.66-.21,.18-.18-.77-.5-.11-.35,.02-.52,.66-.98,.29Z"/><path class="cls-110" d="M83.69,13.43c.39-.39,.78-.78,1.16-1.16,1.5-.95,2.99-1.92,4.72-2.44,1.51-.45,1.83-.3,2.44,1.16,.18,.44,.42,.87,.63,1.3,.09,.43,.31,.8,.55,1.16,.6,1.42,1.41,2.79,.97,4.44,.04,.17,0,.3-.17,.37-.08,.1-.18,.19-.24,.3-.44,.83-1.6,1.53-1.44,2.34,.25,1.33,1.05,2.56,1.66,3.82,.19,.38,1.65,.14,2.06-.32,.06-.07,.1-.16,.16-.24,.78-1.05,1.71-1.38,2.57-.9,.97,.53,1.42,2.02,.96,3.08-.16,.37-.55,.67-.41,1.16,.13,.24,.23,.48,.19,.76-.04,.21-.11,.41-.34,.49-.69-.21-.68-.91-.97-1.4,0-.21,.08-.38,.2-.54,.53-.53,.92-1.1,.62-1.91-.17-.45-.38-.85-.9-.93-.46-.07-.89,.15-1.08,.53-.41,.84-1.09,1.03-1.94,1.2-1.08,.22-2.04,.83-2.87,1.6-.17,.16-.33,.34-.39,.56-.32,1.14-.3,2.35-.66,3.49-.05,.15,.04,.32,.13,.46,.89,1.39,1.8,2.76,2.91,3.98,.76,.84,2.33,.74,3.04-.12,.41-.49,1.02-.68,1.49-1.09,.72-.62,.78-1.04,.25-1.82-.17-.17-.37-.32-.37-.59,.29-.59-.02-1.25,.19-1.85,.48-.36,.6,0,.69,.36,.1,.4-.04,.83,.17,1.21,.11,.16,.24,.31,.36,.46,.53,.66,.52,1.34,.16,2.09-.54,1.1-.52,1.11,.47,1.77,1.13,.75,1.41,2.34,.62,3.47-.04,.09-.1,.17-.15,.25-.77,.71-2.5,.69-3.27,.01-.4-.34-.15-.79-.31-1.16,.14-.55,.29-1.1,.49-1.88-1.07,.86-2.02,.48-3,.29-1.03-.2-1.61-.89-2.32-1.59-1-.97-1.36-2.26-2.16-3.3-.11-.15-.19-.34-.24-.53-.41-1.51,.75-4.87,2.06-5.73,.63-.42,.77-.79,.35-1.4-.09-.13-.16-.29-.21-.44-.58-2.03-1.61-3.32-4.04-2.8-1,.21-1.82-.45-2.28-1.36-.86-1.68-1.68-3.37-2.49-5.07-.23-.48-.23-1.01-.05-1.52Z"/><path class="cls-7" d="M97.57,38.76c.41,1.44,2.37,2,3.48,.99,1.5,.35,3,.38,4.54,.21,1.78-.19,3.56,.22,5.34,.15,1.06,0,2.13,.09,3.18-.16,1.93-.13,3.85-.09,5.78-.03,.5,.08,.95,.22,.94,.86-.6,.34-1.23,.46-1.9,.28-.12-.14-.21-.26-.46-.25-2.51,.14-5.05-.19-7.53,.49-.48,.08-.89-.15-1.33-.26-1.55-.43-2.92-.05-4.07,1.01-.63,.59-1.15,.74-1.85,.14-.39-.34-1-.29-1.44-.59-1.78-.06-3.56,.06-5.34,.14-2.1,.1-4.19,.09-6.11,.08,3.42,.14,7.02-.21,10.62-.2,.29,0,.59-.06,.86,.1,.25,.39,.25,.78,.03,1.18-1.16,.48-2.41,.39-3.62,.46-2.4,.13-4.81-.02-7.21-.04-.32,0-.64-.05-.94,.09,2.19,0,4.36,0,6.54,0,.39,0,.79-.02,1.11,.26,.31,.53,.05,1.08,.05,1.62-.02,1.59-.02,3.18,.06,4.76-.06,.36-.32,.32-.58,.29-.44-.06-.67,.16-.67,.59,0,.44,.31,.5,.66,.51,.29,0,.58-.06,.87-.03,.51,.42,.86,.92,.78,1.63-.93-.42-1.87-.17-2.73,.13-.43,.15-.49,.88-.44,1.5-.49-.27-.74-.65-.99-1.03-.05-.08-.06-.16,0-.24,.35-.14,.22-.53,.42-.76,.91,.23,1.04-.27,.99-1.01-.08-1.14,.15-2.31-.29-3.43,.14-.28,.42-.33,.75-.4-.34,0-.62,.1-.91,.07-.18-.35-.35-.71-.53-1.06,.57-.19,1.15-.04,1.73-.11-.58,.08-1.16-.1-1.73,.1-.14-.19-.28-.38-.42-.56,.52-.41,1.12-.09,1.61-.21-.55,0-1.17,0-1.78,0-1.64-1.6-3.54-1.8-5.66-.95v-5.7c2.41,0,4.82,0,7.22,0,.48,0,.94,0,1-.64Z"/><path class="cls-25" d="M72.97,13.45l.71-.44c.21-.04,.3,.05,.27,.26-1.12,1.54-2.24,3.09-3.36,4.63-.16,.23-.31,.37-.64,.27-.88-.29-1.77-.53-2.85-.85,2.07-1.34,4.1-2.42,5.87-3.87Z"/><path class="cls-40" d="M43,27.65c-.13,.21-.31,.35-.55,.44-.44,.24-.91,.28-1.4,.3-1.39,.05-2.75-.24-4.14-.24-.36,0-.92,.03-.75-.66,.12-.26,.33-.44,.56-.59,1.89,.21,3.78,.44,5.69,.4,.27,0,.53,.01,.58,.36Z"/><path class="cls-75" d="M84.79,30.64c-.24-.14-.44-.32-.56-.58,.82-.45,1.69-.22,2.54-.14,.77,.07,1.53,.2,2.3,.3,.4,.05,1.04,0,.95,.52-.08,.51-.71,.26-1.09,.21-1.38-.16-2.75-.42-4.14-.31Z"/><path class="cls-73" d="M73.95,13.27l-.27-.26c.2-.2,.4-.4,.6-.59,.15,.01,.31-.2,.44,.04-.21,.26-.41,.53-.62,.79-.05,.01-.1,.02-.15,.03Z"/><path class="cls-110" d="M136.84,50.72c-.07,.25-.14,.5-.2,.75-.91,1.41-1.84,2.81-2.93,4.09-1.41,1.07-2.96,1.52-4.69,.89-.27-.1-.41-.05-.6,.1-.47,.36-.85,.12-1.21-.19-.4-.35-.51-.83-.21-1.22,.44-.57,.16-.94-.16-1.37-.49-.63-.72-1.3-.31-2.07,.08-.07,.17-.1,.27-.08,.14,.06,.22,.18,.27,.32,.1,1.01,.58,1.76,1.48,2.26,.31,.17,.64,.36,.83,.67,.25,.41,.4,.95,1.03,.84,.81-.14,1.72-.04,2.33-.8,.97-1.2,2.02-2.34,2.85-3.65,.33-.52,.28-1.06,.13-1.6-.11-.41-.33-.81-.26-1.23,.27-1.76-1.13-2.88-2.75-3.56-.36-.15-.75-.24-1.13-.29-.63-.09-1.05-.39-1.34-.98-.26-.55-.62-1.14-1.41-.88-.63,.21-1.17,1.2-1.03,1.83,.17,.73,.7,.96,1.39,.93,.13,0,.26-.01,.39,.01,.15,.05,.26,.13,.29,.3-.03,.15-.12,.27-.25,.35-.88,.22-1.51,.69-1.68,1.64-.03,.18-.14,.37-.35,.43-.3-.1-.33-.37-.37-.63,.1-.95,0-1.86-.29-2.78-.32-1.01,0-1.94,.76-2.67,1.04-1,2.51-.73,3.12,.55,.06,.08,.11,.16,.17,.25,.16,.05,.29,.17,.44,.26,.47,.21,.99,.31,1.44,.56,.72,.4,1.22,.25,1.51-.53,.2-.29,.23-.7,.59-.89,.57-.71,1.42-1.34,.55-2.41-1.62-1.98-1.46-3.97,0-5.96,.09-.13,.15-.28,.22-.43,.52-.86,1.02-1.72,1.55-2.56,.67-1.05,1.13-1.25,2.27-.82,2.01,.75,3.7,1.98,5.08,3.63,.58,.69,.73,1.44,.24,2.24-.99,1.6-1.98,3.19-2.99,4.78-.32,.51-.79,.85-1.32,1.11-1.01,.03-2-.15-2.99-.31-.53-.09-.87,.03-1.09,.53-.12,.27-.27,.52-.43,.76-.79,1.19-1.65,2.36,0,3.55,.21,.15,.28,.5,.41,.76-.21,1.21,.26,2.34,.37,3.51Z"/><path class="cls-110" d="M102.24,42.91l-.04-1.17c0-.16,.05-.27,.24-.21,.5-.09,1.07,.09,1.34,.37,.73,.74,1.14,.31,1.71-.17,1.64-1.37,3.46-1.4,5.35-.55,.88,.04,1.38,.64,1.84,1.26,1.04,1.38,1.33,2.99,1.37,4.66,.03,1.29,.01,2.58-.01,3.88,0,.16-.03,.32-.07,.47-.09,.29-.15,.6-.38,.83-.36,.6-.67,1.58-1.38,1.45-1-.19-1.84-.92-2.14-2.04-.12-.13-.09-.23,.04-.33,.21-1.87,.25-3.74,.06-5.62-.05-.46-.23-.87-.58-1.21-.92-.9-2.04-.62-2.39,.63-.38,1.38-.17,2.77-.03,4.16,.09,.84,.13,1.68,.18,2.52,.05,.97-.19,1.78-1.21,2.15-.39,.33-.82,.46-1.32,.29-.34-.21-.7-.34-1.09-.11-.33,.06-.59-.04-.82-.28-.07-.08-.13-.18-.18-.28-.42-.86-.25-1.75-.2-2.66,.11-2.04-.03-4.07-.27-6.1-.06-.55-.09-1.09-.13-1.64,0-.12,.03-.22,.1-.32Z"/><path class="cls-110" d="M118.86,40.96c.65-.03,1.28-.26,1.94-.15,.39-.04,.72,.06,.97,.39,.14,.23,.37,.3,.6,.36,1.54,.61,2.54,2.77,2.12,4.63-.4,1.81-1.88,2.95-3.66,2.83-.7-.05-1.26-.32-1.59-.95-.32-.61-.32-1.19,.3-1.64,.34-.25,.7-.49,.57-1.01-.92,.37-1.45,1.84-1.1,3.04,.41,1.4,1.14,1.83,2.57,1.54,.95-.19,1.77-.6,2.41-1.36,.34-.4,.68-.88,1.2-.13,.31,.44,.43-.16,.66-.22,.2-.05,.35-.36,.59-.23,.27,.14,.24,.44,.23,.69-.03,.56-.15,1.09-.4,1.59-.26,.39-.34,.9-.79,1.15-1.92,2.36-4.21,3.17-6.77,2.39-1-.3-1.72-1.03-2.53-1.61-.4-.18-.59-.57-.83-.9-.27-.51-.73-.91-.84-1.5-.24-1.02-.27-2.06-.21-3.09,.16-2.54,1.57-4.31,3.64-5.63,.26-.17,.57-.33,.91-.18Z"/><path class="cls-110" d="M78.39,54.26c-.93-.3-1.88-.4-2.45-1.48-.4-.75-.23-1.06,.3-1.47-.26-.44-.15-.83,.14-1.2,.47-.77,1.18-1.07,2.06-1.02,.39,.02,.78,.02,1.16-.08,.32-.09,.64-.21,.69-.6,.05-.44-.28-.62-.62-.77-.33-.15-.69-.17-1.04-.23-1.69-.32-2.93-1.18-3.45-2.89-.43-1.41,.02-2.7,1.25-3.57,.95-.51,1.92-.65,2.94-.21,.65,.58,1.31,1.16,1.29,2.14-.27,.57-.74,.79-1.35,.86-.2,.02-.64-.22-.58,.32,.45,.41,1.02,.57,1.57,.74,1.2,.36,2.29,.95,3.29,1.65,1.18,.84,1.53,2.11,1.35,3.52-.08,.48-.29,.91-.5,1.33-.16,.28-.28,.6-.6,.76-1.42,1.71-3.27,2.33-5.44,2.18Z"/><path class="cls-7" d="M102.26,43.07c.39,1.58,.47,3.19,.51,4.8,.03,1.32,.08,2.65-.06,3.98-.07,.67,.03,1.35,.35,1.98-.32,.39-.76,.17-1.14,.23,.39-.03,.83,.21,1.13-.24,.23,.1,.42,.37,.72,.16,.33,.07,.65,.29,1.01,.1,.46,.22,.91-.02,1.36-.07-.07,.25-.09,.44,.28,.44,.31,0,.66-.11,.96,.2-.13,.33-.55,.05-.79,.49,.85-.12,1.23,1.4,2.28,.35,.18-.18,.42,.03,.56,.23,.13,.18,.25,.39,.43,.52,.29,.22,.66,.26,.85-.08,.26-.46-.42-.21-.45-.54,.71-.26,1.37-.51,1.67,.55,.14,.5,.62,.53,.96,.38,.43-.19-.1-.44-.1-.65,1.12-.32,2.1,0,3.07,.49,.32,.16,.52,.28,.83-.26,.39-.68,1.33-.31,1.97-.17,1.3,.27,2.58,.47,3.89,.15,.29-.07,.61-.2,.85-.04,.37,.24,.6,.18,.92-.1,.34-.29,.82-.24,1.21-.08,.23,.1,.49,.37,.18,.7-1.32-.26-1.53,.9-2.09,1.62-.11,.07-.22,.14-.35,.14-.62,0-.99,.19-.79,.9,.04,.16-.05,.31-.16,.44,.37,.03,.77-.09,1.08,.21,.06,.21,.07,.38-.21,.41-.54,0-1.08,0-1.61-.01-.37-.77,.03-1.56-.04-2.34,.56-.47,1.39-.06,1.79-.6-.53,.16-1.32-.1-1.9,.5-.62,.24-1.27,.24-1.91,.18-.8-.07-1.32,.13-1.45,.99-.02,.13-.11,.23-.22,.3-.56-.37-.83-1.18-1.67-1.15-.57-.36-1.38,.11-1.86-.54,.19-.43,.63-.28,.98-.44-.74-.03-1.42,.19-2.13,.18,.16,.03,.33,.02,.44,.16-.2,.57-.62,.74-1.18,.64-.63-.6-.88,.31-1.36,.34-1.14-.79-2.33-.62-3.52-.15-.09-.28-.61-.3-.49-.64,.12-.34,.51-.14,.79-.18,1.16-.17,2.31,.02,3.47,0,.19,0,.54,.14,.54-.2,0-.27-.13-.58-.29-.81-.19-.27-.33,.06-.49,.1-1.01,.28-2.05,.16-3.08,.1-2.19-.14-4.39-.32-6.58-.13-1.36,.12-2.63-.24-3.96-.24-.4,0-.55-.12-.23-.52,.88-1.09,2.26-1.28,3.47-.43,.18,.12,.36,.21,.54,.14,.5-.2,1.44,.1,1.39-.67-.04-.55-.91-.31-1.37-.25-.88,.11-1.74-.11-2.61-.04-.22,.02-.51,0-.46-.34,.04-.27,.26-.2,.46-.18,.51,.05,1.02,.05,1.45-.3,.38-.02,.57-.32,.8-.56,.22-.09,.45-.04,.68-.07-.33-.11-.62,.13-.93,.05-.35-.56-.3-1.09,.13-1.59,.3-.22,.67-.18,1.01-.23,.33-.06,.54-.22,.52-.57-.01-.33-.27-.4-.54-.44-.28-.04-.58-.04-.8-.27-.33-.95-.22-1.92-.09-2.88,.16-1.23,.37-2.44-.45-3.53,.51-.48,1.31-.16,1.82-.65Z"/><path class="cls-34" d="M100.47,43.7c.83,.45,.96,1.17,.86,2.05-.16,1.45-.23,2.9-.34,4.35,.19,.54,.24,1.08-.09,1.59-.26,.52-.3,1.05-.04,1.58h0c.15,.73-.23,.74-.76,.53-.2-.3-.44-.57-.75-.76l-.82-1.55c-.37-.31-.64-.65-.42-1.16-.22-2.21-.37-4.41,.09-6.61,.57-.6,1.63-.61,2.26-.02Z"/><path class="cls-25" d="M81.52,61.08c-.06,.14-.15,.28-.18,.43-.04,.24,.41,.56-.05,.73-.33,.12-.72,.12-1.04-.06-.35-.2-.29-.54-.21-.87,.14-.57,.29-1.13,.41-1.7,.07-.34,0-.67-.39-.78-.47-.13-.54,.25-.62,.56-.19,.72-.39,1.44-.51,2.17-.13,.79-.69,.68-1.18,.6-.68-.1-.28-.58-.23-.91,.07-.51,.2-1.02,.3-1.52,.05-.9,.14-1.79,.44-2.65,.13-.38,.31-.71,.72-.85,.89-.3,1.34,.07,1.22,1.02-.02,.16-.1,.32,.08,.52,.43-.26,.62-.63,.45-1.11-.14-.4-.48-.57-.92-.57-1.04,0-1.86,.6-2.1,1.54-.12,.47,0,1.16-.84,.99-.78-.16-.49-.76-.47-1.25,.31-.75,.99-1.12,1.6-1.56,1-.26,1.98-.57,3.03-.24,1.28,.4,1.61,1.32,.77,2.34-.29,.35-.36,.51-.08,.93,.48,.74-.15,1.48-.2,2.23Z"/><path class="cls-101" d="M98.72,62.26c-.49-.32-.94-.4-1.53-.13-.43,.2-.98,.2-1.45-.08-.32-.22-.57-.47-.58-.89-.03-.38,.1-.73,.23-1.08,.42-1.84,1.26-2.44,3.15-2.26,.03,0,.06,.04,.09,.03,.53-.16,1.25-.41,1.51,.04,.2,.35-.17,1.04-.29,1.57-.08,.35-.16,.7-.25,1.04-.09,.33-.18,.69,.21,.84,.3,.12,.54-.12,.72-.37,.1-.15,.13-.38,.38-.4,.09,1.03-.7,1.63-2.2,1.68Z"/><path class="cls-101" d="M121.63,57.94c.48,.79-.04,1.57-.05,2.35-.21,.28-.32,.6-.08,.87,.28,.31,.58,.05,.85-.1,.34-.03,.37,.12,.21,.37-.29,.52-.73,.8-1.34,.81-.87,.01-1.29-.37-1.22-1.23,.05-.57,.22-1.14,.34-1.71,.06-.3,.09-.63-.26-.74-.34-.11-.57,.16-.65,.45-.26,.83-.55,1.66-.7,2.52-.16,.91-.84,.78-1.33,.63-.66-.2,.17-.79-.17-1.16-.37,.32-.58,.84-1.1,1.01-.22-.15-.32-.34-.23-.61,.4-.38,.68-.87,1.3-1.05,.36-.1,.14-.76,.51-1,.05-.12,.11-.23,.14-.35,.33-1.38,.33-1.36,1.77-1.2,.59,.07,1.19-.24,1.79-.04,.11,.01,.19,.08,.23,.18Z"/><path class="cls-101" d="M115.94,61.43c.06,.19,.12,.39,.18,.58-.59,.33-1.19,.39-1.68-.14-.33-.35-.5-.08-.73,.07-.57,.36-1.16,.44-1.74,.09-.58-.36-.59-.96-.55-1.56,.05-.88,.49-1.59,1.01-2.27,.4-.21,.8-.41,1.21-.62,.23-.24,.45-.24,.68,0,.39,.36,.85,.07,1.27,.12,.32,.04,.74-.11,.76,.44,.24,.38,.05,.75-.05,1.11-.21,.71-.26,1.45-.36,2.17Z"/><path class="cls-25" d="M106.53,61.23c-.8,1.16-1.3,1.28-2.53,.54-.35-.21-.48,.05-.66,.18-.5,.34-1.04,.47-1.55,.14-.58-.38-.56-.96-.39-1.57,.2-.72,.36-1.45,.5-2.19,.09-.47,.33-.61,.8-.63,.69-.03,.87,.22,.67,.86-.2,.65-.37,1.32-.51,1.98-.06,.26-.18,.63,.22,.74,.34,.09,.54-.2,.67-.46,.37-.77,.43-1.63,.64-2.44,.09-.37,.18-.66,.67-.67,.67-.02,1.1,.04,.78,.89-.21,.58-.33,1.19-.45,1.8-.05,.27-.24,.61,.02,.83,.31,.26,.61,.02,.88-.16,.19-.09,.25-.01,.24,.17Z"/><path class="cls-12" d="M89.9,62.04c-.38,.06-.76,.15-1.14,.17-.85,.04-1.42-.33-1.59-1.27-.51,.3-.77,.85-1.34,.94-.38-.2-1.07,.38-1.18-.49,1.16,.14,2.87-.68,3.42-1.68,.27-.48,.56-.97,.7-1.5,.22-.85,.9-.7,1.48-.77,.33-.04,.3,.26,.32,.48,.05,.48,.11,.97,.14,1.45,.02,.45,0,.9,0,1.32,.43,.24,.64-.29,1.05-.09-.45,.73-1.31,.9-1.87,1.44Z"/><path class="cls-35" d="M123.59,58.14c.4-.78,.32-2.01,1.75-1.8,.17,.03,.3,.09,.38,.24-.11,.4-.51,.82,.1,1.18,.15,.09,.05,.22-.07,.3-1.06,.68-.81,1.87-1.06,2.84-.13,.49,.42,.44,.77,.26,.27-.14,.33-.55,.71-.62-.15,1.07-1.1,1.82-2.08,1.68-.79-.11-1.01-.57-.89-1.93l.13-.4c-.22-.63,.11-1.19,.26-1.77Z"/><path class="cls-101" d="M95.4,60.09c0,.41,0,.82-.01,1.23-.58-.06-.67,.74-1.24,.71-.61,.22-1.22,.3-1.83,.01-.27-.36-.38-.78-.28-1.2,.32-1.32,.44-2.68,.88-3.97,.24-.72,.86-.53,1.31-.49,.54,.05,.16,.51,.15,.77,0,.26-.15,.5,.24,.6,.17,.04,.15,.18,0,.27-1.07,.63-.7,1.85-1.12,2.75-.08,.17-.03,.4,.19,.49,.23,.1,.47,.07,.64-.09,.37-.34,.71-.71,1.07-1.08Z"/><path class="cls-98" d="M84.66,61.4c.24,.54,.91,.02,1.18,.49-.75,.48-1.54,.38-2.34,.17-.94-.9-.58-1.91-.17-2.87,.41-.95,1.16-1.54,2.25-1.58,.48-.02,.95,.05,1.15,.54,.18,.45,.04,.89-.27,1.27-.34,.42-.76,.72-1.28,.82-.75,.15-.9,.53-.52,1.17Z"/><path class="cls-35" d="M106.53,61.23l-.24-.17c.93-.65,1.2-1.6,1.25-2.66,.15-.46,.37-.78,.96-.7,.6,.08,1.19,.25,1.84,.05,.49-.14,.72,.31,.72,.8-.3,.44-.68,.65-1.13,.24-.64-.59-.87-.07-1.02,.39-.25,.77-.46,1.57-.58,2.37-.12,.79-.64,.69-1.16,.66-.78-.04-.31-.55-.28-.85,.07-.7-.25-.1-.38-.13Z"/><path class="cls-71" d="M110.1,51.37c-.01,.11-.02,.22-.04,.33-.62,0-1.24-.03-1.86,0-.51,.02-.67-.19-.69-.68-.03-1.02,.14-1.18,1.17-1.04,.85,.12,1.59,.27,1.41,1.39Z"/><path class="cls-39" d="M93.08,49.93c.13,.38,.25,.77,.38,1.15-.04,.15-.09,.4-.24,.37-.89-.19-1.82,.33-2.69-.17-.26-1.19-.18-1.31,.98-1.51,.53-.09,1.08-.21,1.56,.16Z"/><path class="cls-2" d="M93.08,49.93c-.54,.03-1.1,.13-1.62,.14-.97,.01-1.05,.49-.92,1.22l-.03,.23c-.37-.83-.08-2.47,.54-3.04,.48-.43,.96-.34,1.36,.09,.35,.38,.62,.83,.67,1.36Z"/><path class="cls-107" d="M125.49,51.47l.58-1.15c.69-.36,1.14-.25,1.22,.62-.04,.39-.25,.64-.62,.76-.05,0-.1,.01-.15,.02-.34-.07-.76,.13-1.03-.24Z"/><path class="cls-64" d="M115.54,51.32c.32,.24,.45,.61,.65,.94l-2.6,.03c.02-.28,0-.57,.17-.81,.59-.06,1.2,0,1.78-.15Z"/><path class="cls-18" d="M83.83,52.08c.14-.26,.28-.53,.42-.79,.46,.15,.76,.07,.75-.5,0-.23,0-.45,.08-.67,.04-.09,.1-.15,.19-.2l.34,2.56c-.54-.37-1.24-.02-1.78-.4Z"/><path class="cls-112" d="M95.22,53.46l-.02,.19c-.28,.21-.18,.7-.68,.84-.12-.49-.38-.94-.25-1.49,.43,.21,.44-.7,.92-.36,.26,.26,.23,.53,.03,.81Z"/><path class="cls-35" d="M122.57,61.44c0-.17-.05-.3-.21-.37,.08-.24,.26-.62,.46-.45,.36,.3-.03,.58-.25,.83Z"/><path class="cls-67" d="M33.6,49.95c-.28-.69,.15-1.5,.86-1.43,.51,.05,.44-.19,.47-.48,.16-1.49,1.54-2.4,3-1.98,.5,.14,1,.29,1.5,.44,.75,.23,1.41,.06,1.99-.46,.43-.39,.87-.77,1.29-1.18,.8-.79,.6-1.97-.46-2.34-.82-.28-1.7-.39-2.55-.58-1.37,.12-2.3-.73-3.21-1.53-.74-.66-1.44-1.59-1.47-2.46-.05-1.75,.28-3.53,2.01-4.59,.33-.2,.66-.42,1.03-.56,.33-.09,.66-.19,.99-.3,2.4-.57,4.7,1.05,4.8,3.38,.06,1.32-.56,1.92-1.87,1.82-.36-.03-.7-.14-1.06-.18,2.26,.81,4.5,1.64,6.53,2.94,2.45,1.99,3.35,5.62,.68,9.46-.28,.4-.47,.88-1,1.03-2.18,2.39-4.87,3.47-8.11,3.15-1.6-.16-2.98-.84-4.25-1.78-.4-.39-.47-.94-.73-1.41-.34-.22-.52-.52-.43-.94Z"/><path class="cls-67" d="M63.54,54.05c-1.04,.49-2.81-.03-3.22-1.06-.29-.73-.52-.41-.87-.15-1.97,1.42-4.05,1.55-6.24,.56-1.13-.51-1.76-1.48-2.38-2.47-.38-.26-.44-.71-.63-1.08-.3-.87-.41-1.76-.43-2.68-.03-1.19,0-2.39-.14-3.58-.23-1.8,1.61-3.34,3.52-3.04,.61,.1,1.21,.24,1.74,.58,.24,.15,.44,.34,.62,.55,.77,1.06,.97,2.12,.31,3.35-.51,.96-.49,2.08-.37,3.15,.09,.86,.7,1.11,1.36,.53,.98-.84,1.35-2.03,1.75-3.2,.4-1.19,1.06-2.24,1.75-3.27,.28-.42,.77-.76,1.34-.62,.65,.15,.9,.7,1.07,1.28,.16,.57,.12,1.16,.11,1.74-.04,2.58,.28,5.11,.77,7.63,.11,.59,.28,1.19-.06,1.76Z"/><path class="cls-67" d="M68,53.45c-.85,.46-1.67,1.14-2.69,.33-.19-.15-.38-.03-.52,.1-.43,.4-.6-.07-.86-.24-.57-.71-.33-1.58-.49-2.37,.02-2.91-.03-5.81-.52-8.68-.06-.36-.03-.71,.22-1.01,.21-.21,.47-.25,.75-.23,.29,.05,.61,.11,.81,.3,.69,.65,1.2,.36,1.68-.26,.25-.24,.54-.42,.87-.53,1.35-.54,2.7-.62,4.07-.08,.2,.08,.4,.17,.59,.26,1.93,1.02,2.82,2.71,2.99,4.8,.13,1.55,.05,3.1,.02,4.66,0,.23-.07,.45-.22,.63,0,.03-.01,.06-.01,.1-.06,1.06-.36,2.2-1.38,2.47-.88,.24-1.55-.72-2.12-1.41-.38-.32-.28-.76-.31-1.18-.1-1.56,.19-3.11-.02-4.67-.05-.39-.08-.78-.24-1.14-.23-.52-.61-.86-1.2-.83-.63,.02-.92,.49-1.01,1.02-.19,1.09-.16,2.2-.02,3.3,.16,1.23,.08,2.47,.1,3.7,0,.39-.05,.79-.49,.97Z"/><path class="cls-9" d="M74.71,51.12c-.02-1.68-.03-3.35-.07-5.03-.05-2.17-1.04-3.81-2.9-4.93,.36-.37,.83-.32,1.27-.29,1.16,.08,2.36-.35,3.47,.3-1.07,.83-1.36,1.91-1.07,3.2,.33,1.46,1.32,2.26,2.68,2.66,.56,.16,1.15,.2,1.71,.37,.48,.14,.89,.43,.87,1.02-.02,.58-.44,.74-.91,.81-.32,.05-.65,.16-.96,.12-.99-.13-1.78,.15-2.36,.97-.82-.32-1.31,.02-1.57,.79-.05,0-.1,0-.15,0Z"/><path class="cls-108" d="M68,53.45c.53-1.46,.24-2.95,.11-4.42-.1-1.17-.21-2.33-.03-3.49,.11-.71,.34-1.42,1.26-1.48,.77-.05,1.52,.57,1.7,1.44,.39,1.86,.08,3.74,.12,5.62,0,.39,.02,.77,.03,1.16-.49,0-.97,.02-1.46,.01-.4,0-.86,.17-.81,.51,.07,.48,.54,.24,.86,.17,.16-.04,.31-.11,.57,.14-.76,.6-1.6,.27-2.37,.35Z"/><path class="cls-41" d="M76.4,57.37c.02,.26,0,.53,.08,.77,.1,.31,.36,.47,.68,.42,.35-.05,.19-.35,.21-.55,.14-1.41,1.51-2.45,2.89-2.17,.52,.11,.87,.42,.89,1,.02,.68-.45,1.2-1.29,1.45-.2-.36,.11-.69,.08-1.02-.02-.29,.46-.77-.13-.86-.48-.07-1.13-.23-1.29,.62-.18,.92-.46,1.81-.7,2.71,.16-.75-.64-.71-.91-.83-.84-.39-.79-.88-.5-1.53Z"/><path class="cls-30" d="M50.47,49.93l.36,.99c-.03,.16-.08,.35-.26,.35-1.06,.02-2.11,.02-3.17,0-.18,0-.24-.18-.27-.35l.76-1c.86-.44,1.72-.43,2.59,0Z"/><path class="cls-28" d="M74.86,51.11c.14-.38-.25-1,.36-1.12,.38-.07,.97-.36,1.21,.32-.06,.33-.13,.66-.19,1-.46-.1-.97,.19-1.38-.2Z"/><path class="cls-65" d="M94.15,62.03c.28-.3,.55-.6,.83-.9,.32-.35,.26,.15,.41,.19-.04,.33,.29,.47,.36,.74l-1.6-.03Z"/><path class="cls-36" d="M63.71,51.31c.11,.78-.08,1.58,.23,2.34-.13,.13-.27,.27-.4,.4,.12-.61-.17-1.18-.18-1.77,.27-.27-.32-.85,.35-.97Z"/><path class="cls-31" d="M15.64,22.8c-.16,.03-.33,.04-.41,.21-.37-.19-.74-.37-1.08-.76,.62,.02,1.06,.29,1.49,.55Z"/><path class="cls-20" d="M58.26,12.05c-.36,.55-.83,.99-1.37,1.36-1.62,.48-3.25,.5-4.87-.01-.5-.36-.91-.78-1.22-1.31,.13-.08,.28-.23,.4-.22,2.21,.23,4.42-.17,6.63,0,.15,.01,.28,.12,.42,.18Z"/><path class="cls-6" d="M126.87,32.58l.39,.77c.51,2.3,.05,3.42-1.75,4.32-.52,.49-1.12,.43-1.74,.28-.6-.14-.86,.03-.95,.7-.26,1.9-.3,1.9-2.12,1.39-.34-.1-.69-.18-1.04-.25-.67-.17-1.36-.28-2.04-.41-3.81-.7-7.6-.65-11.35,.38-.54,.05-1.1,.35-1.58-.16-.28-.62-.17-1.28-.16-1.92,.01-.69-.21-1.13-.88-1.44-2.88-1.34-3.6-4.04-3.11-6.84,.11-.61,.39-1.17,.96-1.52,.64-.68,1.41-1.14,2.35-1.24,.7-.07,.85-.47,.93-1.1,.23-1.94,.84-3.68,2.81-4.56,1.42-.63,2.79-.38,4.15,.21,.3,.13,.58,.28,.88,.42,.39,.06,.78,.1,1.16,.19,1.21-.66,2.45-.71,3.72-.18,.24,.16,.56,.28,.71,.5,.9,1.32,2.12,1.52,3.65,1.48,1.55-.04,2.51,1.23,3.3,2.44,.86,1.32,1.22,2.83,.93,4.37-.19,.98,.1,1.61,.79,2.19Z"/><path class="cls-53" d="M101.5,27.89c-1.37,2.61-1.1,5.22,.7,7.09,.48,.5,1.05,.89,1.7,1.09,.71,.21,.87,.62,.84,1.29-.04,.74,.03,1.49,.06,2.23-1.23,.51-2.47,.45-3.7,0,.76-1.01,.53-1.97-.15-2.9-.11-.15-.25-.31-.41-.39-1.1-.53-1.2-.76-.63-1.75,.42-.74,.54-1.46-.02-2.18,.56-1.18,.55-1.2-.47-1.76-.24-.78-.1-1.58-.08-2.37,0-.25,0-.51,0-.76,.68,.37,1.48,.06,2.16,.4Z"/><path class="cls-52" d="M94,18.26l.17-.37c.27-.32,.56-.48,1.02-.35,.58,.17,1.18,.25,1.76,.41,.26,.07,.59,.12,.56,.53-1.2,.46-2.35,.06-3.5-.22Z"/><path class="cls-54" d="M113.78,21.79c-.46,.42-.83,.21-1.16-.19,.51-.69,.88-.53,1.16,.19Z"/><path class="cls-85" d="M38.03,32.97c-1.06,.7-2.17,1.36-2.48,2.73-.17,.75-.61,1.66-.35,2.24,.36,.8,.73,1.72,1.45,2.35,.89,.78,1.91,1.3,3.03,1.64-.28,.32-.66,.19-1,.19-1.88,.01-3.75,0-5.63,.01-.98,0-1.97,.05-2.95,.09-.52,.02-.99-.02-.98-.71,.64-3.48,2.01-6.67,3.83-9.68,.93-1.55,1.96-3.05,3.22-4.36,.05,.41,.35,.39,.65,.4,1.88,.07,3.76,.14,5.63,.21-.86,.9-1.73,1.79-2.59,2.69-.44,.87-.99,1.66-1.83,2.19Z"/><path class="cls-30" d="M33.6,49.95c.14,.31,.29,.62,.43,.94-.05,.39-.33,.42-.64,.42-1.39,0-2.79-.02-4.18,0-.52,0-.66-.21-.67-.7,0-.51,.19-.68,.69-.68,1.46,.02,2.92,.01,4.38,.02Z"/><path class="cls-5" d="M28.72,43.69l.06-.58c2-.03,4.01,.05,6-.11,2.09-.16,4.18,.37,6.26-.07,.27-.06,.63-.12,1.08,.33-4.61,.15-9,.29-13.39,.43Z"/><path class="cls-76" d="M28.72,53.29q.2-.89,1.17-.38c-.44,.14-.81,.26-1.18,.38h0Z"/><path class="cls-24" d="M7.95,41.05c-.19-.04-.42-.07-.44-.3-.02-.23,.17-.33,.38-.35,.21-.02,.4,.09,.43,.3,.04,.27-.21,.28-.38,.35Z"/><path class="cls-103" d="M127.08,51.12c.12-.84-.45-.81-1.01-.8,.25-.73,.48-1.46,.41-2.27-.5,.4-.96,.78-1.52,1.24,.18-.48,.25-.85-.17-1.19-.8,.91-1.61,1.83-2.9,2.12-1.97,.44-3.5-.86-3.26-2.87,.09-.72,.41-1.37,.84-1.94,.21-.28,.5-.8,.91-.44,.27,.24,.11,.77,.01,1.16-.01,.05-.07,.12-.13,.14-.81,.35-1.4,.8-.78,1.76,.52,.82,1.68,.97,2.71,.59,2.99-1.12,2.63-4.87,.72-6.64-.17-.15-.35-.29-.52-.43,3.25-.09,6.49-.19,9.74-.24,.48,0,1.35-.18,1.38,.29,.05,.62-.84,.24-1.26,.5-.22,.13-.57,.05-.87,.03-.42-.02-.6,.17-.58,.57-.95-.98-1.71-1.19-2.55-.71-.97,.55-1.5,1.81-1.06,2.94,.34,.88,.41,1.74,.26,2.64-.11,.88,.25,1.75,.09,2.64-.07,.35,.08,.8-.46,.91Z"/><path class="cls-61" d="M119.65,39.56c.69,.03,1.35,.23,1.98,.46,.69,.26,.86-.05,.95-.64,.09-.6-.28-1.42,.17-1.75,.35-.25,1.11,.1,1.69,.13,.35,.02,.71-.06,1.06-.1-.32,.59,.1,.56,.48,.56,1.03,0,2.06,0,3.3,0-.5,.56-.96,.58-1.43,.58-1.17,0-2.35-.03-3.52,.02-.56,.02-1.45,.06-1.44,.65,.01,.63,.85,.28,1.31,.29,2.34,.07,4.67-.06,6.99-.36,.73-.09,1.46,.26,2.21,.02,.2-.06,.59,.06,.58,.37-.01,.3-.38,.4-.61,.36-1.39-.27-2.7,.46-4.12,.28-1-.12-2.07,.17-3.09,.37-.44,.09-.81,.02-1.23-.03-1.08-.12-2.12,.16-3.16,.41-.36-.03-.66-.22-.97-.39-.14-.36-.37-.6-.77-.63-.09-.23-.51-.25-.38-.62Z"/><path class="cls-63" d="M131.18,43.3c-.16-.07-.2-.2-.21-.36,.12-.26,.31-.44,.6-.42,1.14,.08,2.24-.35,3.38-.18,0,.38-.13,.71-.43,.96-1.12,.6-2.23,.2-3.34,0Z"/><path class="cls-62" d="M26.38,54.6c.3-.17,.62-.19,.95-.19,.13,.07,.5,.1,.16,.3-.34,.2-.77,.24-1.11-.12Z"/><path class="cls-55" d="M138.05,48.26c-.45-.26-1.3,.22-1.27-.36,.03-.61,.85-.24,1.32-.29,.54-.06,1.1-.01,1.65,0,.17,0,.33,.06,.36,.25,.03,.2-.1,.32-.28,.31-.44-.02-.6,.19-.69,.61-.1,.42-.56,.56-.92,.62-.4,.06-.97,0-1.06-.44-.09-.46,.54-.43,.88-.7Z"/><path class="cls-81" d="M52.02,13.41c1.62,0,3.25,0,4.87,.01-1.82,1.37-3.16,1.36-4.87-.01Z"/><path class="cls-19" d="M47.29,40.58c-2.24-1.38-4.76-2.13-7.21-3.11,.24-.4,.49-.41,.76-.33,.16,.04,.3,.12,.46,.17,.81,.23,1.62,.35,2.24-.39,.33-.39-.07-1.82-.44-2.45-.95-1.6-2.26-2.24-4.07-1.74,.03-.84,.63-1.21,1.29-1.51,1.14-.8,1.98-1.99,3.26-2.61,1.49,.07,2.97,.23,4.46,.34,2.72,.19,5.42,.63,8.16,.59-1.36,.02-2.72-.09-4.07-.2-.29-.02-.66,.03-.67-.37-.01-.33,.35-.31,.58-.39,2.61-.21,5.19,.23,7.78,.45,1.75,.15,3.51,.13,5.26,.24,2.1,.13,4.21,.28,6.33,.28,2.21,0,4.41,.24,6.6,.52,1.97,1.46,3.53,3.29,4.92,5.29,.38,.55,.72,1.1,1.24,1.57,.56,.51,.87,1.28,.9,2.09-1.21,.4-2.48,.42-3.73,.43-3.37,.03-6.74,.16-10.11,.34-3.34,.18-6.68,.13-10.03,.1-.44,0-.94-.11-1.13,.48-.19,.2-.45,.28-.71,.28-2.04-.03-4.08,.12-6.12,.04-1.52-.06-3.03,.26-4.56,.23-.5-.01-.96-.03-1.38-.33Z"/><path class="cls-33" d="M44.93,27.66c3.11-2.3,6.7-3.45,10.44-3.98,6.62-.94,12.89,.31,18.72,3.62,1.1,.62,2.2,1.26,3.12,2.14-.71,.51-1.51,.3-2.27,.24-2.99-.22-5.98-.36-8.96-.55-3.83-.24-7.67-.25-11.49-.66-2.71-.29-5.45-.34-8.18-.48-.48-.03-.99,.08-1.38-.32Z"/><path class="cls-51" d="M47.29,40.58c2.36-.01,4.72,.09,7.07-.09,1.56-.12,3.11-.02,4.65-.12,.34-.02,.72,.13,1.01-.19,.28-.29,.65-.3,1-.25,.75,.11,1.5-.02,2.23,.05,1.37,.13,2.73-.1,4.08-.07,2.93,.07,5.83-.29,8.74-.44,2.26-.11,4.53-.03,6.79-.09,.75-.02,1.48-.1,2.22-.23,.17,.41,.1,.82,0,1.23-1.94,.08-3.87,.33-5.83,.26-2.63-.1-5.26,.03-7.88,.34-1.39-.43-2.77-.44-4.12,.16-4.1,.3-8.22,0-12.33,.27-.94-.45-1.9-.82-2.98-.51-1.43,.41-2.19,1.26-2.05,2.73,.17,1.73-.05,3.48,.34,5.18,.08,.38,.16,.75,.24,1.13-.86,0-1.72,0-2.59,0,.62-1.26,1.46-2.44,1.59-3.91,.19-2.19-.57-3.98-2.18-5.45Z"/><path class="cls-40" d="M44.93,27.66c3.15-.01,6.29,.22,9.41,.48,3.26,.27,6.52,.39,9.79,.54,3.33,.15,6.66,.34,9.98,.6,1.04,.08,2.07,.16,3.1,.16,.36,.08,.52,.41,.78,.62-.62,.32-1.29,.2-1.91,.13-2.26-.29-4.53-.31-6.8-.38-3.73-.12-7.46-.28-11.17-.6-2.04-.18-4.07-.38-6.11-.35-2.06,.27-4.1-.13-6.16-.11-.57,0-1.27,.11-1.49-.7,.14-.2,.33-.32,.57-.37Z"/><path class="cls-51" d="M84.68,49.95c.25-1.63-.46-2.86-1.84-3.69-1.13-.68-2.34-1.07-3.54-1.53-.35-.14-.76-.21-.94-.61,.92-.47,1.92-.42,2.91-.49,1.02-.07,2.05,.1,3.07-.18-.82-.24-1.66-.27-2.51-.2-.48,.04-.98,.1-1.33-.35,.04-.89-.75-1.28-1.16-1.9,.2-.26,.5-.3,.79-.3,1.65-.01,3.3-.01,4.95-.11,.05,2.6-.11,5.2,.09,7.79,.04,.52,.08,1.03,.12,1.55l-.07,.06c-.18,.14-.36,.12-.52-.03Z"/><path class="cls-58" d="M85.07,39.14c-.09,.49-.47,.45-.83,.45-1.8,0-3.61-.04-5.41,.02-1.76,.06-3.52,.17-5.28,.29-1.11,.08-2.2,.35-3.31,.27-2.32-.18-4.63,.22-6.97,.1-1.06-.06-2.17-.21-3.26-.08-.08-.57-.08-.58,.61-.58,2.41,0,4.82,.06,7.23-.01,4.88-.14,9.75-.43,14.62-.47,.86,0,1.7-.73,2.57-.11,.05,.04,.06,.08,.02,.14Z"/><path class="cls-87" d="M85.06,40.57c-.4,.32-.85,.4-1.36,.4-1.46-.02-2.92,0-4.38,.02-.99-.57-1.92-.2-2.85,.18-1.58,0-3.15,0-4.73,0l-.38-.19c-.42-.44-.06-.38,.25-.4,3.01-.25,6.02-.2,9.03-.18,1.11,0,2.19-.31,3.3-.21,.39,.04,.78,0,1.14,.2v.2Z"/><path class="cls-50" d="M44.36,28.03c.43,.42,.98,.41,1.53,.43,1.87,.06,3.73,.13,5.6,.19,.2,0,.39,.02,.52,.19-.15,.04-.4-.06-.41,.14-.01,.24,.25,.26,.43,.25,1.17-.08,2.32,.16,3.49,.2,.32,.01,.64,0,.96,.19-1.18,0-2.37,.12-3.52-.03-1.71-.22-3.44-.02-5.12-.37-1.41-.29-2.92,.12-4.25-.62,.21-.27,.45-.48,.79-.57Z"/><path class="cls-59" d="M40.31,31.21c-.33,.59-1.05,.85-1.29,1.51-.33,.08-.65,.16-.98,.24,.55-.78,1.1-1.56,1.83-2.19,.09,.2,.23,.35,.44,.44Z"/><path class="cls-1" d="M95.01,46.05c.86-.48,1.74-.06,2.62-.07-.79,.36-1.63,.2-2.44,.27l-.18-.2Z"/><path class="cls-65" d="M96.14,47.88c.15-.27,.42-.31,.68-.27,.31,.05,.86-.22,.85,.31-.01,.47-.46-.02-.71,.1-.2,.1-.43,.13-.65,.19-.14-.07-.17-.19-.17-.34Z"/><path class="cls-65" d="M95.22,53.46c-.01-.27-.02-.54-.03-.81,.08-.19,.17-.38,.26-.6,.26,.19,.16,.41,.16,.61,.15,.4,.58,.94-.39,.81Z"/><path class="cls-97" d="M99.12,32.56c.78,.28,.69,.83,.43,1.42-.26,.6-.78,.94-1.31,1.27-.41,.26-.96,.36-.96,1.03,0,.14-.31,.33-.51,.4-.8,.28-2.71-.43-3.08-1.18-.24-.48-.5-.88-.99-1.14-.35-.19-.46-.6-.67-.93-.79-1.27-1.15-2.42-.73-4.07,.54-2.17,2-3.93,4.31-3.99,.39,0,.74,.06,.92-.47,.23-.72,.71-1.29,1.54-1.26,.75,.03,1.1,.6,1.27,1.29,.22,.86,.01,1.54-.81,1.97-.49,.35-.93,.14-1.31-.09,.23,.34,.8,.14,1.09,.51,.52,.3,.56,.87,.78,1.35,.08,.06,.17,.13,.17,.23,.02,.4,.26,.97-.24,1.1-.62,.16-.62-.44-.72-.88-.28-1.34-.99-1.76-2.32-1.4-.63,.17-1.17,.52-1.76,.78-.18,.13-.37,.24-.54,.34,.21-.06,.39-.25,.61-.36,.73-.34,1.42-.8,2.26-.83,.96-.04,1.56,.44,1.71,1.37,.06,.4-.02,.71-.48,.83,.45,.09,.95,.07,1.1,.63,.09,.58,.42,1.18-.17,1.7-.64,.58-1.6,.57-2.13,1.11,.74-.34,1.48-1.02,2.53-.72Z"/><path class="cls-68" d="M119.65,39.56c.02,.27,.68,.15,.38,.62-2.02,0-4.04,0-6.06,0-.97,.24-1.97-.06-2.94,.18-1.32-.05-2.64,.06-3.96-.16-1.24-.21-2.5,.29-3.76,.16-.64-.07-1.28-.14-1.92-.21-.25-.03-.29-.23-.34-.41-.03-.06-.02-.11,.03-.16h3.7c.45,.22,.89-.07,1.34-.02,1.21-.17,2.43-.34,3.66-.29,2.33,.1,4.65-.18,6.98-.17,.32,0,.65-.07,.96,.07,.66,.02,1.31,.13,1.93,.37Z"/><path class="cls-21" d="M98.89,30.47c-.53-.53-1.28-.27-1.94-.43,.45-.41,1.47-.14,1.04-1.24-.33-.83-.8-1.15-1.84-.86-.65,.18-1.25,.51-1.87,.77-.22,.05-.29-.05-.25-.26,.58-.48,1.27-.76,1.98-.96,1.39-.39,2.26,.15,2.51,1.58,.07,.37-.03,.82,.57,.85v-1.24l.23-.42c.33,.83,.14,1.7,.22,2.55,.31,.46,.32,.92-.03,1.37-.44-.44-.13-.98-.21-1.48-.04-.26-.02-.62-.42-.23Z"/><path class="cls-56" d="M90.69,11.33c.28,.04,.42,.21,.52,.42,.64,1.39,1.28,2.77,1.91,4.16,.12,.26,.28,.6-.07,.77-.37,.18-.51-.18-.62-.44-.61-1.4-1.39-2.72-1.86-4.18-.08-.25-.26-.56,.12-.73Z"/><path class="cls-86" d="M91.83,16.89c.01,.27,.04,.46-.12,.54-.21,.11-.43-.01-.5-.18-.72-1.56-1.62-3.04-2.06-4.72-.04-.14-.05-.34,.14-.42,.18-.07,.32,.05,.41,.18,.13,.18,.25,.38,.35,.58,.5,1.06,.98,2.12,1.47,3.18,.13,.29,.23,.6,.31,.81Z"/><path class="cls-14" d="M86.53,13.63c.36,.03,.47,.19,.56,.37,.63,1.38,1.27,2.76,1.88,4.15,.1,.24,.35,.61,0,.78-.38,.2-.57-.17-.69-.48-.57-1.37-1.38-2.64-1.83-4.07-.09-.27-.24-.61,.08-.76Z"/><path class="cls-100" d="M87.96,12.87c.31,.08,.41,.24,.49,.42,.65,1.41,1.31,2.83,1.95,4.24,.11,.23,.21,.56-.08,.7-.38,.18-.5-.21-.61-.44-.64-1.35-1.27-2.7-1.89-4.06-.14-.31-.23-.67,.14-.86Z"/><path class="cls-4" d="M84.98,14.87c-.01-.18,0-.37,.16-.44,.2-.1,.4,0,.48,.19,.65,1.55,1.6,2.96,2.07,4.59,.05,.18,.1,.41-.15,.5-.17,.06-.33-.06-.41-.19-.84-1.49-1.52-3.06-2.16-4.64Z"/><path class="cls-45" d="M99.52,32.17c0-.46,.02-.91,.03-1.37,.22-.23,.54-.61,.77-.27,.32,.47,.31,1.08-.03,1.61-.08,.12-.27,.16-.41,.24l-.36-.21Z"/><path class="cls-66" d="M99.12,32.56c-1.17,.13-2.19,.71-3.28,1.13,.87-.69,1.79-1.25,2.88-1.52,0,.27,.31,.22,.4,.39Z"/><path class="cls-47" d="M98.32,27.32c-.66-.09-1.37-.13-1.66-1.22,.64,.62,1.2,.9,1.88,.8-.07,.14-.14,.28-.22,.42Z"/><path class="cls-61" d="M118.86,40.96c-3.68,1.52-5.08,5.56-4.1,8.71,.03,.09,0,.19-.01,.28-.54,.21-.38,1-.97,1.17-.06-1.71,.01-3.42-.11-5.14-.15-2.12-1.1-3.67-2.84-4.79,.84-.42,1.77-.56,2.68-.59,1.9-.07,3.8-.02,5.82-.02-.21,.17-.34,.28-.47,.39Z"/><path class="cls-16" d="M100.47,43.7c-.76-.34-1.51-.22-2.26,.02-2.6-.01-5.2-.02-7.8-.04-.29,0-.79,.17-.8-.28,0-.47,.5-.26,.78-.3,2.31-.26,4.62,.12,6.92,0,1.33-.07,2.67,.13,3.97-.33,.26-.09,.62,.09,.94,.14,.05,.05,.06,.1,.03,.16-.01,.41-.16,.66-.64,.62-.38-.03-.77,0-1.16,0Z"/><path class="cls-77" d="M102.44,41.53l-.24,.21c-.23,.13-.47,.2-.74,.2-3.67,.06-7.35,.12-11.02,.19-.13,0-.26,0-.39,0-.2,0-.42-.02-.44-.27-.02-.26,.2-.29,.41-.3,.23,0,.46,0,.68,0,3.31,.03,6.62-.02,9.93-.19,.61-.03,1.28-.5,1.82,.18Z"/><path class="cls-44" d="M98.12,50.33c.14,.39,.28,.78,.42,1.16-.26,.29-.6,.19-.91,.18-.32-.01-.8,.17-.83-.38-.02-.38-.23-.87,.24-1.13,.37-.21,.79-.33,1.08,.17Z"/><path class="cls-61" d="M111.04,40.37c.96-.42,1.96-.08,2.94-.18-.96,.36-1.96,.15-2.94,.18Z"/><path class="cls-65" d="M95.6,46.81c.63-.36,1.28-.15,1.93,0h-1.93Z"/><path class="cls-97" d="M129.59,45.61c-1.14,.31-1.89-.02-2.08-.92-.19-.92,.63-2.24,1.48-2.35,.8-.1,1.23,.43,1.43,1.07,.21,.66,.56,.88,1.23,.94,1.09,.1,2.04,.63,2.89,1.32,.38,.31,.79,.64,.92,1.11,.38,1.36,.86,2.88,.48,4.13-.3,.98-.88,2.22-1.89,2.91-.42,.29-.73,.59-.97,1.03-.4,.75-2.5,1.47-3.29,1.15-.17-.07-.42-.25-.41-.37,.05-.85-.67-1.03-1.18-1.35-.87-.56-1.34-1.29-1.29-2.34,.3-.65,.82-.51,1.34-.37,.93,.18,1.67,.75,2.46,1.22-.73-.42-1.39-.98-2.24-1.18-.87-.21-1.08-.82-.97-1.6,.11-.78,.58-1.17,1.37-1.15,1.15,.21,2.18,.7,3.17,1.29-.94-.59-1.93-1.04-3.01-1.29-.67-.42-.47-1-.2-1.51,.34-.65,.96-.84,1.65-.74,.44,.06,.86,.27,1.28,.42,.55,.22,1.03,.54,1.45,.82-.29-.27-.73-.46-1.13-.71-.46-.22-.97-.33-1.42-.56-.32-.22-.94,.11-1.03-.55l.21-.18c.05-.09,.13-.22,.1-.26-.09-.14-.21,.03-.32,.02Z"/><path class="cls-91" d="M128.43,51.71c-.51,.08-1.08-.22-1.53,.24-.08-.08-.16-.17-.24-.25l.41-.57c.42-.49,.08-1.04,.13-1.56,.07-.66-.04-1.35,.24-1.99,.06,.2-.02,.45,.18,.61,.3,.11,.42-.09,.48-.32,.45-1.74,1.05-1.66,2.68-1.45,.46,.2,.91,.41,1.37,.61,.03,.2-.03,.31-.26,.24-.62-.15-1.19-.49-1.86-.45-.57,.04-1.02,.3-1.14,.86-.08,.38-.36,.91,.33,1.1,.03,.2-.02,.31-.25,.23-.7,.04-1.17,.32-1.26,1.08-.08,.73,.17,1.24,.91,1.45,.04,.17,.02,.27-.19,.18Z"/><path class="cls-3" d="M130.79,46.41c-2.02-.02-2.04-.01-2.48,1.9-.07,.29-.14,.54-.46,.5-.42-.05-.13-.42-.22-.63,.24-1.1,.47-2.21,1.98-2.16,.3,.4,.87-.01,1.18,.38Z"/><path class="cls-83" d="M131.18,43.3c1.11,0,2.23,0,3.34,0-.52,1.19-.53,1.22-1.68,.69-.55-.25-1.2-.24-1.66-.69Z"/><path class="cls-60" d="M129.59,45.61c.22-.21,.45-.42,.74-.69,.03,.5-.11,.79-.51,.93l-.23-.24Z"/><path class="cls-71" d="M113.79,51.12c.38-.34-.11-1.4,.97-1.17l.78,1.37c-.54,.73-1.16,.4-1.78,.15l.04-.36Z"/><path class="cls-65" d="M104.78,54.07c-.41,.72-.71,.35-1.01-.1,.39-.47,.69-.16,1.01,.1Z"/><path class="cls-11" d="M80.48,42.89c1.27,.28,2.58-.21,3.84,.2,.22,.07,.53-.13,.52,.32,0,.4-.23,.49-.57,.49-.49,0-.98,.03-1.46,0-1.5-.1-2.98,.17-4.46,.22-.47-.69,.16-.62,.48-.61,.65,.02,1.23-.07,1.66-.61Z"/><path class="cls-65" d="M84.68,49.95c.17,0,.35,.02,.52,.03,0,.38,.02,.76,.02,1.15,0,.26,0,.52-.36,.57-.32,.04-.58-.01-.62-.4,.14-.45,.29-.89,.43-1.34Z"/><path class="cls-65" d="M115.94,61.43c-.39-.34-.26-.76-.16-1.16,.18-.71,.38-1.42,.57-2.13,.86-.15,1.27,.22,1.36,1.21,.06,1.24-1.02,1.51-1.76,2.07Z"/><path class="cls-80" d="M100.91,51.69c-.02-.53-.15-1.07,.09-1.59,.26,.01,.52,.04,.77,.03,.5-.03,.88,0,.86,.69-.02,.61-.2,.91-.85,.87-.29-.02-.58,0-.87,0Z"/><path class="cls-65" d="M123.59,58.14c.26,.64-.15,1.18-.26,1.77h-1.37c.14-.2,.38-.41,.34-.5-.66-1.55,.49-1.23,1.29-1.27Z"/><path class="cls-65" d="M121.63,57.94l-.23-.18c.05-.6,.48-.6,.92-.59,.39,0,.77,0,1.16,0-.15,.92-.18,.78-1.85,.77Z"/><path class="cls-65" d="M114.31,57.59c-.23,0-.45,0-.68,0-.28-.02-.55-.04-.99-.06,.83-.49,1.62-.49,2.39-.54,.18-.01,.51-.15,.52,.21,0,.26-.22,.36-.48,.37-.26,0-.51,.02-.77,.03Z"/><path class="cls-65" d="M103.06,53.81c-.05,.26-.11,.56-.43,.55-.47-.02-.94-.13-1.41-.21-.02,0-.06-.19-.02-.25,.07-.11,.19-.12,.33-.11,.51,.03,1.02,.03,1.53,.04h0Z"/><path class="cls-65" d="M103.2,54.83c.81,0,1.42,0,2.03,0,.18,0,.37,.02,.55,.14-.8-.01-1.58,.6-2.58-.15Z"/><path class="cls-65" d="M100.87,53.28c.03-.05,.06-.12,.1-.16,.35-.34,.75-.3,1.14-.12,.13,.06,.12,.25,.02,.33-.31,.24-.67,.15-1.01,.06-.09-.02-.18-.07-.27-.11h0Z"/><path class="cls-65" d="M118.81,57.35c-.04,.17-.19,.21-.36,.17-.16-.04-.3-.14-.28-.33,.03-.22,.22-.2,.37-.19,.18,.02,.29,.11,.26,.35Z"/><path class="cls-26" d="M96.79,60.41c.09-.64,.29-1.31,.8-1.86,.21-.22,.47-.38,.78-.24,.32,.15,.19,.45,.13,.69-.14,.6-.29,1.19-.49,1.77-.12,.35-.41,.6-.84,.5-.43-.1-.37-.47-.38-.86Z"/><path class="cls-92" d="M112.91,60.45c.08-.69,.29-1.33,.75-1.86,.23-.26,.54-.4,.87-.23,.31,.17,.13,.46,.07,.69-.15,.59-.28,1.19-.5,1.76-.13,.33-.45,.59-.86,.45-.38-.14-.36-.49-.33-.81Z"/><path class="cls-106" d="M89.12,59.04c.06,.55,.18,1.08,.17,1.61-.01,.63-.4,.92-1.04,.83-.16-.02-.38-.23-.31-.27,.85-.47,.26-1.67,1.18-2.17Z"/><path class="cls-90" d="M84.98,59.83c-.25,.05-.35-.08-.3-.26,.15-.56,.31-1.14,.92-1.38,.28-.11,.43,.12,.4,.38-.08,.63-.47,1.03-1.01,1.26Z"/><path class="cls-89" d="M63.71,51.31c-.34,.24,0,.73-.35,.97-.62-2.37-.73-4.8-.8-7.23-.01-.45,0-.91,0-1.36-.03-.8-.12-1.61-1-1.93-.43-.16-1.53,.95-1.72,1.65-.14,.49,.07,1.18-.8,1.25-.19,.02-.11,.4-.15,.62-.18,1.25-.8,2.32-1.5,3.33-.38,.56-.95,1-1.66,.72-.64-.25-.63-.93-.64-1.52-.02-1.24,.11-2.42,.76-3.55,.53-.92-.09-1.73-.61-2.49,.82-.76,1.86-.39,2.79-.47,1.51-.12,3.03-.07,4.55-.04,.29,0,.58,.05,.79,.29-.33,.32-.24,.7-.16,1.08,.53,2.87,.63,5.76,.5,8.67Z"/><path class="cls-82" d="M63.37,41.56c-2.71,.02-5.43-.16-8.13,.22-.11-.13-.22-.26-.33-.38,.53-.35,1.08-.37,1.72-.33,1.21,.08,2.44-.07,3.66-.09,2.17-.02,4.34-.02,6.5-.01,.15,0,.29,.1,.44,.16-.25,.14-.5,.29-.74,.43-.8,.51-1.59,.18-2.39,0h-.73Z"/><path class="cls-69" d="M64.1,41.56c.8,0,1.59,0,2.39,0-.8,1.53-1.59,.33-2.39,0Z"/><path class="cls-94" d="M69.72,49.94c.33,.04,.76-.12,1.09,.12,.3,.22,.15,.6,.14,.91-.01,.29-.25,.34-.49,.34-.36,0-.71,0-1.07,0-.49,0-.96,.09-.96-.69,0-.81,.49-.68,.97-.68,.1,0,.19,0,.34,0Z"/><path class="cls-110" d="M111.9,25.93c.41-1.01,.87-1.96,1.71-2.69,1.39-1.19,3.18-1.18,4.41,.03,.58,.57,.92,1.11,.1,1.76-.16,.13-.23,.37-.36,.58,.35,.12,.53-.11,.72-.25,2.48-1.81,5.35-.36,6.25,2.11,.28,.77,.4,1.56,.43,2.39,.03,.79-.15,1.21-1.18,.73,.49,.49,.83,.84,1.17,1.17,.42,.41,.79,.87,1.07,1.39,.61,1.13,.56,2.23-.13,2.9-.65,.64-2.22,.79-3.13,.3-.18-.09-.34-.2-.4-.4-.36-1.29-1.48-1.53-2.55-1.82-.46-.13-1.07-.08-1.21-.64-.13-.54,.42-.83,.71-1.2,.26-.32,.7-.48,.92-.98-.79-.02-1.27,.44-1.73,.89-1.02,1.01-2.21,1.58-3.67,1.51-1.99-.09-3.11-1-3.67-2.91-.12-.43-.07-.92-.41-1.29-.34,.59-.19,1.2-.14,1.81,.13,1.74-.65,2.59-2.35,2.59-1.19,0-1.77-.46-2.08-1.64-.09-.33-.09-.7-.39-1.03-.33,.73-.16,1.42-.02,2.11,.09,.42,.4,.86-.11,1.25-.52,.4-1.08,.6-1.73,.4-2.41-.73-3.5-4.66-1.83-6.54,.6-.68,1.35-.83,2.2-.79,.51,.02,.58,.45,.8,.75,.31,.41,.57,.86,1.16,1.08-.15-.29-.31-.57-.43-.87-.87-2.08-.82-4.08,.7-5.85,1.4-1.63,3.87-1.66,5.42-.18,.35,.34,.33,.65,.2,1.05-.24,.74-.49,1.48-.45,2.28Z"/><path class="cls-110" d="M119.54,37.53c.5,.43,1.13,.5,1.69,.74,.39,.17,.75,.37,.6,.84-.16,.53-.59,.23-.89,.16-3.47-.91-6.98-1.54-10.6-1.23-1.3,.11-2.56,.45-3.84,.65-.39,.06-.98,.48-1.14-.19-.15-.63-.28-1.4,.57-1.76,.59-.25,1.2-.47,2.01-.79-.85-.06-1.39,.23-1.97,.32-.17,.03-.4,.19-.51-.05-.09-.19,.06-.37,.17-.53,.24-.34,.6-.49,.98-.59,4.56-1.29,9.12-1.17,13.66,.08,.57,.16,1.1,.42,1.33,1.04,.18,.49,.39,1.08,.1,1.49-.25,.35-.77-.08-1.17-.11-.31-.03-.61-.23-.99-.07Z"/><path class="cls-78" d="M117.72,39.18c-3.85,.51-7.72,.43-11.59,.4,3.83-1.21,7.7-1.21,11.59-.4Z"/><path class="cls-74" d="M96.76,30.31c-.87,.42-1.72,.82-2.7,1.3,.85-1.08,2.02-1.62,2.7-1.3Z"/><path class="cls-15" d="M94.02,28.44l.25,.26-1.02,.64c.07-.5,.37-.75,.77-.9Z"/><path class="cls-72" d="M128.97,49l.25-.23c1.39,.2,2.54,.86,3.5,1.87-1.25-.55-2.42-1.28-3.75-1.64Z"/><path class="cls-23" d="M128.43,51.71l.19-.18c1.03,.25,1.83,.86,2.53,1.66-.91-.49-1.81-.99-2.72-1.48Z"/><path class="cls-102" d="M131.9,47.26l.26-.24c.73,.24,1.28,.72,1.65,1.45-.63-.41-1.27-.81-1.9-1.21Z"/></g></g></svg>